<svg width="24" height="24" fill="none" xmlns="http://www.w3.org/2000/svg"><path fill-rule="evenodd" clip-rule="evenodd" d="M12 4.5A4.5 4.5 0 007.5 9H6a6 6 0 1112 0h-1.5A4.5 4.5 0 0012 4.5zm4.5 9c0 1.882-1.314 3.897-3.237 4.538l.474 1.423C16.314 18.602 18 15.983 18 13.5h-1.5zM3 10.75C3 9.784 3.784 9 4.75 9H7.5v6.55a.95.95 0 01-.95.95h-1.8A1.75 1.75 0 013 14.75v-4zm1.75-.25a.25.25 0 00-.25.25v4c0 .138.112.25.25.25H6v-4.5H4.75z" fill="#fff"/><path fill-rule="evenodd" clip-rule="evenodd" d="M21 10.75A1.75 1.75 0 0019.25 9H16.5v6.55c0 .525.425.95.95.95h1.8A1.75 1.75 0 0021 14.75v-4zm-1.75-.25a.25.25 0 01.25.25v4a.25.25 0 01-.25.25H18v-4.5h1.25zM12 18a.75.75 0 100 1.5.75.75 0 000-1.5zm-2.25.75a2.25 2.25 0 114.5 0 2.25 2.25 0 01-4.5 0z" fill="#fff"/></svg>