<svg width="88" height="17" fill="none" xmlns="http://www.w3.org/2000/svg"><path d="M0 4.895h2.863l2.378 6.72 2.51-6.72h1.763l2.466 6.631 2.334-6.63h2.907L12.95 16.732H11.1l-2.51-6.72-2.555 6.72H4.228L0 4.895zM18.939.312h2.907v5.74c.572-.49 1.145-.89 1.718-1.112.572-.267 1.189-.356 1.761-.356 1.146 0 2.159.4 2.951 1.201.66.712 1.013 1.736 1.013 3.116v7.832h-2.907v-5.207c0-1.38-.044-2.314-.176-2.759-.132-.49-.352-.846-.66-1.068-.309-.223-.705-.4-1.146-.4-.616 0-1.1.177-1.541.578-.44.4-.705.935-.881 1.647-.088.356-.132 1.157-.132 2.447v4.762h-2.907V.312zM34.75 6.364c0-.801-.66-1.469-1.454-1.469-.792 0-1.453.668-1.453 1.469v10.324h2.95L34.75 6.364zm20.965 5.296H46.29c.132.845.485 1.513 1.101 2.002.573.49 1.366.757 2.247.757 1.1 0 2.026-.4 2.818-1.157l2.467 1.157c-.617.89-1.365 1.557-2.202 1.958-.881.445-1.894.623-3.083.623-1.85 0-3.348-.579-4.493-1.736-1.145-1.157-1.718-2.625-1.718-4.405 0-1.825.573-3.294 1.718-4.495 1.145-1.202 2.599-1.78 4.316-1.78 1.85 0 3.348.578 4.493 1.78 1.145 1.201 1.718 2.759 1.718 4.717l.044.579zM52.809 9.3c-.176-.668-.573-1.202-1.145-1.602a3.39 3.39 0 00-1.982-.623c-.837 0-1.542.222-2.159.712-.396.311-.748.801-1.056 1.513h6.342zM40.697 4.895V.534h-2.951v16.154h2.95V7.432h1.763V4.895h-1.762z" fill="#fff"/><path d="M33.253 0c.529 0 .97.178 1.322.579.396.356.572.845.572 1.38 0 .533-.176.978-.528 1.334-.353.356-.793.579-1.322.579-.528 0-.969-.178-1.321-.579-.352-.4-.573-.845-.573-1.38 0-.533.177-.978.529-1.334.396-.401.837-.579 1.321-.579zm41.225.712h2.996V16.69h-2.996V.712zm4.801 0H88v2.982h-2.863v12.995h-3.039V3.694H79.28V.712zM64.965 6.586l-.308.579c-.044.089-.044.133-.088.178v.133c0 .09.044.178.088.267.088.09.176.134.264.134.088 0 .176-.045.264-.089.088-.09.088-.178.088-.267a.637.637 0 00-.088-.267.333.333 0 00-.176-.09l.176-.355-.22-.223zm.088.846c0 .044 0 .044-.044.089-.044.044-.088.044-.132 0 0 0-.044-.045-.044-.09 0-.044 0-.044.044-.088l.044-.045c.044 0 .044 0 .088.045 0 .044.044.044.044.089zm1.277-5.296l-.484.712v.267h.44v.223h.264v-.223h.089v-.267h-.088v-.712h-.22zm-.132.712l.132-.178v.178h-.132zm-6.034 9.301l.396-.8h-.396v-.268h.793v.178l-.485 1.024-.308-.134zm4.845 2.76c.044-.045.044-.045.044-.09 0-.044 0-.089-.044-.089-.044-.044-.088-.044-.132 0l-.044.045-.22-.045.132-.667h.572v.267h-.352v.089c.088 0 .22.044.264.133.088.09.088.178.088.267a.406.406 0 01-.132.312.398.398 0 01-.308.133.622.622 0 01-.264-.089.245.245 0 01-.132-.222v-.045h.308v.045c0 .044.044.044.044.044.088 0 .132-.044.176-.089zm-.132-5.741c.088-.09.088-.178.088-.267a.636.636 0 00-.088-.268.332.332 0 00-.176-.089l.176-.356-.264-.133-.309.579c-.044.088-.044.133-.088.178v.133c0 .089.044.178.088.267.088.089.177.134.264.134a.707.707 0 00.309-.178zm-.352-.267c0-.045 0-.045.043-.09l.045-.044c.044 0 .044 0 .088.045 0 0 .044.044.044.089 0 .044 0 .044-.044.089-.044.044-.088.044-.132 0-.044 0-.044-.045-.044-.09zm6.166 3.337v-.222h.088v-.267h-.088v-.668h-.265l-.484.712v.267h.44v.223h.309v-.045zm-.397-.49l.132-.177v.178h-.132zm-6.254-2.49l.132-.134c.044-.044.044-.133.044-.178 0-.044 0-.133-.044-.178 0-.044-.044-.089-.088-.089.044-.045.044-.045.044-.089 0-.045.044-.089.044-.134 0-.044 0-.133-.044-.178l-.132-.133a.482.482 0 00-.352 0l-.133.133c-.044.045-.044.09-.044.178 0 .045 0 .09.044.134 0 .044.044.044.044.089-.044.044-.044.089-.088.089-.044.045-.044.134-.044.178 0 .089 0 .134.044.178l.133.134c.044.044.132.044.22.044s.132 0 .22-.044zm-.176-.757c-.044.044-.088.044-.088 0v-.089h.088V8.5zm-.132.356c.044-.044.044-.044.088-.044s.044 0 .088.044c.044 0 .044.045.044.089 0 .045 0 .045-.044.089a.133.133 0 01-.176 0c-.044 0-.044-.044-.044-.089 0-.044 0-.089.044-.089zm2.73 6.364v-.89h-.22l.176-.267h.353v1.157h-.309zm-3.479-.801a.341.341 0 00-.088.222c0 .045 0 .134.044.178.044.045.044.09.132.134.088.044.22.044.308 0 .044 0 .088-.045.133-.134l.044-.044.176.222-.044.045c-.088.089-.177.133-.22.178-.089.044-.177.044-.265.044a.563.563 0 01-.44-.178.575.575 0 01-.176-.445c0-.133.044-.222.088-.311a.534.534 0 01.22-.223.647.647 0 01.572 0c.089.045.177.09.22.178l.045.045-.22.178-.045-.045a.398.398 0 00-.308-.133c-.044 0-.132 0-.176.089zm1.145.8c.088 0 .176-.044.264-.088.089-.09.089-.178.089-.267 0-.09-.045-.178-.089-.267a.333.333 0 00-.176-.09l.176-.355-.264-.134-.308.579c-.044.089-.044.133-.088.178v.133c0 .09.044.178.088.267.088.045.176.045.308.045zm-.088-.355c0-.045 0-.045.044-.09l.044-.044c.044 0 .044 0 .088.045 0 0 .044.044.044.089 0 .044 0 .044-.044.089-.044.044-.088.044-.132 0-.044-.045-.044-.045-.044-.09zm3.039.267l.396-.801h-.396v-.267h.793v.178l-.485 1.023-.308-.133zm-1.321-6.409c.044-.088.044-.133.088-.178v-.133a.636.636 0 00-.088-.267c-.088-.089-.176-.134-.264-.134a.622.622 0 00-.265.09c-.088.088-.088.177-.088.266 0 .09.044.178.088.268a.332.332 0 00.176.088l-.176.357.264.133.265-.49zm-.22-.267c0 .045 0 .045-.044.09-.045.044-.089.044-.133 0 0 0-.044-.045-.044-.09 0-.044 0-.044.044-.089l.044-.044c.044 0 .044 0 .044.044.088.045.088.09.088.09zm-1.366-.934c.044-.045.044-.045.044-.09 0-.044 0-.088-.044-.088-.044-.045-.088-.045-.132 0l-.044.044-.22-.044.132-.668h.573v.267h-.353v.09c.088 0 .22.044.264.133.089.089.089.178.089.267a.406.406 0 01-.133.311.398.398 0 01-.308.134.622.622 0 01-.264-.089.245.245 0 01-.132-.223v-.044h.308v.044c0 .045.044.045.044.045l.176-.09zm6.21 2.67c0 .134 0 .267.044.356.044.09.088.134.132.178.045.045.133.045.22.045.089 0 .177 0 .221-.045a.607.607 0 00.132-.178c.044-.089.044-.178.044-.356 0-.133 0-.267-.044-.356-.044-.089-.088-.133-.132-.178-.044-.044-.132-.044-.22-.044-.132 0-.22.044-.309.178-.044.044-.088.178-.088.4zm.309 0V9.97c0-.045.044-.09.044-.09l.044-.044s.044 0 .088.045c0 .044.044.089.044.267 0 .133 0 .222-.044.267-.044.044-.044.044-.088.044s-.044 0-.088-.044v-.223zM60.516 3.605l-.308.578c-.044.09-.044.134-.088.178v.134c0 .089.044.178.088.267.088.089.176.133.264.133a.618.618 0 00.265-.089c.088-.089.088-.178.088-.267a.636.636 0 00-.088-.267.332.332 0 00-.177-.089l.177-.356-.22-.222zm.089.845c0 .045 0 .045-.044.09-.044.044-.089.044-.133 0 0 0-.044-.045-.044-.09 0-.044 0-.044.044-.089l.044-.044c.044 0 .044 0 .088.044 0 .045.045.09.045.09zm0 3.07c.044 0 .044-.044.044-.088 0-.045 0-.045-.044-.09-.044-.044-.088-.044-.133-.044h-.044v-.267h.132s.045 0 .045-.044v-.089h-.088l-.045.044v.045h-.264v-.045a.34.34 0 01.088-.222c.088-.09.176-.134.264-.134.089 0 .177.045.265.09.088.044.088.133.088.222 0 .044 0 .089-.044.133 0 .045-.044.045-.044.045.044 0 .088.044.088.089.044.044.044.133.044.178 0 .089-.044.178-.132.267a.398.398 0 01-.309.133c-.132 0-.22-.044-.264-.089-.088-.089-.132-.178-.132-.267v-.044h.264v.044c0 .045 0 .09.044.09.044.088.133.088.177.044zm2.422-4.894c.044-.045.044-.09.044-.134 0-.044 0-.044-.044-.089-.044-.044-.088-.044-.132 0 0 .045-.044.045-.044.09v.044h-.264v-.045c0-.133.044-.222.132-.311.088-.09.176-.134.264-.134.088 0 .132 0 .176.045l.132.133c.044.045.044.134.044.178 0 .09 0 .134-.044.223s-.088.178-.22.267l-.044.044h.308v.267h-.837V3.16l.353-.356c.132-.045.176-.134.176-.178zm.264 3.96l-.308.579c-.044.089-.044.133-.088.178v.133c0 .09.044.178.088.267.088.09.176.134.264.134a.622.622 0 00.264-.089c.089-.09.089-.178.089-.267a.621.621 0 00-.089-.267.333.333 0 00-.176-.09l.176-.355-.22-.223zm.088.846c0 .044 0 .044-.044.089-.044.044-.088.044-.132 0 0 0-.044-.045-.044-.09 0-.044 0-.044.044-.088l.044-.045c.044 0 .044 0 .088.045.044.044.044.044.044.089zm-.396 5.118l-.308.578c-.044.09-.044.134-.088.178v.134c0 .089.044.178.088.267.088.089.176.133.264.133a.614.614 0 00.264-.089c.088-.089.088-.178.088-.267 0-.089-.044-.178-.088-.267a.333.333 0 00-.176-.089l.176-.356-.22-.222zm.088.845c0 .045 0 .045-.044.09-.044.044-.088.044-.132 0 0 0-.044-.045-.044-.09 0-.044 0-.044.044-.089l.044-.044c.044 0 .044 0 .088.044.044 0 .044.045.044.09zm-2.907-2.848a.614.614 0 00.132.178c.044.045.132.045.22.045.089 0 .177 0 .22-.045a.612.612 0 00.133-.178c0-.044.044-.089.044-.133v.133h.44v.223h.265v-.223h.088v-.267h-.088v-.667h-.22l-.485.712v-.09c0-.133 0-.266-.044-.355a.612.612 0 00-.132-.178c-.044-.045-.132-.045-.22-.045-.133 0-.22.045-.309.178a.965.965 0 00-.088.445c-.044.045 0 .178.044.267zm1.101-.267l.132-.178v.178h-.132zm-.88-.089V9.97c0-.045.043-.09.043-.09l.044-.044s.044 0 .088.045c0 .044.045.089.045.267 0 .133 0 .222-.044.267-.044.044-.044.044-.089.044-.044 0-.044 0-.088-.044v-.223zm2.598-2.136l-.308.579c-.044.088-.044.133-.088.178v.133c0 .089.044.178.088.267.088.089.176.134.264.134.088 0 .176-.045.264-.09.088-.088.088-.177.088-.266 0-.09-.044-.178-.088-.268a.333.333 0 00-.176-.088l.176-.357-.22-.222zm.088.846c0 .044 0 .044-.044.089-.044.044-.088.044-.132 0 0 0-.044-.045-.044-.09 0-.044 0-.044.044-.088l.044-.045c.044 0 .044 0 .088.045a.139.139 0 01.044.089zm-.925-2.582l.308-.578c.044-.09.044-.134.088-.178v-.134a.636.636 0 00-.088-.267c-.088-.089-.176-.133-.264-.133a.614.614 0 00-.264.089c-.088.089-.088.178-.088.267 0 .089.044.178.088.267a.332.332 0 00.176.089l-.176.356.22.222zm-.088-.8c0-.045 0-.045.044-.09l.044-.044c.044 0 .044 0 .044.044 0 0 .044.045.044.09 0 .044 0 .044-.044.088-.044.045-.088.045-.132 0v-.089zm5.11.489c.043 0 .043-.045.043-.09 0-.044 0-.044-.044-.088-.044-.045-.088-.045-.176-.045h-.044v-.267h.132s.044 0 .044-.044v-.089h-.088l-.044.044v.045h-.264v-.045a.34.34 0 01.088-.222c.088-.09.176-.134.264-.134.088 0 .176.045.264.09.088.044.088.133.088.222 0 .044 0 .089-.044.133 0 .045-.044.045-.044.045.044 0 .088.044.088.089.044.044.044.133.044.178 0 .089-.044.178-.132.267a.398.398 0 01-.308.133c-.132 0-.22-.044-.264-.089-.088-.089-.132-.178-.132-.267V5.83h.264v.044c0 .045 0 .09.044.09.088.088.176.088.22.044zM60.912 4.45c0 .09 0 .134.044.178l.132.134c.044.044.132.044.22.044s.177 0 .22-.044l.133-.134c.044-.044.044-.133.044-.178 0-.044 0-.133-.044-.178 0-.044-.044-.089-.088-.089.044-.044.044-.044.044-.089 0-.044.044-.089.044-.133 0-.045 0-.134-.044-.178l-.133-.134a.482.482 0 00-.352 0L61 3.783c-.044.044-.044.089-.044.178 0 .044 0 .089.044.133 0 .045.044.045.044.09-.044.044-.044.088-.088.088-.044.09-.044.134-.044.178zm.484-.4c-.044.044-.088.044-.088 0v-.089h.088v.089zm-.044.311c.044 0 .044 0 .088.045.044 0 .044.044.044.089 0 .044 0 .044-.044.089a.133.133 0 01-.176 0c-.044 0-.044-.045-.044-.09 0-.044 0-.044.044-.088 0-.045.044-.045.088-.045zm-.044.757L61 5.696c-.044.09-.044.134-.088.178v.134c0 .089.044.178.088.267.088.089.176.133.264.133a.622.622 0 00.264-.089c.089-.089.089-.178.089-.267a.626.626 0 00-.089-.267.332.332 0 00-.176-.089l.176-.356-.22-.222zm.088.845c0 .045 0 .045-.044.09-.044.044-.088.044-.132 0 0 0-.044-.045-.044-.09 0-.044 0-.044.044-.089l.044-.044c.044 0 .044 0 .088.044.044 0 .044.045.044.09zm.837 4.095c.044-.045.044-.09.044-.134 0-.044 0-.044-.044-.089-.044-.044-.088-.044-.132 0 0 .045-.044.045-.044.09v.044h-.264v-.045c0-.133.044-.222.132-.311.088-.09.176-.134.264-.134.088 0 .132 0 .176.045l.133.133c.043.045.043.134.043.178 0 .09 0 .134-.044.223s-.088.178-.22.267l-.044.044h.308v.267h-.836v-.178l.352-.356c.088.09.132 0 .176-.044zm-.088-6.453l-.308.578c-.044.09-.044.134-.088.178v.134c0 .089.044.178.088.267.088.089.176.133.264.133a.62.62 0 00.264-.089c.088-.089.088-.178.088-.267a.636.636 0 00-.088-.267.332.332 0 00-.176-.089l.176-.356-.22-.222zm.088.845c0 .045 0 .045-.044.09-.044.044-.088.044-.132 0 0 0-.044-.045-.044-.09 0-.044 0-.044.044-.089l.044-.044c.044 0 .044 0 .088.044a.139.139 0 01.044.09zM61 9.212l.396-.801h-.44v-.267h.793v.178l-.485 1.024L61 9.212zm.749-2.003c0-.133.044-.222.088-.311a.534.534 0 01.22-.223.647.647 0 01.573 0c.088.045.176.09.22.178l.044.045-.22.178-.044-.045a.398.398 0 00-.309-.133.334.334 0 00-.22.089.342.342 0 00-.088.222c0 .045 0 .134.044.178.044.045.044.09.132.134.088.044.22.044.309 0 .043 0 .088-.045.132-.134l.044-.044.176.222-.044.045c-.088.089-.176.133-.22.178-.089.044-.177.044-.265.044a.562.562 0 01-.44-.178c-.044-.133-.132-.267-.132-.445zm1.277 3.56h.264v-.222h.088v-.267h-.088v-.667h-.264l-.485.712v.267h.441v.178h.044zm-.132-.489l.132-.178v.178h-.132zM61.045 7.7c.088.089.176.133.264.133a.62.62 0 00.265-.089c.088-.089.088-.178.088-.267a.636.636 0 00-.088-.267.332.332 0 00-.177-.089l.177-.356-.265-.133-.308.578c-.044.09-.044.134-.088.178v.134c.044 0 .088.089.132.178zm.176-.267c0-.045 0-.045.044-.09l.044-.044c.044 0 .044 0 .088.045 0 0 .044.044.044.089 0 .044 0 .044-.044.089-.044.044-.088.044-.132 0-.044-.045-.044-.045-.044-.09zm1.542 4.806c.044.045.132.045.22.045s.176 0 .22-.045l.132-.133c.044-.045.044-.134.044-.178 0-.045 0-.134-.044-.178 0-.045-.044-.09-.088-.09.044-.044.044-.044.044-.088 0-.045.044-.09.044-.134 0-.044 0-.133-.044-.178l-.132-.133a.482.482 0 00-.352 0l-.132.133c-.044.045-.044.09-.044.178 0 .045 0 .09.044.134 0 .044.044.044.044.089-.044.044-.044.089-.088.089-.044.044-.044.133-.044.178 0 .089 0 .133.044.178l.132.133zm.264-.756c-.044.044-.088.044-.088 0v-.089h.088v.089zm-.044.311c.044 0 .044 0 .088.045.044 0 .044.044.044.089 0 .044 0 .044-.044.089a.133.133 0 01-.176 0c-.044 0-.044-.045-.044-.09 0-.044 0-.044.044-.088 0-.045.044-.045.088-.045zm-1.057 1.914c.044.044.132.044.22.044s.176 0 .22-.044a.614.614 0 00.133-.178c.043-.09.043-.178.043-.356 0-.134 0-.267-.044-.356a.614.614 0 00-.132-.178c-.044-.045-.132-.045-.22-.045-.132 0-.22.045-.308.178a.966.966 0 00-.088.445c0 .134 0 .267.044.356.044 0 .088.09.132.134zm.088-.534v-.223c0-.044.044-.089.044-.089l.044-.044s.044 0 .088.044c0 .045.044.09.044.267 0 .134 0 .223-.044.267-.044.045-.044.045-.088.045s-.044 0-.088-.045c.044 0 0-.089 0-.222zm-1.85-7.12a.614.614 0 00.132.177c.044.045.132.045.22.045.089 0 .177 0 .22-.045a.612.612 0 00.133-.178c.044-.089.044-.178.044-.356 0-.133 0-.267-.044-.356a.612.612 0 00-.132-.178c-.044-.044-.132-.044-.22-.044-.133 0-.22.044-.309.178a.965.965 0 00-.088.445c-.044.133 0 .267.044.311zm.22-.312v-.223c0-.044.044-.089.044-.089l.044-.044s.044 0 .088.044c0 .045.045.09.045.267 0 .134 0 .223-.044.267-.044.045-.044.045-.089.045-.044 0-.044 0-.088-.045v-.222zm-.22 3.293a.614.614 0 00.132.178c.044.045.132.045.22.045.089 0 .177 0 .22-.045a.612.612 0 00.133-.178c.044-.089.044-.178.044-.356 0-.134 0-.267-.044-.356a.612.612 0 00-.132-.178c-.044-.045-.132-.045-.22-.045-.133 0-.22.045-.309.178a.965.965 0 00-.088.446c-.044.133 0 .222.044.311zm.22-.312V8.5c0-.045.044-.089.044-.089l.044-.045s.044 0 .088.045c0 .044.045.089.045.267 0 .134 0 .223-.044.267-.044.045-.044.045-.089.045-.044 0-.044 0-.088-.045v-.223zm2.599-3.871l.308-.579c.044-.089.044-.133.088-.178v-.133c0-.09-.044-.178-.088-.267-.088-.09-.176-.134-.264-.134a.622.622 0 00-.264.09c-.088.088-.088.177-.088.266 0 .09.044.178.088.267a.333.333 0 00.176.09l-.176.355.22.223zm-.088-.846c0-.044 0-.044.044-.089l.044-.044c.044 0 .044 0 .044.044 0 0 .044.045.044.09 0 .044 0 .044-.044.088-.044.045-.088.045-.132 0v-.089zm-1.057 5.207l.396-.801h-.396v-.267h.793v.178l-.485 1.024-.308-.134zm.793-4.05h.792v.178l-.484 1.024-.264-.134.396-.8h-.396v-.268h-.044zm-.925 8.545h-.837v-.178l.352-.356c.088-.09.132-.134.132-.178.044-.045.044-.09.044-.134 0-.044 0-.044-.044-.089-.044-.044-.088-.044-.132 0 0 .045-.044.045-.044.09v.044h-.264v-.045c0-.133.044-.222.132-.311.088-.09.176-.134.264-.134.088 0 .132 0 .177.045l.132.133c.044.045.044.134.044.178 0 .09 0 .134-.044.223s-.089.178-.22.267l-.045.044h.309v.4h.044zm.044-2.448l-.485 1.024-.264-.134.396-.8h-.44v-.268h.793v.178zm.396-.222l-.308.578c-.044.09-.044.134-.088.178v.134c0 .089.044.178.088.267.088.089.176.133.264.133a.62.62 0 00.264-.089c.088-.089.088-.178.088-.267a.636.636 0 00-.088-.267.332.332 0 00-.176-.089l.176-.356-.22-.222zm.088.845c0 .045 0 .045-.044.09-.044.044-.088.044-.132 0 0 0-.044-.045-.044-.09 0-.044 0-.044.044-.089l.044-.044c.044 0 .044 0 .088.044.044.045.044.045.044.09zm-1.321-8.544h-.837V3.16l.352-.356c.089-.09.133-.134.133-.178.044-.045.044-.09.044-.134 0-.044 0-.044-.044-.089-.044-.044-.089-.044-.133 0 0 .045-.044.045-.044.09v.044h-.264v-.045c0-.133.044-.222.132-.311.088-.09.176-.134.264-.134.089 0 .133 0 .177.045l.132.133c.044.045.044.134.044.178 0 .09 0 .134-.044.223a.592.592 0 01-.22.267l-.044.044h.308v.4h.044zM61.397.98h-.44V.668h.793v.178l-.485 1.023-.264-.133.396-.757zm-.837 0h-.396V.668h.793v.178l-.485 1.023-.264-.133.352-.757zm.485 14.152c-.088-.09-.132-.178-.132-.267v-.045h.264v.045c0 .044 0 .089.044.089a.133.133 0 00.176 0c.044 0 .044-.045.044-.09 0-.044 0-.044-.044-.088-.044-.045-.088-.045-.132-.045h-.044v-.267h.132s.044 0 .044-.044v-.089h-.088l-.044.044v.045h-.308v-.045a.34.34 0 01.088-.222c.088-.09.176-.134.264-.134a.62.62 0 01.265.09c.088.044.088.133.088.222 0 .044 0 .089-.044.133 0 .045-.044.045-.044.045.044 0 .088.044.088.089.044.044.044.133.044.178 0 .089-.044.178-.133.267a.398.398 0 01-.308.133c-.044.045-.132.045-.22-.044zm-.529.089a.622.622 0 00.265-.09c.088-.088.088-.177.088-.266a.637.637 0 00-.088-.267.333.333 0 00-.176-.09l.176-.355-.264-.134-.309.579c-.044.089-.044.133-.088.178v.133c0 .09.044.178.088.267.088.045.176.045.309.045zm-.088-.356c0-.045 0-.045.044-.09l.044-.044c.044 0 .044 0 .089.045 0 0 .044.044.044.089 0 .044 0 .044-.044.089-.044.044-.088.044-.133 0-.044-.045-.044-.045-.044-.09zm-.308.667h.793v.178l-.485 1.024-.264-.134.396-.8h-.396v-.268h-.044zM62.146 1.87a.614.614 0 00.264-.089c.089-.089.089-.178.089-.267 0-.089-.045-.178-.089-.267a.333.333 0 00-.176-.089l.176-.356-.264-.133-.308.534c-.044.089-.044.133-.088.178v.133c0 .09.044.178.088.267.132.045.22.09.308.09zm-.088-.4c0-.045 0-.045.044-.09l.044-.044c.044 0 .044 0 .088.045 0 0 .044.044.044.089 0 .044 0 .044-.044.089-.044.044-.088.044-.132 0-.044 0-.044-.045-.044-.09zm-1.85 12.193a.245.245 0 01-.132-.222v-.045h.308v.045c0 .044.044.044.044.044.044.045.089.045.133 0 .044-.044.044-.044.044-.089 0-.044 0-.089-.044-.089-.044-.044-.089-.044-.133 0l-.044.045-.22-.045.132-.667h.573v.267h-.352v.089c.088 0 .22.044.264.133.088.09.088.178.088.267a.406.406 0 01-.132.312.398.398 0 01-.309.133c-.044-.089-.132-.133-.22-.178zm1.498-11.259a.614.614 0 00-.133-.178c-.044-.044-.132-.044-.22-.044-.132 0-.22.044-.308.178a.966.966 0 00-.088.445c0 .133 0 .267.044.356.044.089.088.133.132.178.044.044.132.044.22.044s.176 0 .22-.044a.614.614 0 00.133-.178c0-.045.044-.09.044-.134v.134h.44v.222h.264v-.267h.088v-.267h-.088v-.712h-.264l-.484.712V2.76a.493.493 0 000-.356zm-.265.356c0 .134 0 .223-.044.267-.044.045-.044.045-.088.045s-.044 0-.088-.045c0-.044-.044-.089-.044-.267v-.222c0-.045.044-.09.044-.09l.044-.044s.044 0 .088.045c.088.089.088.133.088.311zm.617.09l.132-.179v.178h-.132zm2.951.177v-.044h.308v.044c0 .045.044.045.044.045.044.044.088.044.132 0 .044-.045.044-.045.044-.09 0-.044 0-.088-.044-.088-.044-.045-.088-.045-.132 0l-.044.044-.22-.044.132-.668h.573v.267h-.353v.09c.088 0 .22.044.265.133.088.089.088.178.088.267a.406.406 0 01-.132.311.398.398 0 01-.309.134c-.088 0-.176-.045-.264-.09a.64.64 0 00-.088-.31zM65.493.98h-.396V.668h.793v.178l-.529 1.023-.264-.133.397-.757zm-.924.445l-.177.356.265.134.308-.579c.044-.089.044-.133.088-.178v-.133a.636.636 0 00-.088-.267c-.088-.09-.176-.134-.264-.134a.622.622 0 00-.265.09c-.088.088-.088.177-.088.266 0 .09.044.178.088.267 0 .134.044.134.132.178zm-.044-.4c0-.045 0-.045.043-.09l.045-.044c.044 0 .044 0 .044.045 0 0 .044.044.044.089 0 .044 0 .044-.044.089-.044.044-.088.044-.132 0 .043 0 0-.045 0-.09zm1.32.356v.267h.441v.178h.264v-.223h.089v-.267h-.088V.668h-.265l-.44.712zm.353-.045l.132-.178v.178h-.132zm-2.422.534a.614.614 0 00.264-.089c.088-.089.088-.178.088-.267a.636.636 0 00-.088-.267.332.332 0 00-.176-.089l.176-.356-.264-.133-.309.578c-.044.09-.044.134-.088.178v.134c0 .089.044.178.088.267.133 0 .22.044.309.044zm-.088-.4c0-.045 0-.045.044-.09l.044-.044c.044 0 .044 0 .088.045 0 0 .044.044.044.089 0 .044 0 .044-.044.089-.044.044-.088.044-.132 0 0 0-.044-.045-.044-.09zm-.925.356c.044.044.132.044.22.044s.176 0 .22-.044l.132-.134c.044-.044.044-.133.044-.178 0-.044 0-.133-.044-.178 0-.044-.044-.089-.088-.089.044-.044.044-.044.044-.089 0-.044.044-.089.044-.133 0-.045 0-.134-.044-.178L63.16.712a.482.482 0 00-.352 0l-.132.134c-.044.044-.044.089-.044.178 0 .044 0 .089.044.133 0 .045.044.045.044.09-.044.044-.044.088-.088.088-.044.045-.044.134-.044.178 0 .09 0 .134.044.178l.132.134zm.264-.757c-.044.045-.088.045-.088 0V.98h.088v.089zm-.044.312c.044 0 .044 0 .088.044.044 0 .044.045.044.09 0 .044 0 .044-.044.088a.133.133 0 01-.176 0c-.044 0-.044-.044-.044-.089 0-.044 0-.044.044-.089 0-.044.044-.044.088-.044zm1.145.756h-.264l-.485.712v.267h.44v.223h.265v-.223h.088v-.267h-.088v-.712h.044zm-.396.712l.132-.178v.178h-.132zm.837.045l-.177.356.265.133.308-.578c.044-.09.044-.134.088-.178v-.134a.636.636 0 00-.088-.267c-.088-.089-.176-.133-.264-.133a.622.622 0 00-.265.089c-.088.089-.088.178-.088.267 0 .089.044.178.088.267 0 .133.044.178.132.178zm-.044-.356c0-.045 0-.045.043-.09l.045-.044c.044 0 .044 0 .044.045 0 0 .044.044.044.089 0 .044 0 .044-.044.089-.044.044-.088.044-.132 0 .043-.045 0-.09 0-.09zm5.593 11.57c-.044-.044-.132-.044-.22-.044-.132 0-.22.044-.308.178a.965.965 0 00-.089.445c0 .133 0 .267.044.356a.614.614 0 00.133.178c.044.044.132.044.22.044s.176 0 .22-.044c.044-.045.088-.09.132-.178.044-.09.044-.178.044-.356 0-.134 0-.267-.044-.356-.044-.134-.088-.178-.132-.223zm-.088.534c0 .134 0 .223-.044.267-.044.045-.044.045-.088.045s-.044 0-.088-.045c0-.044-.044-.089-.044-.267v-.222c0-.045.044-.09.044-.09l.044-.044s.044 0 .088.045c.044.089.088.133.088.311zm-1.233 1.78h.308v.267h-.837v-.178l.353-.356c.088-.089.132-.133.132-.178.044-.044.044-.089.044-.133 0-.045 0-.045-.044-.09-.044-.044-.088-.044-.132 0 0 .045-.044.045-.044.09v.044h-.265v-.044c0-.134.044-.223.132-.312.088-.089.177-.133.265-.133.088 0 .132 0 .176.044l.132.134c.044.044.044.133.044.178 0 .089 0 .133-.044.222a.587.587 0 01-.22.267v.178zm.352-1.468h.308v.267h-.836v-.178l.352-.356c.088-.09.132-.134.132-.178.044-.045.044-.09.044-.134 0-.044 0-.044-.044-.089-.044-.044-.088-.044-.132 0 0 .045-.044.045-.044.09v.044h-.264v-.045c0-.133.044-.222.132-.311.088-.09.176-.134.264-.134.088 0 .132 0 .176.045l.132.133c.044.045.044.134.044.178 0 .09 0 .134-.044.223s-.088.178-.22.267v.178zm-1.982 1.023l.176-.356-.264-.133-.308.578c-.044.09-.044.134-.088.178v.134c0 .089.044.178.088.267.088.089.176.134.264.134a.62.62 0 00.264-.09c.088-.089.088-.178.088-.267 0-.089-.044-.178-.088-.267 0-.133-.044-.178-.132-.178zm0 .356c0 .045 0 .045-.044.09-.044.044-.088.044-.132 0 0 0-.044-.045-.044-.09 0-.044 0-.044.044-.089l.044-.044c.044 0 .044 0 .088.044a.139.139 0 01.044.09zm-6.21-.8h.793v.177l-.485 1.024-.264-.134.396-.8h-.44v-.268zM66.99 2.625h-.308V2.58c0-.133.044-.222.132-.311.088-.09.176-.134.264-.134.088 0 .132 0 .176.045l.132.133c.044.045.044.134.044.178 0 .09 0 .134-.044.223s-.088.178-.22.267l-.044.044h.308v.267h-.748V3.16l.352-.356c.088-.09.132-.134.132-.178.044-.045.044-.09.044-.134 0-.044 0-.044-.044-.089-.044-.044-.088-.044-.132 0-.044.09-.044.134-.044.223zm4.493 8.99a.333.333 0 00-.177-.09l.177-.356-.265-.133-.308.578c-.044.09-.044.134-.088.178v.134c0 .089.044.178.088.267.088.089.176.133.264.133a.614.614 0 00.264-.089c.089-.089.089-.178.089-.267a.449.449 0 00-.044-.356zm-.177.266c0 .045 0 .045-.044.09-.044.044-.088.044-.132 0 0 0-.044-.045-.044-.09 0-.044 0-.044.044-.089l.044-.044c.044 0 .044 0 .088.044 0 .045.044.045.044.09zM70.03 13.44h.308v.267h-.837v-.178l.353-.356c.088-.09.132-.134.132-.178.044-.045.044-.09.044-.134 0-.044 0-.044-.044-.089-.044-.044-.088-.044-.132 0 0 .045-.044.045-.044.09v.044h-.264v-.045c0-.133.044-.222.132-.311.088-.09.176-.134.264-.134.088 0 .132 0 .176.045l.132.133c.044.045.044.134.044.178 0 .09 0 .134-.044.223a.592.592 0 01-.22.267v.178zm.969-.846c-.044-.044-.132-.044-.22-.044-.132 0-.22.044-.309.178a.967.967 0 00-.088.445c0 .133 0 .267.044.356.044.089.088.133.132.178.045.044.133.044.22.044.089 0 .177 0 .221-.044.044-.045.088-.09.132-.178.044-.09.044-.178.044-.356 0-.134 0-.267-.044-.356a.245.245 0 00-.132-.223zm-.088.579c0 .133 0 .222-.044.267-.044.044-.044.044-.088.044s-.044 0-.088-.044c0-.045-.044-.09-.044-.267v-.223c0-.044.044-.089.044-.089l.044-.044s.044 0 .088.044c.088.045.088.134.088.312zm-2.73 2.848c.087.089.087.178.087.267a.406.406 0 01-.132.311.398.398 0 01-.308.134c-.088 0-.176-.045-.264-.09a.245.245 0 01-.133-.222v-.044h.309v.044c0 .045.044.045.044.045.044.044.088.044.132 0 .044-.045.044-.045.044-.09 0-.044 0-.088-.044-.088-.044-.045-.088-.045-.132 0l-.044.044-.22-.044.132-.668h.572v.267h-.352v.09c.176-.045.264 0 .308.044zm-5.947-1.513l.176-.356-.264-.134-.308.579c-.044.089-.044.133-.088.178v.133c0 .09.044.178.088.267.088.09.176.134.264.134a.62.62 0 00.264-.09c.088-.088.088-.177.088-.266a.636.636 0 00-.088-.267c0-.134-.088-.178-.132-.178zm0 .356c0 .044 0 .044-.044.089-.044.044-.088.044-.132 0 0 0-.044-.045-.044-.09 0-.044 0-.044.044-.088l.044-.045c.044 0 .044 0 .088.045.044.044.044.044.044.089zm1.013 1.201c.044-.044.044-.044.044-.089 0-.044.044-.089.044-.133 0-.045 0-.134-.044-.178l-.132-.134a.482.482 0 00-.352 0l-.132.134c-.044.044-.044.089-.044.178 0 .044 0 .089.044.133 0 .045.044.045.044.09-.044.044-.044.088-.088.088-.044.045-.044.134-.044.178 0 .09 0 .134.044.178l.132.134c.044.044.132.044.22.044s.176 0 .22-.044l.132-.134c.044-.044.044-.133.044-.178 0-.044 0-.133-.044-.178l-.088-.089zm-.22-.133c-.044.044-.088.044-.088 0v-.089h.088v.089zm-.132.311c.044-.044.044-.044.088-.044s.044 0 .088.044c.044 0 .044.045.044.09 0 .044 0 .044-.044.088a.133.133 0 01-.176 0c-.044 0-.044-.044-.044-.089 0-.044 0-.044.044-.089zm-.66-.267l.175-.356-.264-.133-.308.578c-.044.09-.044.134-.088.178v.134c0 .089.044.178.088.267.088.089.176.134.264.134a.62.62 0 00.264-.09c.088-.089.088-.178.088-.267a.636.636 0 00-.088-.267c0-.133-.088-.178-.132-.178zm0 .356c0 .045 0 .045-.045.09-.044.044-.088.044-.132 0 0 0-.044-.045-.044-.09 0-.044 0-.044.044-.089l.044-.044c.044 0 .044 0 .088.044a.139.139 0 01.044.09zm1.629-.356l.176-.356-.264-.133-.309.578c-.044.09-.044.134-.088.178v.134c0 .089.044.178.088.267.089.089.177.134.265.134a.62.62 0 00.264-.09c.088-.089.088-.178.088-.267 0-.089-.044-.178-.088-.267 0-.133-.044-.178-.132-.178zm0 .356c0 .045 0 .045-.044.09-.044.044-.088.044-.132 0 0 0-.044-.045-.044-.09 0-.044 0-.044.044-.089l.044-.044c.044 0 .044 0 .088.044a.139.139 0 01.044.09zm1.982-.623l-.485 1.024-.264-.134.397-.8h-.397v-.268h.793l-.044.178zm.749-.178h-.265l-.484.712v.267h.44v.223h.264v-.223h.089v-.267h-.088v-.712h.044zm-.397.668l.132-.178v.178h-.132zm-1.585-.668a.62.62 0 00-.265.09c-.088.088-.088.177-.088.266 0 .09.044.178.088.267a.333.333 0 00.177.09l-.177.355.265.134.308-.579c.044-.089.044-.133.088-.178v-.133c0-.09-.044-.178-.088-.267-.088 0-.176-.045-.308-.045zm.132.356c0 .045 0 .045-.044.09-.044.044-.088.044-.132 0 0 0-.044-.045-.044-.09 0-.044 0-.044.043-.089l.045-.044c.044 0 .044 0 .044.044l.088.09zm4.933-6.942l-.044.045h.308v.267h-.837v-.178l.352-.357c.089-.088.133-.133.133-.178.044-.044.044-.089.044-.133 0-.045 0-.045-.044-.089-.044-.045-.089-.045-.133 0 0 .044-.044.044-.044.089v.044h-.264v-.044c0-.134.044-.223.132-.312.088-.089.176-.133.264-.133.089 0 .133 0 .177.044l.132.134c.044.044.044.133.044.178 0 .089 0 .133-.044.222 0 .223-.044.312-.176.401zm-.925-2.18a.966.966 0 00-.088.444c0 .134 0 .267.044.356.044.09.088.134.132.178.044.045.132.045.22.045s.176 0 .22-.045a.607.607 0 00.132-.178c.044-.089.044-.178.044-.356 0-.133 0-.267-.044-.356-.044-.089-.088-.133-.132-.178-.044-.044-.132-.044-.22-.044-.132-.045-.22.044-.308.133zm.396.177c0 .045.044.09.044.267 0 .134 0 .223-.044.267-.044.045-.044.045-.088.045s-.044 0-.088-.045c0-.044-.044-.089-.044-.267v-.222c0-.045.044-.09.044-.09l.044-.044c.088.045.088.045.132.09zM67.08 1.87a.614.614 0 00.264-.089c.088-.089.088-.178.088-.267a.636.636 0 00-.088-.267.332.332 0 00-.176-.089l.176-.356-.264-.133-.308.578c-.044.09-.044.134-.088.178v.134c0 .089.044.178.088.267.132 0 .22.044.308.044zm-.088-.4c0-.045 0-.045.044-.09l.044-.044c.044 0 .044 0 .088.045 0 0 .044.044.044.089 0 .044 0 .044-.044.089-.044.044-.088.044-.132 0-.044 0-.044-.045-.044-.09zm.925 6.586l-.308.579c-.044.088-.044.133-.089.178v.133c0 .089.044.178.089.267.088.089.176.134.264.134.088 0 .176-.045.264-.09.088-.088.088-.177.088-.266a.636.636 0 00-.088-.268.332.332 0 00-.176-.088l.176-.357-.22-.222zm.088.846c0 .044 0 .044-.044.089-.044.044-.088.044-.132 0 0 0-.044-.045-.044-.09 0-.044 0-.044.044-.088l.044-.045c.044 0 .044 0 .088.045.044.044.044.089.044.089zm1.541-3.783l-.308.578c-.044.09-.044.134-.088.178v.134c0 .089.044.178.088.267.088.089.176.133.264.133a.613.613 0 00.265-.089c.088-.089.088-.178.088-.267a.636.636 0 00-.088-.267.332.332 0 00-.176-.089l.176-.356-.22-.222zm.089.845c0 .045 0 .045-.044.09-.044.044-.089.044-.133 0 0 0-.044-.045-.044-.09 0-.044 0-.044.044-.089l.044-.044c.044 0 .044 0 .089.044.044 0 .044.045.044.09zm-1.278 1.513l-.044.045h.309v.267h-.837V7.61l.352-.356c.088-.09.132-.134.132-.178.044-.045.044-.09.044-.134 0-.044 0-.044-.044-.089-.044-.044-.088-.044-.132 0 0 .045-.044.045-.044.09v.044h-.264v-.045c0-.133.044-.222.132-.311.088-.09.176-.134.264-.134.088 0 .132 0 .176.045l.132.133c.044.045.045.134.045.178 0 .09 0 .134-.044.223 0 .178-.089.267-.177.4zM67.123 9.97c0 .089.044.178.088.267a.332.332 0 00.176.089l-.176.356.264.133.309-.578c.044-.09.044-.134.088-.178v-.134c0-.089-.044-.178-.088-.267-.088-.089-.176-.133-.265-.133a.622.622 0 00-.264.089c-.088.133-.132.222-.132.356zm.308 0c0-.045 0-.045.044-.09l.044-.044c.044 0 .044 0 .044.045 0 0 .045.044.045.089 0 .044 0 .044-.044.089-.044.044-.089.044-.133 0v-.09zm.881.8c-.088 0-.176-.044-.264-.088a.245.245 0 01-.132-.223v-.044h.308v.044c0 .045.044.045.044.045.044.044.088.044.132 0 .044-.045.044-.045.044-.09 0-.044 0-.088-.044-.088-.044-.045-.088-.045-.132 0l-.044.044-.22-.044.132-.668h.573v.267h-.353v.09c.088 0 .22.044.265.133.088.089.088.178.088.267a.406.406 0 01-.132.311c-.044 0-.177.045-.265.045zm.66-5.607c-.043-.044-.131-.044-.22-.044-.131 0-.22.044-.308.178a.966.966 0 00-.088.445c0 .133 0 .267.044.356.044.089.088.133.132.178.044.044.133.044.22.044.089 0 .177 0 .22-.044a.614.614 0 00.133-.178c.044-.09.044-.178.044-.356 0-.134 0-.267-.044-.356a.969.969 0 00-.132-.223zm-.087.579c0 .133 0 .222-.044.267-.044.044-.044.044-.088.044s-.044 0-.088-.044c0-.045-.044-.09-.044-.267v-.223c0-.044.044-.089.044-.089l.044-.044s.044 0 .088.044c.044.045.088.134.088.312zm-.705 6.408c.088-.089.088-.178.088-.267 0-.089-.044-.178-.088-.267a.333.333 0 00-.176-.089l.176-.356-.264-.133-.308.578c-.044.09-.044.134-.089.178v.134c0 .089.044.178.089.267.088.089.176.133.264.133a.708.708 0 00.308-.178zm-.352-.267c0-.044 0-.044.044-.089l.044-.044c.044 0 .044 0 .088.044 0 0 .044.045.044.09 0 .044 0 .044-.044.088-.044.045-.088.045-.132 0-.044-.044-.044-.044-.044-.089zm2.29-1.468l-.044.044h.308v.267h-.837v-.178l.353-.356c.088-.089.132-.133.132-.178.044-.044.044-.089.044-.133 0-.045 0-.045-.044-.09-.044-.044-.088-.044-.132 0 0 .045-.044.045-.044.09v.044h-.264V9.88c0-.134.044-.223.132-.312.088-.089.176-.133.264-.133.088 0 .132 0 .176.044l.132.134c.044.044.044.133.044.178 0 .089 0 .133-.044.222-.044.223-.088.312-.176.4zM67.96 3.649l-.485.712v.267h.44v.223h.265v-.223h.088v-.267h-.088v-.667h-.22v-.045zm-.132.668l.132-.178v.178h-.132zm1.806.222c.044-.044.044-.044.044-.089 0-.044 0-.089-.044-.089-.044-.044-.088-.044-.133 0l-.044.045-.22-.045.132-.667h.573v.267h-.352v.089c.088 0 .22.044.264.133.088.09.088.178.088.267a.406.406 0 01-.132.312.398.398 0 01-.309.133.614.614 0 01-.264-.089.245.245 0 01-.132-.222v-.045h.308v.045c0 .044.044.044.044.044.089-.044.133-.044.177-.089zm-.177 6.23v-.222h.089v-.267h-.089v-.667h-.264l-.484.712v.267h.44v.222h.308v-.044zm-.396-.489l.132-.178v.178h-.132zm-.308 2.003l.308-.579c.044-.089.044-.133.088-.178v-.133a.636.636 0 00-.088-.267c-.088-.09-.176-.134-.264-.134a.622.622 0 00-.264.09c-.089.088-.089.177-.089.266 0 .09.044.178.088.267a.332.332 0 00.177.09l-.177.355.22.223zm-.088-.846c0-.044 0-.044.044-.089l.044-.044c.044 0 .044 0 .044.044 0 0 .044.045.044.09 0 .044 0 .044-.044.088-.044.045-.088.045-.132 0v-.089zm-1.19-4.361c.044-.045.044-.09.044-.134 0-.044 0-.044-.044-.089-.044-.044-.088-.044-.132 0 0 .045-.044.045-.044.09v.044h-.264v-.045c0-.133.044-.222.132-.311.088-.09.176-.134.264-.134.088 0 .133 0 .177.045l.132.133c.044.045.044.134.044.178 0 .09 0 .134-.044.223a.592.592 0 01-.22.267l-.045.044h.309v.267h-.837V7.61l.352-.356c.132-.045.176-.134.176-.178zm.485-1.469c.044-.044.044-.089.044-.133 0-.045 0-.045-.044-.09-.044-.044-.088-.044-.132 0 0 .045-.044.045-.044.09v.044h-.265v-.044c0-.134.044-.223.133-.312.088-.089.176-.133.264-.133.088 0 .132 0 .176.044l.132.134c.044.044.044.133.044.178 0 .089 0 .133-.044.222a.592.592 0 01-.22.267l-.044.045h.308v.267h-.837v-.178l.353-.356c.132.044.176 0 .176-.045zm-.44 8.144l.308-.578c.044-.09.044-.134.088-.178v-.134c0-.089-.044-.178-.088-.267-.088-.089-.176-.133-.264-.133a.613.613 0 00-.265.089c-.088.089-.088.178-.088.267 0 .089.044.178.088.267a.336.336 0 00.176.089l-.176.356.22.222zm-.089-.845c0-.045 0-.045.044-.09l.044-.044c.044 0 .044 0 .044.045 0 0 .045.044.045.089 0 .044 0 .044-.044.089-.044.044-.089.044-.133 0v-.09zm1.102-4.807h.572v.267h-.352v.09c.088 0 .22.044.264.133.088.089.088.178.088.267a.406.406 0 01-.132.312.398.398 0 01-.308.133.613.613 0 01-.265-.089.245.245 0 01-.132-.222v-.045h.309v.045c0 .044.044.044.044.044.044.045.088.045.132 0 .044-.044.044-.044.044-.089 0-.044 0-.089-.044-.089-.044-.044-.088-.044-.132 0l-.044.045-.22-.045.175-.757zm1.1-5.651h-.396V2.18h.793v.178l-.484 1.023-.265-.133.353-.801zm-.88 10.903v-.045h.264v.045c0 .044 0 .089.044.089a.133.133 0 00.176 0c.044 0 .044-.045.044-.09 0-.044 0-.044-.044-.088-.044-.045-.088-.045-.132-.045h-.044v-.267h.132s.044 0 .044-.044v-.089h-.088l-.044.044v.045h-.264v-.045a.34.34 0 01.088-.222c.088-.09.176-.134.264-.134.088 0 .176.045.264.09.089.044.089.133.089.222 0 .044 0 .089-.045.133 0 .045-.044.045-.044.045.044 0 .089.044.089.089.044.044.044.133.044.178 0 .089-.044.178-.133.267a.398.398 0 01-.308.133c-.132 0-.22-.044-.264-.089-.044-.044-.132-.089-.132-.222zm1.233-2.092l-.485 1.024-.264-.134.397-.8h-.397v-.268h.793l-.044.178zm-1.19-8.811H68.4V2.18h.793v.178l-.484 1.023-.265-.133.353-.801zm1.498 1.646h-.264V4.05c0-.134.044-.223.132-.312.088-.089.176-.133.264-.133.088 0 .132 0 .177.044l.132.134c.044.044.044.133.044.178 0 .089 0 .133-.044.222a.592.592 0 01-.22.267l-.045.045h.309v.267h-.837v-.178l.352-.356c.088-.09.132-.134.132-.178.044-.045.044-.09.044-.134 0-.044 0-.044-.044-.089-.044-.044-.088-.044-.132 0v.267zm-2.29-2.536c.044-.045.044-.045.044-.09 0-.044 0-.088-.044-.088-.044-.045-.088-.045-.132 0l-.044.044-.264-.044.132-.668h.572V.98h-.352v.09c.088 0 .22.044.264.133.088.089.088.178.088.267a.406.406 0 01-.132.311.398.398 0 01-.308.134.622.622 0 01-.264-.09.245.245 0 01-.133-.222v-.044h.309v.044c0 .045.044.045.044.045.088-.045.176-.045.22-.09zm.132.667c-.044-.044-.132-.044-.22-.044-.132 0-.22.044-.308.178a.965.965 0 00-.089.445c0 .133 0 .267.044.356a.614.614 0 00.133.178c.044.044.132.044.22.044s.176 0 .22-.044a.612.612 0 00.132-.178c.044-.09.044-.178.044-.356 0-.134 0-.267-.044-.356 0-.134-.088-.178-.132-.223zm-.088.534c0 .134 0 .223-.044.267-.044.045-.044.045-.088.045s-.044 0-.088-.045c0-.044-.044-.089-.044-.267v-.222c0-.045.044-.09.044-.09l.044-.044s.044 0 .088.045c.044.089.088.133.088.311zm.705 2.092c.088 0 .176-.045.264-.09.088-.088.088-.177.088-.266 0-.09-.044-.178-.088-.267a.333.333 0 00-.176-.09l.176-.355-.264-.134-.309.579c-.044.089-.044.133-.088.178v.133c0 .09.044.178.088.267.088 0 .177.045.309.045zm-.132-.4c0-.045 0-.045.044-.09l.044-.044c.044 0 .044 0 .088.044 0 0 .044.045.044.09 0 .044 0 .044-.044.088-.044.045-.088.045-.132 0 0-.044-.044-.044-.044-.089zM65.758 15.22c.088 0 .176-.045.264-.09.088-.088.088-.177.088-.266 0-.09-.044-.178-.088-.267a.332.332 0 00-.176-.09l.176-.355-.264-.134-.309.579c-.044.089-.044.133-.088.178v.133c0 .09.044.178.088.267.133.045.22.045.309.045zm-.088-.356c0-.045 0-.045.044-.09l.044-.044c.044 0 .044 0 .088.045 0 0 .044.044.044.089 0 .044 0 .044-.044.089-.044.044-.088.044-.132 0-.044-.045-.044-.045-.044-.09zm-.088-8.233h.352v1.157h-.264v-.89h-.265l.177-.267zm1.145-2.982h.792v.178l-.484 1.024-.264-.134.396-.8h-.396v-.268h-.044zm2.026 9.079l-.485 1.023-.264-.133.396-.801h-.396v-.267h.793l-.044.178zm-2.51-6.097h.792v.178l-.484 1.023-.265-.133.397-.801h-.44V6.63zm2.378 8.589h-.837v-.178l.352-.356c.088-.09.132-.134.132-.178.044-.045.044-.09.044-.134 0-.044 0-.044-.044-.089-.044-.044-.088-.044-.132 0 0 .045-.044.045-.044.09v.044h-.264v-.045c0-.133.044-.222.132-.311.088-.09.176-.134.264-.134.088 0 .132 0 .176.045l.132.133c.044.045.045.134.045.178 0 .09 0 .134-.044.223a.592.592 0 01-.22.267l-.045.044h.309v.4h.044zM66.198 9.3l-.264-.133.396-.802h-.396V8.1h.793v.178l-.529 1.024zm.925-.044h.264v-.223h.088v-.267h-.088v-.668h-.264l-.484.713v.267h.44v.178h.044zm-.088-.49l.132-.178v.178h-.132z" fill="#F2D080"/></svg>