<svg width="655" height="336" fill="none" xmlns="http://www.w3.org/2000/svg"><g filter="url(#filter0_iiii)" transform="rotate(17.144 -.14 824.868) skewX(-.044)"><rect width="239.778" height="238.108" rx="51" fill="url(#paint0_linear)"/><rect width="239.778" height="238.108" rx="51" fill="url(#paint1_linear)"/></g><g opacity=".7" filter="url(#filter1_f)"><path d="M349.593 195.29c9.917-11.682 3.197-25.095-8.923-38.56l15.378-14.674-10.212-9.649-14.977 14.287c-2.681-2.534-5.47-5.083-8.247-7.607l15.061-14.39-10.2-9.642-15.36 14.676-20.61-19.425-9.994 9.546s7.671 6.999 7.418 7.003c4.133 3.909 3.282 7.283 1.772 9.466l-42.114 40.209c-1.374.967-4.04 2.059-6.93-.672.025.226-7.413-7.024-7.413-7.024l-13.215 8.771 20.518 19.501-15.546 14.852 10.195 9.638 15.387-14.688c2.753 2.7 5.435 5.277 8.081 7.773l-15.318 14.618 10.21 9.647 15.526-14.818c18.066 15.359 34.042 22.929 50.293 10.239 13.098-10.22 12.306-21.055 4.709-32.314 8.686 2.95 17.252 1.801 24.497-6.762l.014-.001zm-47.538 18.244c-11.623 11.093-31.997-10.674-38.924-17.213l20.604-19.667c6.918 6.542 30.434 25.304 18.325 36.88h-.005zm24.327-32.232c-10.577 10.095-27.444-8.194-33.209-13.644l18.68-17.85c5.766 5.454 25.549 20.961 14.521 31.487" fill="#CC9A24"/></g><g filter="url(#filter2_ii)"><path d="M372.558 184.843c6.135-12.659-1.859-22.927-14.348-31.97l10.133-16.59-10.217-6.12-9.87 16.153a462.447 462.447 0 00-8.218-4.78l9.921-16.263-10.206-6.116-10.119 16.586-20.612-12.31-6.583 10.79s7.629 4.378 7.42 4.441c4.136 2.48 4.036 5.662 3.175 7.947l-27.747 45.451c-.967 1.179-2.985 2.772-5.877 1.039.062.194-7.42-4.46-7.42-4.46l-9.399 10.864 20.55 12.397-10.241 16.786 10.202 6.115L293.24 218.2a450.104 450.104 0 008.11 4.964l-10.094 16.526 10.216 6.119 10.23-16.751c17.769 9.315 32.4 12.241 43.615-2.801 9.041-12.116 6.434-21.504-1.901-29.663 7.744.56 14.653-2.473 19.13-11.746l.012-.005zm-36.203 27.32c-7.658 12.54-28.497-1.894-35.426-6.039l13.575-22.233c6.923 4.151 29.83 15.19 21.855 28.271l-.004.001zm14.408-34.212c-6.97 11.413-24.269-.775-30.038-4.233l12.305-20.173c5.771 3.461 24.992 12.502 17.725 24.402" fill="#DADADA"/></g><g filter="url(#filter3_iiii)"><rect width="151.687" height="150.667" rx="42" transform="rotate(-24.874 259.212 -19.622) skewX(.06)" fill="url(#paint2_linear)"/></g><g opacity=".1" filter="url(#filter4_f)" fill="#141414"><path d="M112.018 102.267l-.474 2.258 2.525 64.555.586.641 24.705-18.674-27.342-48.78z"/><path d="M111.997 102.271L88.52 152.987l26.115 16.738-1.226-31.348-1.412-36.106zm2.868 73.117l-.302.485.899 23 .363 1.059 23.777-43.22-24.737 18.676z"/><path d="M115.809 199.936l-.96-24.543-26.122-16.738 27.082 41.281zm-1.165-30.215l24.713-18.676-25.939-12.675 1.226 31.351zm-26.132-16.735l26.125 16.739-1.226-31.35-24.899 14.611z"/></g><g filter="url(#filter5_i)"><path d="M113.351 95.783l.327 2.255 26.456 57.361.862.32 19.493-27.855-47.138-32.081z" fill="#343434"/><path d="M113.291 95.823l-6.389 56.338 34.034 3.598-12.848-27.854-14.797-32.082z" fill="#8C8C8C"/><path d="M143.278 160.734l-.144.573 9.43 20.442.777.799 9.467-49.691-19.53 27.877z" fill="#3C3C3B"/><path d="M153.293 182.584l-10.064-21.813-34.05-3.599 44.114 25.412z" fill="#8C8C8C"/><path d="M140.972 155.72l19.507-27.87-32.365.002 12.858 27.868z" fill="#141414"/><path d="M106.877 152.153l34.06 3.599-12.858-27.869-21.202 24.27z" fill="#393939"/></g><g filter="url(#filter6_bi)"><ellipse cx="173.5" cy="257.152" rx="60.5" ry="60.417" fill="#FFFADC" style="mix-blend-mode:multiply"/><ellipse cx="173.5" cy="257.152" rx="60.5" ry="60.417" stroke="#fff" stroke-opacity=".2" stroke-width="1.724"/></g><g filter="url(#filter7_bi)"><ellipse cx="39.5" cy="97.37" rx="38.5" ry="38.447" fill="#F1F1F1" style="mix-blend-mode:multiply"/><ellipse cx="39.5" cy="97.37" rx="38.5" ry="38.447" stroke="#fff" stroke-opacity=".1" stroke-width=".686"/></g><g filter="url(#filter8_bi)"><ellipse cx="527.5" cy="127.329" rx="125.5" ry="125.329" fill="#FFFADC" style="mix-blend-mode:multiply"/><ellipse cx="527.5" cy="127.329" rx="125.5" ry="125.329" stroke="#fff" stroke-opacity=".05" stroke-width="3"/></g><g filter="url(#filter9_iiii)"><rect width="178.728" height="177.497" rx="42" transform="rotate(-19.948 681.51 -1055.118) skewX(.05)" fill="url(#paint3_linear)"/></g><g opacity=".3" filter="url(#filter10_f)"><path d="M508.607 213.627l.506-11.497 25.228 1.095.798-18.129-62.295 9.757-6.432 18.361 23.963-5.158.016 5.224c-20.718-.013-36.195 3.303-36.429 8.609-.233 5.306 14.874 10.391 35.514 12.173l-1.656 37.584 18.197.789 1.655-37.584c20.304-.005 36.215-3.745 36.448-9.051.234-5.306-15.306-9.968-35.513-12.173zm-.798 18.129l-9.099-.395-9.098-.395c-18.158-1.673-31.65-5.803-31.475-9.782.175-3.98 13.979-6.925 32.215-7.02l-.584 13.265c1.24.054 4.529.64 9.079.837 5.79.251 8.29-.084 9.118-.048l.584-13.265c18.158 1.674 31.236 5.785 31.061 9.765-.175 3.979-13.565 6.943-31.801 7.038z" fill="#1F5F4F"/></g><g filter="url(#filter11_ii)"><path d="M521.662 205.102l-3.961-9.863 23.489-9.292-6.247-15.553-63.92 25.287 6.247 15.553 23.488-9.292 4.114 10.242c-18.948 8.375-31.824 17.426-29.996 21.978 1.828 4.552 17.599 2.709 37.157-4.149l12.949 32.244 16.943-6.703-12.95-32.244c18.563-8.223 31.672-17.805 29.844-22.357-1.828-4.552-17.832-2.177-37.157 4.149zm6.247 15.553l-8.472 3.351-8.471 3.352c-17.247 5.943-31.173 7.936-32.544 4.522-1.371-3.414 10.117-11.476 26.755-18.937l4.57 11.38c1.155-.457 4.388-1.296 8.624-2.972 5.391-2.133 7.549-3.426 8.319-3.731l-4.571-11.38c17.248-5.944 30.788-7.784 32.16-4.37 1.371 3.414-9.732 11.324-26.37 18.785z" fill="#DADADA"/></g><path d="M160.182 238.747l-7.155-3.137 1.668 15.621-12.903 9.232 7.155 3.137 8.64-6.507 1.133 10.791 7.074 3.102-1.944-15.742 12.724-9.311-7.106-3.115-8.537 6.668-.749-10.739zm21.429 39.716c7.416 3.251 14.579.633 17.521-6.103 2.817-6.365.376-12.902-5.624-15.533-2.927-1.283-5.984-1.169-7.876-.04l-.195-.086 4.527-7.961 14.554 6.381 2.53-5.754-20.36-8.926-9.294 16.863 5.768 3.867c1.631-.933 3.994-.925 5.962-.062 3.342 1.485 4.684 4.962 3.148 8.457-1.522 3.462-4.93 4.818-8.231 3.37-2.797-1.226-4.286-3.972-3.312-6.628l-6.83-2.994c-2.4 5.811.817 12.126 7.712 15.149z" fill="#fff"/><defs><filter id="filter0_iiii" x="185.558" y="41.445" width="289.926" height="284.647" filterUnits="userSpaceOnUse" color-interpolation-filters="sRGB"><feFlood flood-opacity="0" result="BackgroundImageFix"/><feBlend in="SourceGraphic" in2="BackgroundImageFix" result="shape"/><feColorMatrix in="SourceAlpha" values="0 0 0 0 0 0 0 0 0 0 0 0 0 0 0 0 0 0 127 0" result="hardAlpha"/><feOffset dy="-8"/><feGaussianBlur stdDeviation="4"/><feComposite in2="hardAlpha" operator="arithmetic" k2="-1" k3="1"/><feColorMatrix values="0 0 0 0 0.804167 0 0 0 0 0.642328 0 0 0 0 0.264705 0 0 0 0.6 0"/><feBlend in2="shape" result="effect1_innerShadow"/><feColorMatrix in="SourceAlpha" values="0 0 0 0 0 0 0 0 0 0 0 0 0 0 0 0 0 0 127 0" result="hardAlpha"/><feOffset dy="7"/><feGaussianBlur stdDeviation="2"/><feComposite in2="hardAlpha" operator="arithmetic" k2="-1" k3="1"/><feColorMatrix values="0 0 0 0 1 0 0 0 0 1 0 0 0 0 1 0 0 0 0.2 0"/><feBlend in2="effect1_innerShadow" result="effect2_innerShadow"/><feColorMatrix in="SourceAlpha" values="0 0 0 0 0 0 0 0 0 0 0 0 0 0 0 0 0 0 127 0" result="hardAlpha"/><feOffset dx="16" dy="-1"/><feGaussianBlur stdDeviation="16.5"/><feComposite in2="hardAlpha" operator="arithmetic" k2="-1" k3="1"/><feColorMatrix values="0 0 0 0 0.6875 0 0 0 0 0.496719 0 0 0 0 0.0515625 0 0 0 1 0"/><feBlend in2="effect2_innerShadow" result="effect3_innerShadow"/><feColorMatrix in="SourceAlpha" values="0 0 0 0 0 0 0 0 0 0 0 0 0 0 0 0 0 0 127 0" result="hardAlpha"/><feOffset dx="8"/><feGaussianBlur stdDeviation="5"/><feComposite in2="hardAlpha" operator="arithmetic" k2="-1" k3="1"/><feColorMatrix values="0 0 0 0 0.933333 0 0 0 0 0.784314 0 0 0 0 0.427451 0 0 0 0.3 0"/><feBlend in2="effect3_innerShadow" result="effect4_innerShadow"/></filter><filter id="filter1_f" x="208.027" y="97.305" width="161.021" height="156.475" filterUnits="userSpaceOnUse" color-interpolation-filters="sRGB"><feFlood flood-opacity="0" result="BackgroundImageFix"/><feBlend in="SourceGraphic" in2="BackgroundImageFix" result="shape"/><feGaussianBlur stdDeviation="6.5" result="effect1_foregroundBlur"/></filter><filter id="filter2_ii" x="261.591" y="118.156" width="113.076" height="128.652" filterUnits="userSpaceOnUse" color-interpolation-filters="sRGB"><feFlood flood-opacity="0" result="BackgroundImageFix"/><feBlend in="SourceGraphic" in2="BackgroundImageFix" result="shape"/><feColorMatrix in="SourceAlpha" values="0 0 0 0 0 0 0 0 0 0 0 0 0 0 0 0 0 0 127 0" result="hardAlpha"/><feOffset dx="-1" dy="1"/><feGaussianBlur stdDeviation="1"/><feComposite in2="hardAlpha" operator="arithmetic" k2="-1" k3="1"/><feColorMatrix values="0 0 0 0 1 0 0 0 0 1 0 0 0 0 1 0 0 0 0.9 0"/><feBlend in2="shape" result="effect1_innerShadow"/><feColorMatrix in="SourceAlpha" values="0 0 0 0 0 0 0 0 0 0 0 0 0 0 0 0 0 0 127 0" result="hardAlpha"/><feOffset dy="-1"/><feGaussianBlur stdDeviation="1"/><feComposite in2="hardAlpha" operator="arithmetic" k2="-1" k3="1"/><feColorMatrix values="0 0 0 0 0 0 0 0 0 0 0 0 0 0 0 0 0 0 0.25 0"/><feBlend in2="effect1_innerShadow" result="effect2_innerShadow"/></filter><filter id="filter3_iiii" x="36.082" y="49.165" width="193.566" height="184.911" filterUnits="userSpaceOnUse" color-interpolation-filters="sRGB"><feFlood flood-opacity="0" result="BackgroundImageFix"/><feBlend in="SourceGraphic" in2="BackgroundImageFix" result="shape"/><feColorMatrix in="SourceAlpha" values="0 0 0 0 0 0 0 0 0 0 0 0 0 0 0 0 0 0 127 0" result="hardAlpha"/><feOffset dy="-8"/><feGaussianBlur stdDeviation="4"/><feComposite in2="hardAlpha" operator="arithmetic" k2="-1" k3="1"/><feColorMatrix values="0 0 0 0 1 0 0 0 0 1 0 0 0 0 1 0 0 0 0.6 0"/><feBlend in2="shape" result="effect1_innerShadow"/><feColorMatrix in="SourceAlpha" values="0 0 0 0 0 0 0 0 0 0 0 0 0 0 0 0 0 0 127 0" result="hardAlpha"/><feOffset dx="10" dy="-5"/><feGaussianBlur stdDeviation="6.5"/><feComposite in2="hardAlpha" operator="arithmetic" k2="-1" k3="1"/><feColorMatrix values="0 0 0 0 0.518275 0 0 0 0 0.517647 0 0 0 0 0.52549 0 0 0 1 0"/><feBlend in2="effect1_innerShadow" result="effect2_innerShadow"/><feColorMatrix in="SourceAlpha" values="0 0 0 0 0 0 0 0 0 0 0 0 0 0 0 0 0 0 127 0" result="hardAlpha"/><feOffset dx="-10" dy="-7"/><feGaussianBlur stdDeviation="7.5"/><feComposite in2="hardAlpha" operator="arithmetic" k2="-1" k3="1"/><feColorMatrix values="0 0 0 0 1 0 0 0 0 1 0 0 0 0 1 0 0 0 0.6 0"/><feBlend in2="effect2_innerShadow" result="effect3_innerShadow"/><feColorMatrix in="SourceAlpha" values="0 0 0 0 0 0 0 0 0 0 0 0 0 0 0 0 0 0 127 0" result="hardAlpha"/><feOffset dy="4"/><feGaussianBlur stdDeviation="2"/><feComposite in2="hardAlpha" operator="arithmetic" k2="-1" k3="1"/><feColorMatrix values="0 0 0 0 1 0 0 0 0 1 0 0 0 0 1 0 0 0 0.1 0"/><feBlend in2="effect3_innerShadow" result="effect4_innerShadow"/></filter><filter id="filter4_f" x="79.512" y="93.267" width="69.09" height="115.67" filterUnits="userSpaceOnUse" color-interpolation-filters="sRGB"><feFlood flood-opacity="0" result="BackgroundImageFix"/><feBlend in="SourceGraphic" in2="BackgroundImageFix" result="shape"/><feGaussianBlur stdDeviation="4.5" result="effect1_foregroundBlur"/></filter><filter id="filter5_i" x="105.877" y="95.783" width="56.931" height="86.802" filterUnits="userSpaceOnUse" color-interpolation-filters="sRGB"><feFlood flood-opacity="0" result="BackgroundImageFix"/><feBlend in="SourceGraphic" in2="BackgroundImageFix" result="shape"/><feColorMatrix in="SourceAlpha" values="0 0 0 0 0 0 0 0 0 0 0 0 0 0 0 0 0 0 127 0" result="hardAlpha"/><feOffset dx="-1"/><feGaussianBlur stdDeviation=".5"/><feComposite in2="hardAlpha" operator="arithmetic" k2="-1" k3="1"/><feColorMatrix values="0 0 0 0 1 0 0 0 0 1 0 0 0 0 1 0 0 0 0.9 0"/><feBlend in2="shape" result="effect1_innerShadow"/></filter><filter id="filter6_bi" x="79.738" y="163.472" width="187.524" height="187.359" filterUnits="userSpaceOnUse" color-interpolation-filters="sRGB"><feFlood flood-opacity="0" result="BackgroundImageFix"/><feGaussianBlur in="BackgroundImage" stdDeviation="16.2"/><feComposite in2="SourceAlpha" operator="in" result="effect1_backgroundBlur"/><feBlend in="SourceGraphic" in2="effect1_backgroundBlur" result="shape"/><feColorMatrix in="SourceAlpha" values="0 0 0 0 0 0 0 0 0 0 0 0 0 0 0 0 0 0 127 0" result="hardAlpha"/><feOffset dy="-9.45"/><feGaussianBlur stdDeviation="9.5"/><feComposite in2="hardAlpha" operator="arithmetic" k2="-1" k3="1"/><feColorMatrix values="0 0 0 0 0.207813 0 0 0 0 0.309657 0 0 0 0 0.395833 0 0 0 0.3 0"/><feBlend in2="shape" result="effect2_innerShadow"/></filter><filter id="filter7_bi" x="-19.343" y="38.579" width="117.686" height="117.581" filterUnits="userSpaceOnUse" color-interpolation-filters="sRGB"><feFlood flood-opacity="0" result="BackgroundImageFix"/><feGaussianBlur in="BackgroundImage" stdDeviation="10"/><feComposite in2="SourceAlpha" operator="in" result="effect1_backgroundBlur"/><feBlend in="SourceGraphic" in2="effect1_backgroundBlur" result="shape"/><feColorMatrix in="SourceAlpha" values="0 0 0 0 0 0 0 0 0 0 0 0 0 0 0 0 0 0 127 0" result="hardAlpha"/><feOffset dy="-3.76"/><feGaussianBlur stdDeviation="1.88"/><feComposite in2="hardAlpha" operator="arithmetic" k2="-1" k3="1"/><feColorMatrix values="0 0 0 0 1 0 0 0 0 0.969164 0 0 0 0 0.84953 0 0 0 0.1 0"/><feBlend in2="shape" result="effect2_innerShadow"/></filter><filter id="filter8_bi" x="365.793" y="-34.207" width="323.414" height="323.072" filterUnits="userSpaceOnUse" color-interpolation-filters="sRGB"><feFlood flood-opacity="0" result="BackgroundImageFix"/><feGaussianBlur in="BackgroundImage" stdDeviation="17.354"/><feComposite in2="SourceAlpha" operator="in" result="effect1_backgroundBlur"/><feBlend in="SourceGraphic" in2="effect1_backgroundBlur" result="shape"/><feColorMatrix in="SourceAlpha" values="0 0 0 0 0 0 0 0 0 0 0 0 0 0 0 0 0 0 127 0" result="hardAlpha"/><feOffset dy="-7"/><feGaussianBlur stdDeviation="3.5"/><feComposite in2="hardAlpha" operator="arithmetic" k2="-1" k3="1"/><feColorMatrix values="0 0 0 0 1 0 0 0 0 0.969164 0 0 0 0 0.84953 0 0 0 0.302557 0"/><feBlend in2="shape" result="effect2_innerShadow"/></filter><filter id="filter9_iiii" x="397.681" y="111.026" width="242.066" height="218.177" filterUnits="userSpaceOnUse" color-interpolation-filters="sRGB"><feFlood flood-opacity="0" result="BackgroundImageFix"/><feBlend in="SourceGraphic" in2="BackgroundImageFix" result="shape"/><feColorMatrix in="SourceAlpha" values="0 0 0 0 0 0 0 0 0 0 0 0 0 0 0 0 0 0 127 0" result="hardAlpha"/><feOffset dx="-15" dy="-6"/><feGaussianBlur stdDeviation="8.5"/><feComposite in2="hardAlpha" operator="arithmetic" k2="-1" k3="1"/><feColorMatrix values="0 0 0 0 1 0 0 0 0 1 0 0 0 0 1 0 0 0 0.3 0"/><feBlend in2="shape" result="effect1_innerShadow"/><feColorMatrix in="SourceAlpha" values="0 0 0 0 0 0 0 0 0 0 0 0 0 0 0 0 0 0 127 0" result="hardAlpha"/><feOffset dx="22" dy="5"/><feGaussianBlur stdDeviation="15.5"/><feComposite in2="hardAlpha" operator="arithmetic" k2="-1" k3="1"/><feColorMatrix values="0 0 0 0 0.130156 0 0 0 0 0.495833 0 0 0 0 0.342249 0 0 0 1 0"/><feBlend in2="effect1_innerShadow" result="effect2_innerShadow"/><feColorMatrix in="SourceAlpha" values="0 0 0 0 0 0 0 0 0 0 0 0 0 0 0 0 0 0 127 0" result="hardAlpha"/><feOffset dx="6" dy="-2"/><feGaussianBlur stdDeviation="6.5"/><feComposite in2="hardAlpha" operator="arithmetic" k2="-1" k3="1"/><feColorMatrix values="0 0 0 0 0.92549 0 0 0 0 0.780392 0 0 0 0 0.427451 0 0 0 0.4 0"/><feBlend in2="effect2_innerShadow" result="effect3_innerShadow"/><feColorMatrix in="SourceAlpha" values="0 0 0 0 0 0 0 0 0 0 0 0 0 0 0 0 0 0 127 0" result="hardAlpha"/><feOffset dx="-12" dy="-9"/><feGaussianBlur stdDeviation="8.5"/><feComposite in2="hardAlpha" operator="arithmetic" k2="-1" k3="1"/><feColorMatrix values="0 0 0 0 0.804167 0 0 0 0 0.953 0 0 0 0 1 0 0 0 0.1 0"/><feBlend in2="effect3_innerShadow" result="effect4_innerShadow"/></filter><filter id="filter10_f" x="440.96" y="172.096" width="116.163" height="113.339" filterUnits="userSpaceOnUse" color-interpolation-filters="sRGB"><feFlood flood-opacity="0" result="BackgroundImageFix"/><feBlend in="SourceGraphic" in2="BackgroundImageFix" result="shape"/><feGaussianBlur stdDeviation="6.5" result="effect1_foregroundBlur"/></filter><filter id="filter11_ii" x="470.023" y="169.394" width="88.966" height="93.862" filterUnits="userSpaceOnUse" color-interpolation-filters="sRGB"><feFlood flood-opacity="0" result="BackgroundImageFix"/><feBlend in="SourceGraphic" in2="BackgroundImageFix" result="shape"/><feColorMatrix in="SourceAlpha" values="0 0 0 0 0 0 0 0 0 0 0 0 0 0 0 0 0 0 127 0" result="hardAlpha"/><feOffset dx="-1" dy="1"/><feGaussianBlur stdDeviation="1"/><feComposite in2="hardAlpha" operator="arithmetic" k2="-1" k3="1"/><feColorMatrix values="0 0 0 0 1 0 0 0 0 1 0 0 0 0 1 0 0 0 0.9 0"/><feBlend in2="shape" result="effect1_innerShadow"/><feColorMatrix in="SourceAlpha" values="0 0 0 0 0 0 0 0 0 0 0 0 0 0 0 0 0 0 127 0" result="hardAlpha"/><feOffset dy="-1"/><feGaussianBlur stdDeviation="1"/><feComposite in2="hardAlpha" operator="arithmetic" k2="-1" k3="1"/><feColorMatrix values="0 0 0 0 0 0 0 0 0 0 0 0 0 0 0 0 0 0 0.25 0"/><feBlend in2="effect1_innerShadow" result="effect2_innerShadow"/></filter><linearGradient id="paint0_linear" x1="258.007" y1="119.054" x2="120.604" y2="148.531" gradientUnits="userSpaceOnUse"><stop stop-color="#F2D080"/><stop offset="1" stop-color="#E1B449"/></linearGradient><linearGradient id="paint1_linear" x1="239.778" y1="137.262" x2="182.288" y2="135.156" gradientUnits="userSpaceOnUse"><stop stop-color="#FFF4BC"/><stop offset="1" stop-color="#EDC568" stop-opacity="0"/></linearGradient><linearGradient id="paint2_linear" x1="-65.076" y1="-9.712" x2="186.124" y2="209.164" gradientUnits="userSpaceOnUse"><stop stop-color="#848587"/><stop offset="1" stop-color="#DDD"/></linearGradient><linearGradient id="paint3_linear" x1="-22.596" y1="18.37" x2="219.291" y2="246.405" gradientUnits="userSpaceOnUse"><stop stop-color="#26A157"/><stop offset="1" stop-color="#34B678"/></linearGradient></defs></svg>