<svg width="18" height="18" fill="none" xmlns="http://www.w3.org/2000/svg"><path fill-rule="evenodd" clip-rule="evenodd" d="M9 16.5a7.5 7.5 0 100-15 7.5 7.5 0 000 15zM9 18A9 9 0 109 0a9 9 0 000 18z" fill="#fff"/><path fill-rule="evenodd" clip-rule="evenodd" d="M7.689 5.838A1.933 1.933 0 007.35 6.9a.75.75 0 01-1.5 0c0-.52.15-1.283.621-1.938C6.971 4.269 7.796 3.75 9 3.75c1.126 0 1.969.36 2.506 1.031.511.64.644 1.439.644 2.119 0 1.275-.876 1.905-1.436 2.31-.026.017-.05.035-.074.052-.613.445-.89.693-.89 1.238a.75.75 0 01-1.5 0c0-1.358.9-2.01 1.488-2.436l.022-.016c.646-.469.89-.68.89-1.148 0-.52-.107-.921-.316-1.181-.182-.229-.54-.469-1.334-.469-.716 0-1.09.281-1.311.588z" fill="#fff"/><circle cx="9" cy="12.75" r=".75" fill="#fff"/></svg>