<svg width="24" height="24" viewBox="0 0 24 24" fill="none" xmlns="http://www.w3.org/2000/svg">
<path fill-rule="evenodd" clip-rule="evenodd" d="M3.75 20.25C3.75 19.8358 4.08579 19.5 4.5 19.5H19.5C19.9142 19.5 20.25 19.8358 20.25 20.25C20.25 20.6642 19.9142 21 19.5 21H4.5C4.08579 21 3.75 20.6642 3.75 20.25Z" fill="white"/>
<path fill-rule="evenodd" clip-rule="evenodd" d="M12 3C12.4142 3 12.75 3.33579 12.75 3.75L12.75 14.2197L15.9697 11C16.2626 10.7071 16.7374 10.7071 17.0303 11C17.3232 11.2929 17.3232 11.7678 17.0303 12.0607L12.5303 16.5607C12.2374 16.8536 11.7626 16.8536 11.4697 16.5607L6.96967 12.0607C6.67678 11.7678 6.67678 11.2929 6.96967 11C7.26256 10.7071 7.73744 10.7071 8.03033 11L11.25 14.2197L11.25 3.75C11.25 3.33579 11.5858 3 12 3Z" fill="white"/>
</svg>
