<svg width="24" height="24" viewBox="0 0 24 24" fill="none" xmlns="http://www.w3.org/2000/svg">
<path fill-rule="evenodd" clip-rule="evenodd" d="M12 4.5C9.51472 4.5 7.5 6.51472 7.5 9H6C6 5.68629 8.68629 3 12 3C15.3137 3 18 5.68629 18 9H16.5C16.5 6.51472 14.4853 4.5 12 4.5Z" fill="white"/>
<path fill-rule="evenodd" clip-rule="evenodd" d="M16.4998 13.5C16.4998 15.3821 15.1857 17.3974 13.2627 18.0384L13.737 19.4614C16.3141 18.6024 17.9998 15.9828 17.9998 13.5H16.4998Z" fill="white"/>
<path fill-rule="evenodd" clip-rule="evenodd" d="M3 10.75C3 9.7835 3.7835 9 4.75 9H7.5V15.55C7.5 16.0747 7.07467 16.5 6.55 16.5H4.75C3.7835 16.5 3 15.7165 3 14.75V10.75ZM4.75 10.5C4.61193 10.5 4.5 10.6119 4.5 10.75V14.75C4.5 14.8881 4.61193 15 4.75 15H6V10.5H4.75Z" fill="white"/>
<path fill-rule="evenodd" clip-rule="evenodd" d="M21 10.75C21 9.7835 20.2165 9 19.25 9H16.5V15.55C16.5 16.0747 16.9253 16.5 17.45 16.5H19.25C20.2165 16.5 21 15.7165 21 14.75V10.75ZM19.25 10.5C19.3881 10.5 19.5 10.6119 19.5 10.75V14.75C19.5 14.8881 19.3881 15 19.25 15H18V10.5H19.25Z" fill="white"/>
<path fill-rule="evenodd" clip-rule="evenodd" d="M12 18C11.5858 18 11.25 18.3358 11.25 18.75C11.25 19.1642 11.5858 19.5 12 19.5C12.4142 19.5 12.75 19.1642 12.75 18.75C12.75 18.3358 12.4142 18 12 18ZM9.75 18.75C9.75 17.5074 10.7574 16.5 12 16.5C13.2426 16.5 14.25 17.5074 14.25 18.75C14.25 19.9926 13.2426 21 12 21C10.7574 21 9.75 19.9926 9.75 18.75Z" fill="white"/>
</svg>
