<svg width="88" height="17" viewBox="0 0 88 17" fill="none" xmlns="http://www.w3.org/2000/svg">
<path d="M0 4.89528H2.86286L5.24124 11.6152L7.75175 4.89528H9.51351L11.98 11.5262L14.3143 4.89528H17.2212L12.9489 16.7329H11.0991L8.58859 10.0131L6.03403 16.7329H4.22823L0 4.89528ZM18.9389 0.311523H21.8458V6.05235C22.4184 5.56282 22.991 5.1623 23.5636 4.93978C24.1361 4.67277 24.7528 4.58376 25.3253 4.58376C26.4705 4.58376 27.4835 4.98429 28.2763 5.78533C28.9369 6.49737 29.2893 7.52093 29.2893 8.90051V16.7329H26.3824V11.5262C26.3824 10.1466 26.3383 9.21202 26.2062 8.767C26.0741 8.27747 25.8539 7.92145 25.5455 7.69894C25.2372 7.47643 24.8408 7.29842 24.4004 7.29842C23.7838 7.29842 23.2993 7.47643 22.8589 7.87695C22.4184 8.27747 22.1542 8.8115 21.978 9.52354C21.8899 9.87956 21.8458 10.6806 21.8458 11.9712V16.7329H18.9389V0.311523ZM34.7507 6.36386C34.7507 5.56282 34.0901 4.89528 33.2973 4.89528C32.5045 4.89528 31.8438 5.56282 31.8438 6.36386V16.6884H34.7948L34.7507 6.36386ZM55.7157 11.6597H46.2903C46.4224 12.5052 46.7748 13.1727 47.3914 13.6623C47.964 14.1518 48.7568 14.4188 49.6376 14.4188C50.7387 14.4188 51.6637 14.0183 52.4564 13.2618L54.9229 14.4188C54.3063 15.3089 53.5576 15.9764 52.7207 16.3769C51.8398 16.822 50.8268 17 49.6376 17C47.7878 17 46.2903 16.4214 45.1451 15.2644C44 14.1073 43.4274 12.6387 43.4274 10.8586C43.4274 9.03401 44 7.56543 45.1451 6.36386C46.2903 5.1623 47.7437 4.58376 49.4615 4.58376C51.3113 4.58376 52.8088 5.1623 53.9539 6.36386C55.0991 7.56543 55.6717 9.12302 55.6717 11.0811L55.7157 11.6597ZM52.8088 9.30103C52.6326 8.63349 52.2362 8.09946 51.6637 7.69894C51.0911 7.29842 50.4304 7.0759 49.6817 7.0759C48.8448 7.0759 48.1401 7.29842 47.5235 7.78794C47.1271 8.09946 46.7748 8.58899 46.4665 9.30103H52.8088ZM40.6967 4.89528V0.534036H37.7457V3.5157V4.89528V7.43192V9.25653V16.6884H40.6967V7.43192H42.4585V4.89528H40.6967Z" fill="white"/>
<path d="M33.2532 0C33.7818 0 34.2222 0.17801 34.5746 0.578532C34.971 0.934552 35.1471 1.42408 35.1471 1.95811C35.1471 2.49214 34.971 2.93716 34.6186 3.29318C34.2662 3.6492 33.8258 3.87172 33.2973 3.87172C32.7687 3.87172 32.3283 3.69371 31.976 3.29318C31.6236 2.89266 31.4034 2.44764 31.4034 1.91361C31.4034 1.37958 31.5796 0.934552 31.9319 0.578532C32.3283 0.17801 32.7687 0 33.2532 0Z" fill="#F2D080"/>
<path d="M74.4785 0.712158H77.4735V16.6886H74.4785V0.712158ZM79.2793 0.712158H88V3.69383H85.1371V16.6886H82.0981V3.69383H79.2793V0.712158Z" fill="#F2D080"/>
<path d="M64.9649 6.58638L64.6566 7.16491C64.6126 7.25392 64.6126 7.29842 64.5685 7.34292C64.5685 7.38743 64.5685 7.43193 64.5685 7.47643C64.5685 7.56544 64.6126 7.65444 64.6566 7.74345C64.7447 7.83245 64.8328 7.87695 64.9209 7.87695C65.009 7.87695 65.0971 7.83245 65.1852 7.78795C65.2732 7.69894 65.2732 7.60994 65.2732 7.52093C65.2732 7.43193 65.2292 7.34292 65.1852 7.25392C65.1411 7.20942 65.053 7.16491 65.009 7.16491L65.1852 6.80889L64.9649 6.58638ZM65.053 7.43193C65.053 7.47643 65.053 7.47643 65.009 7.52093C64.9649 7.56544 64.9209 7.56544 64.8768 7.52093C64.8768 7.52093 64.8328 7.47643 64.8328 7.43193C64.8328 7.38743 64.8328 7.38743 64.8768 7.34292L64.9209 7.29842C64.9649 7.29842 64.9649 7.29842 65.009 7.34292C65.009 7.38743 65.053 7.38743 65.053 7.43193ZM66.3303 2.13613L65.8458 2.84817V3.11519H66.2863V3.3377H66.5505V3.11519H66.6386V2.84817H66.5505V2.13613H66.3303ZM66.1982 2.84817L66.3303 2.67016V2.84817H66.1982ZM60.1641 12.1492L60.5605 11.3481H60.1641V11.0811H60.9569V11.2591L60.4724 12.2827L60.1641 12.1492ZM65.009 14.9083C65.053 14.8638 65.053 14.8638 65.053 14.8193C65.053 14.7748 65.053 14.7303 65.009 14.7303C64.9649 14.6858 64.9209 14.6858 64.8768 14.7303L64.8328 14.7748L64.6126 14.7303L64.7447 14.0628H65.3173V14.3298H64.9649V14.4188C65.053 14.4188 65.1852 14.4633 65.2292 14.5523C65.3173 14.6413 65.3173 14.7303 65.3173 14.8193C65.3173 14.9529 65.2732 15.0419 65.1852 15.1309C65.0971 15.2199 65.009 15.2644 64.8768 15.2644C64.7888 15.2644 64.7007 15.2199 64.6126 15.1754C64.5245 15.1309 64.4805 15.0419 64.4805 14.9529V14.9083H64.7888V14.9529C64.7888 14.9974 64.8328 14.9974 64.8328 14.9974C64.9209 14.9974 64.9649 14.9529 65.009 14.9083ZM64.8768 9.16753C64.9649 9.07852 64.9649 8.98952 64.9649 8.90051C64.9649 8.81151 64.9209 8.7225 64.8768 8.6335C64.8328 8.58899 64.7447 8.54449 64.7007 8.54449L64.8768 8.18847L64.6126 8.05496L64.3043 8.6335C64.2602 8.7225 64.2602 8.767 64.2162 8.81151C64.2162 8.85601 64.2162 8.90051 64.2162 8.94501C64.2162 9.03402 64.2602 9.12302 64.3043 9.21203C64.3924 9.30103 64.4805 9.34554 64.5685 9.34554C64.7007 9.30103 64.7888 9.25653 64.8768 9.16753ZM64.5245 8.90051C64.5245 8.85601 64.5245 8.85601 64.5685 8.81151L64.6126 8.767C64.6566 8.767 64.6566 8.767 64.7007 8.81151C64.7007 8.81151 64.7447 8.85601 64.7447 8.90051C64.7447 8.94501 64.7447 8.94501 64.7007 8.98952C64.6566 9.03402 64.6126 9.03402 64.5685 8.98952C64.5245 8.98952 64.5245 8.94501 64.5245 8.90051ZM70.6907 12.2382V12.0157H70.7788V11.7487H70.6907V11.0811H70.4264L69.9419 11.7932V12.0602H70.3824V12.2827H70.6907V12.2382ZM70.2943 11.7487L70.4264 11.5707V11.7487H70.2943ZM64.04 9.25653C64.0841 9.21203 64.1281 9.16753 64.1721 9.12302C64.2162 9.07852 64.2162 8.98952 64.2162 8.94501C64.2162 8.90051 64.2162 8.81151 64.1721 8.767C64.1721 8.7225 64.1281 8.678 64.0841 8.678C64.1281 8.6335 64.1281 8.6335 64.1281 8.58899C64.1281 8.54449 64.1721 8.49999 64.1721 8.45549C64.1721 8.41098 64.1721 8.32198 64.1281 8.27748C64.0841 8.23297 64.04 8.18847 63.996 8.14397C63.9079 8.09947 63.7317 8.09947 63.6436 8.14397C63.5996 8.18847 63.5555 8.23297 63.5115 8.27748C63.4674 8.32198 63.4674 8.36648 63.4674 8.45549C63.4674 8.49999 63.4674 8.54449 63.5115 8.58899C63.5115 8.6335 63.5555 8.6335 63.5555 8.678C63.5115 8.7225 63.5115 8.767 63.4674 8.767C63.4234 8.81151 63.4234 8.90051 63.4234 8.94501C63.4234 9.03402 63.4234 9.07852 63.4674 9.12302C63.5115 9.16753 63.5555 9.21203 63.5996 9.25653C63.6436 9.30103 63.7317 9.30103 63.8198 9.30103C63.9079 9.30103 63.9519 9.30103 64.04 9.25653ZM63.8638 8.49999C63.8198 8.54449 63.7757 8.54449 63.7757 8.49999V8.45549C63.7757 8.41098 63.7757 8.41098 63.7757 8.41098H63.8198C63.8638 8.41098 63.8638 8.41098 63.8638 8.41098V8.45549V8.49999ZM63.7317 8.85601C63.7758 8.81151 63.7757 8.81151 63.8198 8.81151C63.8638 8.81151 63.8638 8.81151 63.9079 8.85601C63.9519 8.85601 63.9519 8.90051 63.9519 8.94501C63.9519 8.98952 63.9519 8.98952 63.9079 9.03402C63.8638 9.07852 63.7758 9.07852 63.7317 9.03402C63.6877 9.03402 63.6877 8.98952 63.6877 8.94501C63.6877 8.90051 63.6877 8.85601 63.7317 8.85601ZM66.4624 15.2199V14.3298H66.2422L66.4184 14.0628H66.7707V15.2199H66.4624ZM62.983 14.4188C62.9389 14.4633 62.8949 14.5523 62.8949 14.6413C62.8949 14.6858 62.8949 14.7748 62.9389 14.8193C62.983 14.8638 62.983 14.9083 63.071 14.9529C63.1591 14.9974 63.2913 14.9974 63.3794 14.9529C63.4234 14.9529 63.4674 14.9083 63.5115 14.8193L63.5555 14.7748L63.7317 14.9974L63.6877 15.0419C63.5996 15.1309 63.5115 15.1754 63.4674 15.2199C63.3794 15.2644 63.2913 15.2644 63.2032 15.2644C63.027 15.2644 62.8949 15.2199 62.7627 15.0864C62.6306 14.9529 62.5866 14.8193 62.5866 14.6413C62.5866 14.5078 62.6306 14.4188 62.6746 14.3298C62.7187 14.2408 62.8068 14.1518 62.8949 14.1073C63.071 14.0183 63.2913 14.0183 63.4674 14.1073C63.5555 14.1518 63.6436 14.1963 63.6877 14.2853L63.7317 14.3298L63.5115 14.5078L63.4674 14.4633C63.3794 14.3743 63.2913 14.3298 63.1591 14.3298C63.1151 14.3298 63.027 14.3298 62.983 14.4188ZM64.1281 15.2199C64.2162 15.2199 64.3043 15.1754 64.3924 15.1309C64.4805 15.0419 64.4805 14.9529 64.4805 14.8638C64.4805 14.7748 64.4364 14.6858 64.3924 14.5968C64.3483 14.5523 64.2602 14.5078 64.2162 14.5078L64.3924 14.1518L64.1281 14.0183L63.8198 14.5968C63.7757 14.6858 63.7758 14.7303 63.7317 14.7748C63.7317 14.8193 63.7317 14.8638 63.7317 14.9083C63.7317 14.9974 63.7757 15.0864 63.8198 15.1754C63.9079 15.2199 63.996 15.2199 64.1281 15.2199ZM64.04 14.8638C64.04 14.8193 64.04 14.8193 64.0841 14.7748L64.1281 14.7303C64.1721 14.7303 64.1721 14.7303 64.2162 14.7748C64.2162 14.7748 64.2602 14.8193 64.2602 14.8638C64.2602 14.9083 64.2602 14.9083 64.2162 14.9529C64.1721 14.9974 64.1281 14.9974 64.0841 14.9529C64.04 14.9083 64.04 14.9083 64.04 14.8638ZM67.079 15.1309L67.4754 14.3298H67.079V14.0628H67.8718V14.2408L67.3874 15.2644L67.079 15.1309ZM65.7577 8.7225C65.8018 8.6335 65.8018 8.58899 65.8458 8.54449C65.8458 8.49999 65.8458 8.45549 65.8458 8.41098C65.8458 8.32198 65.8018 8.23297 65.7577 8.14397C65.6696 8.05496 65.5816 8.01046 65.4935 8.01046C65.4054 8.01046 65.3173 8.05496 65.2292 8.09947C65.1411 8.18847 65.1411 8.27748 65.1411 8.36648C65.1411 8.45549 65.1852 8.54449 65.2292 8.6335C65.2732 8.678 65.3613 8.7225 65.4054 8.7225L65.2292 9.07852L65.4935 9.21203L65.7577 8.7225ZM65.5375 8.45549C65.5375 8.49999 65.5375 8.49999 65.4935 8.54449C65.4494 8.58899 65.4054 8.58899 65.3613 8.54449C65.3613 8.54449 65.3173 8.49999 65.3173 8.45549C65.3173 8.41098 65.3173 8.41098 65.3613 8.36648L65.4054 8.32198C65.4494 8.32198 65.4494 8.32198 65.4494 8.36648C65.5375 8.41098 65.5375 8.45549 65.5375 8.45549ZM64.1721 7.52093C64.2162 7.47643 64.2162 7.47643 64.2162 7.43193C64.2162 7.38743 64.2162 7.34292 64.1721 7.34292C64.1281 7.29842 64.0841 7.29842 64.04 7.34292L63.996 7.38743L63.7757 7.34292L63.9079 6.67539H64.4805V6.9424H64.1281V7.03141C64.2162 7.03141 64.3483 7.07591 64.3924 7.16491C64.4805 7.25392 64.4805 7.34292 64.4805 7.43193C64.4805 7.56544 64.4364 7.65444 64.3483 7.74345C64.2602 7.83245 64.1721 7.87695 64.04 7.87695C63.9519 7.87695 63.8638 7.83245 63.7757 7.78795C63.6877 7.74345 63.6436 7.65444 63.6436 7.56544V7.52093H63.9519V7.56544C63.9519 7.60994 63.996 7.60994 63.996 7.60994C64.0841 7.56544 64.1721 7.52093 64.1721 7.52093ZM70.3824 10.1911C70.3824 10.3246 70.3824 10.4581 70.4264 10.5471C70.4704 10.6361 70.5145 10.6806 70.5585 10.7251C70.6026 10.7696 70.6907 10.7696 70.7788 10.7696C70.8668 10.7696 70.9549 10.7696 70.999 10.7251C71.043 10.6806 71.0871 10.6361 71.1311 10.5471C71.1751 10.4581 71.1751 10.3691 71.1751 10.1911C71.1751 10.0576 71.1751 9.92407 71.1311 9.83506C71.0871 9.74606 71.043 9.70156 70.999 9.65705C70.9549 9.61255 70.8668 9.61255 70.7788 9.61255C70.6466 9.61255 70.5585 9.65705 70.4704 9.79056C70.4264 9.83506 70.3824 9.96857 70.3824 10.1911ZM70.6907 10.1911C70.6907 10.1021 70.6907 10.0131 70.6907 9.96857C70.6907 9.92407 70.7347 9.87957 70.7347 9.87957L70.7788 9.83506C70.7788 9.83506 70.8228 9.83506 70.8668 9.87957C70.8668 9.92407 70.9109 9.96857 70.9109 10.1466C70.9109 10.2801 70.9109 10.3691 70.8668 10.4136C70.8228 10.4581 70.8228 10.4581 70.7788 10.4581C70.7347 10.4581 70.7347 10.4581 70.6907 10.4136C70.6907 10.4136 70.6907 10.3691 70.6907 10.1911ZM60.5165 3.60471L60.2082 4.18325C60.1641 4.27225 60.1641 4.31675 60.1201 4.36126C60.1201 4.40576 60.1201 4.45026 60.1201 4.49476C60.1201 4.58377 60.1641 4.67277 60.2082 4.76178C60.2963 4.85078 60.3844 4.89529 60.4724 4.89529C60.5605 4.89529 60.6486 4.85078 60.7367 4.80628C60.8248 4.71728 60.8248 4.62827 60.8248 4.53927C60.8248 4.45026 60.7808 4.36126 60.7367 4.27225C60.6927 4.22775 60.6046 4.18325 60.5605 4.18325L60.7367 3.82723L60.5165 3.60471ZM60.6046 4.45026C60.6046 4.49476 60.6046 4.49476 60.5605 4.53927C60.5165 4.58377 60.4724 4.58377 60.4284 4.53927C60.4284 4.53927 60.3844 4.49476 60.3844 4.45026C60.3844 4.40576 60.3844 4.40576 60.4284 4.36126L60.4724 4.31675C60.5165 4.31675 60.5165 4.31675 60.5605 4.36126C60.5605 4.40576 60.6046 4.45026 60.6046 4.45026ZM60.6046 7.52093C60.6486 7.52093 60.6486 7.47643 60.6486 7.43193C60.6486 7.38743 60.6486 7.38743 60.6046 7.34292C60.5605 7.29842 60.5165 7.29842 60.4724 7.29842H60.4284V7.03141H60.4724C60.5165 7.03141 60.5605 7.03141 60.5605 7.03141C60.5605 7.03141 60.6046 7.03141 60.6046 6.9869V6.9424V6.8979C60.6046 6.8979 60.6046 6.8979 60.5605 6.8979H60.5165L60.4724 6.9424V6.9869H60.2082V6.9424C60.2082 6.8534 60.2522 6.76439 60.2963 6.71989C60.3844 6.63088 60.4724 6.58638 60.5605 6.58638C60.6486 6.58638 60.7367 6.63088 60.8248 6.67539C60.9129 6.71989 60.9129 6.80889 60.9129 6.8979C60.9129 6.9424 60.9129 6.9869 60.8688 7.03141C60.8688 7.07591 60.8248 7.07591 60.8248 7.07591C60.8688 7.07591 60.9129 7.12041 60.9129 7.16491C60.9569 7.20942 60.9569 7.29842 60.9569 7.34292C60.9569 7.43193 60.9129 7.52093 60.8248 7.60994C60.7367 7.69894 60.6486 7.74345 60.5165 7.74345C60.3844 7.74345 60.2963 7.69894 60.2522 7.65444C60.1641 7.56544 60.1201 7.47643 60.1201 7.38743V7.34292H60.3844V7.38743C60.3844 7.43193 60.3844 7.47643 60.4284 7.47643C60.4724 7.56544 60.5605 7.56544 60.6046 7.52093ZM63.027 2.62566C63.071 2.58116 63.071 2.53665 63.071 2.49215C63.071 2.44765 63.071 2.44765 63.027 2.40315C62.983 2.35864 62.9389 2.35864 62.8949 2.40315C62.8949 2.44765 62.8508 2.44765 62.8508 2.49215V2.53665H62.5866V2.49215C62.5866 2.35864 62.6306 2.26964 62.7187 2.18063C62.8068 2.09163 62.8949 2.04713 62.983 2.04713C63.071 2.04713 63.1151 2.04713 63.1591 2.09163C63.2032 2.13613 63.2472 2.18063 63.2913 2.22514C63.3353 2.26964 63.3353 2.35864 63.3353 2.40315C63.3353 2.49215 63.3353 2.53665 63.2913 2.62566C63.2472 2.71466 63.2032 2.80367 63.071 2.89267L63.027 2.93718H63.3353V3.20419H62.4985V3.15969L62.8508 2.80367C62.983 2.75917 63.027 2.67016 63.027 2.62566ZM63.2913 6.58638L62.983 7.16491C62.9389 7.25392 62.9389 7.29842 62.8949 7.34292C62.8949 7.38743 62.8949 7.43193 62.8949 7.47643C62.8949 7.56544 62.9389 7.65444 62.983 7.74345C63.071 7.83245 63.1591 7.87695 63.2472 7.87695C63.3353 7.87695 63.4234 7.83245 63.5115 7.78795C63.5996 7.69894 63.5996 7.60994 63.5996 7.52093C63.5996 7.43193 63.5555 7.34292 63.5115 7.25392C63.4674 7.20942 63.3793 7.16491 63.3353 7.16491L63.5115 6.80889L63.2913 6.58638ZM63.3794 7.43193C63.3794 7.47643 63.3793 7.47643 63.3353 7.52093C63.2913 7.56544 63.2472 7.56544 63.2032 7.52093C63.2032 7.52093 63.1591 7.47643 63.1591 7.43193C63.1591 7.38743 63.1591 7.38743 63.2032 7.34292L63.2472 7.29842C63.2913 7.29842 63.2913 7.29842 63.3353 7.34292C63.3793 7.38743 63.3794 7.38743 63.3794 7.43193ZM62.983 12.5497L62.6746 13.1282C62.6306 13.2173 62.6306 13.2618 62.5866 13.3063C62.5866 13.3508 62.5866 13.3953 62.5866 13.4398C62.5866 13.5288 62.6306 13.6178 62.6746 13.7068C62.7627 13.7958 62.8508 13.8403 62.9389 13.8403C63.027 13.8403 63.1151 13.7958 63.2032 13.7513C63.2913 13.6623 63.2913 13.5733 63.2913 13.4843C63.2913 13.3953 63.2472 13.3063 63.2032 13.2173C63.1591 13.1728 63.071 13.1282 63.027 13.1282L63.2032 12.7722L62.983 12.5497ZM63.071 13.3953C63.071 13.4398 63.071 13.4398 63.027 13.4843C62.983 13.5288 62.9389 13.5288 62.8949 13.4843C62.8949 13.4843 62.8508 13.4398 62.8508 13.3953C62.8508 13.3508 62.8508 13.3508 62.8949 13.3063L62.9389 13.2618C62.983 13.2618 62.983 13.2618 63.027 13.3063C63.071 13.3063 63.071 13.3508 63.071 13.3953ZM60.1641 10.5471C60.2082 10.6361 60.2522 10.6806 60.2963 10.7251C60.3403 10.7696 60.4284 10.7696 60.5165 10.7696C60.6046 10.7696 60.6927 10.7696 60.7367 10.7251C60.7808 10.6806 60.8248 10.6361 60.8688 10.5471C60.8688 10.5026 60.9129 10.4581 60.9129 10.4136V10.5471H61.3533V10.7696H61.6176V10.5471H61.7057V10.2801H61.6176V9.61255H61.3974L60.9129 10.3246C60.9129 10.2801 60.9129 10.2801 60.9129 10.2356C60.9129 10.1021 60.9129 9.96857 60.8688 9.87957C60.8248 9.79056 60.7808 9.74606 60.7367 9.70156C60.6927 9.65705 60.6046 9.65705 60.5165 9.65705C60.3844 9.65705 60.2963 9.70156 60.2082 9.83506C60.1641 9.92407 60.1201 10.0576 60.1201 10.2801C60.0761 10.3246 60.1201 10.4581 60.1641 10.5471ZM61.2652 10.2801L61.3974 10.1021V10.2801H61.2652ZM60.3844 10.1911C60.3844 10.1021 60.3844 10.0131 60.3844 9.96857C60.3844 9.92407 60.4284 9.87957 60.4284 9.87957L60.4724 9.83506C60.4724 9.83506 60.5165 9.83506 60.5605 9.87957C60.5605 9.92407 60.6046 9.96857 60.6046 10.1466C60.6046 10.2801 60.6046 10.3691 60.5605 10.4136C60.5165 10.4581 60.5165 10.4581 60.4724 10.4581C60.4284 10.4581 60.4284 10.4581 60.3844 10.4136C60.3844 10.4136 60.3844 10.3691 60.3844 10.1911ZM62.983 8.05496L62.6746 8.6335C62.6306 8.7225 62.6306 8.767 62.5866 8.81151C62.5866 8.85601 62.5866 8.90051 62.5866 8.94501C62.5866 9.03402 62.6306 9.12302 62.6746 9.21203C62.7627 9.30103 62.8508 9.34554 62.9389 9.34554C63.027 9.34554 63.1151 9.30103 63.2032 9.25653C63.2913 9.16753 63.2913 9.07852 63.2913 8.98952C63.2913 8.90051 63.2472 8.81151 63.2032 8.7225C63.1591 8.678 63.071 8.6335 63.027 8.6335L63.2032 8.27748L62.983 8.05496ZM63.071 8.90051C63.071 8.94501 63.071 8.94501 63.027 8.98952C62.983 9.03402 62.9389 9.03402 62.8949 8.98952C62.8949 8.98952 62.8508 8.94501 62.8508 8.90051C62.8508 8.85601 62.8508 8.85601 62.8949 8.81151L62.9389 8.767C62.983 8.767 62.983 8.767 63.027 8.81151C63.071 8.85601 63.071 8.90051 63.071 8.90051ZM62.1461 6.31937L62.4544 5.74083C62.4985 5.65183 62.4985 5.60733 62.5425 5.56282C62.5425 5.51832 62.5425 5.47382 62.5425 5.42932C62.5425 5.34031 62.4985 5.25131 62.4544 5.1623C62.3663 5.0733 62.2783 5.02879 62.1902 5.02879C62.1021 5.02879 62.014 5.0733 61.9259 5.1178C61.8378 5.2068 61.8378 5.29581 61.8378 5.38481C61.8378 5.47382 61.8819 5.56282 61.9259 5.65183C61.9699 5.69633 62.058 5.74083 62.1021 5.74083L61.9259 6.09685L62.1461 6.31937ZM62.058 5.51832C62.058 5.47382 62.058 5.47382 62.1021 5.42932L62.1461 5.38481C62.1902 5.38481 62.1902 5.38481 62.1902 5.42932C62.1902 5.42932 62.2342 5.47382 62.2342 5.51832C62.2342 5.56282 62.2342 5.56282 62.1902 5.60733C62.1461 5.65183 62.1021 5.65183 62.058 5.60733C62.058 5.56282 62.058 5.51832 62.058 5.51832ZM67.1671 6.00785C67.2112 6.00785 67.2112 5.96335 67.2112 5.91884C67.2112 5.87434 67.2112 5.87434 67.1671 5.82984C67.1231 5.78534 67.0791 5.78534 66.991 5.78534H66.9469V5.51832H66.991C67.035 5.51832 67.079 5.51832 67.079 5.51832C67.079 5.51832 67.1231 5.51832 67.1231 5.47382V5.42932V5.38481C67.1231 5.38481 67.1231 5.38481 67.079 5.38481H67.035L66.991 5.42932V5.47382H66.7267V5.42932C66.7267 5.34031 66.7707 5.25131 66.8148 5.2068C66.9029 5.1178 66.991 5.0733 67.079 5.0733C67.1671 5.0733 67.2552 5.1178 67.3433 5.1623C67.4314 5.2068 67.4314 5.29581 67.4314 5.38481C67.4314 5.42932 67.4314 5.47382 67.3874 5.51832C67.3874 5.56282 67.3433 5.56282 67.3433 5.56282C67.3874 5.56282 67.4314 5.60733 67.4314 5.65183C67.4754 5.69633 67.4754 5.78534 67.4754 5.82984C67.4754 5.91884 67.4314 6.00785 67.3433 6.09685C67.2552 6.18586 67.1671 6.23036 67.035 6.23036C66.9029 6.23036 66.8148 6.18586 66.7707 6.14136C66.6827 6.05235 66.6386 5.96335 66.6386 5.87434V5.82984H66.9029V5.87434C66.9029 5.91884 66.9029 5.96335 66.9469 5.96335C67.035 6.05235 67.1231 6.05235 67.1671 6.00785ZM60.9129 4.45026C60.9129 4.53927 60.9129 4.58377 60.9569 4.62827C61.001 4.67277 61.045 4.71728 61.0891 4.76178C61.1331 4.80628 61.2212 4.80628 61.3093 4.80628C61.3974 4.80628 61.4855 4.80628 61.5295 4.76178C61.5735 4.71728 61.6176 4.67277 61.6616 4.62827C61.7057 4.58377 61.7057 4.49476 61.7057 4.45026C61.7057 4.40576 61.7057 4.31675 61.6616 4.27225C61.6616 4.22775 61.6176 4.18325 61.5735 4.18325C61.6176 4.13874 61.6176 4.13874 61.6176 4.09424C61.6176 4.04974 61.6616 4.00524 61.6616 3.96073C61.6616 3.91623 61.6616 3.82723 61.6176 3.78272C61.5735 3.73822 61.5295 3.69372 61.4855 3.64922C61.3974 3.60471 61.2212 3.60471 61.1331 3.64922C61.0891 3.69372 61.045 3.73822 61.001 3.78272C60.9569 3.82723 60.9569 3.87173 60.9569 3.96073C60.9569 4.00524 60.9569 4.04974 61.001 4.09424C61.001 4.13874 61.045 4.13874 61.045 4.18325C61.001 4.22775 61.001 4.27225 60.9569 4.27225C60.9129 4.36126 60.9129 4.40576 60.9129 4.45026ZM61.3974 4.04974C61.3533 4.09424 61.3093 4.09424 61.3093 4.04974V4.00524C61.3093 3.96073 61.3093 3.96073 61.3093 3.96073H61.3533C61.3974 3.96073 61.3974 3.96073 61.3974 3.96073V4.00524V4.04974ZM61.3533 4.36126C61.3974 4.36126 61.3974 4.36126 61.4414 4.40576C61.4855 4.40576 61.4855 4.45026 61.4855 4.49476C61.4855 4.53927 61.4855 4.53927 61.4414 4.58377C61.3974 4.62827 61.3093 4.62827 61.2652 4.58377C61.2212 4.58377 61.2212 4.53927 61.2212 4.49476C61.2212 4.45026 61.2212 4.45026 61.2652 4.40576C61.2652 4.36126 61.3093 4.36126 61.3533 4.36126ZM61.3093 5.1178L61.001 5.69633C60.9569 5.78534 60.9569 5.82984 60.9129 5.87434C60.9129 5.91884 60.9129 5.96335 60.9129 6.00785C60.9129 6.09685 60.9569 6.18586 61.001 6.27486C61.0891 6.36387 61.1771 6.40837 61.2652 6.40837C61.3533 6.40837 61.4414 6.36387 61.5295 6.31937C61.6176 6.23036 61.6176 6.14136 61.6176 6.05235C61.6176 5.96335 61.5735 5.87434 61.5295 5.78534C61.4855 5.74083 61.3974 5.69633 61.3533 5.69633L61.5295 5.34031L61.3093 5.1178ZM61.3974 5.96335C61.3974 6.00785 61.3974 6.00785 61.3533 6.05235C61.3093 6.09685 61.2652 6.09685 61.2212 6.05235C61.2212 6.05235 61.1772 6.00785 61.1772 5.96335C61.1772 5.91884 61.1772 5.91884 61.2212 5.87434L61.2652 5.82984C61.3093 5.82984 61.3093 5.82984 61.3533 5.87434C61.3974 5.87434 61.3974 5.91884 61.3974 5.96335ZM62.2342 10.0576C62.2782 10.0131 62.2783 9.96857 62.2783 9.92407C62.2783 9.87957 62.2782 9.87957 62.2342 9.83506C62.1902 9.79056 62.1461 9.79056 62.1021 9.83506C62.1021 9.87957 62.058 9.87957 62.058 9.92407V9.96857H61.7938V9.92407C61.7938 9.79056 61.8378 9.70156 61.9259 9.61255C62.014 9.52355 62.1021 9.47904 62.1902 9.47904C62.2783 9.47904 62.3223 9.47904 62.3663 9.52355C62.4104 9.56805 62.4544 9.61255 62.4985 9.65705C62.5425 9.70156 62.5425 9.79056 62.5425 9.83506C62.5425 9.92407 62.5425 9.96857 62.4985 10.0576C62.4544 10.1466 62.4104 10.2356 62.2783 10.3246L62.2342 10.3691H62.5425V10.6361H61.7057V10.4581L62.058 10.1021C62.1461 10.1911 62.1902 10.1021 62.2342 10.0576ZM62.1461 3.60471L61.8378 4.18325C61.7938 4.27225 61.7938 4.31675 61.7497 4.36126C61.7497 4.40576 61.7497 4.45026 61.7497 4.49476C61.7497 4.58377 61.7938 4.67277 61.8378 4.76178C61.9259 4.85078 62.014 4.89529 62.1021 4.89529C62.1902 4.89529 62.2783 4.85078 62.3663 4.80628C62.4544 4.71728 62.4544 4.62827 62.4544 4.53927C62.4544 4.45026 62.4104 4.36126 62.3663 4.27225C62.3223 4.22775 62.2342 4.18325 62.1902 4.18325L62.3663 3.82723L62.1461 3.60471ZM62.2342 4.45026C62.2342 4.49476 62.2342 4.49476 62.1902 4.53927C62.1461 4.58377 62.1021 4.58377 62.058 4.53927C62.058 4.53927 62.014 4.49476 62.014 4.45026C62.014 4.40576 62.014 4.40576 62.058 4.36126L62.1021 4.31675C62.1461 4.31675 62.1461 4.31675 62.1902 4.36126C62.2342 4.40576 62.2342 4.45026 62.2342 4.45026ZM61.001 9.21203L61.3974 8.41098H60.9569V8.14397H61.7497V8.32198L61.2652 9.34554L61.001 9.21203ZM61.7497 7.20942C61.7497 7.07591 61.7938 6.9869 61.8378 6.8979C61.8819 6.80889 61.9699 6.71989 62.058 6.67539C62.2342 6.58638 62.4544 6.58638 62.6306 6.67539C62.7187 6.71989 62.8068 6.76439 62.8508 6.8534L62.8949 6.8979L62.6746 7.07591L62.6306 7.03141C62.5425 6.9424 62.4544 6.8979 62.3223 6.8979C62.2342 6.8979 62.1461 6.9424 62.1021 6.9869C62.058 7.03141 62.014 7.12041 62.014 7.20942C62.014 7.25392 62.014 7.34292 62.058 7.38743C62.1021 7.43193 62.1021 7.47643 62.1902 7.52093C62.2783 7.56544 62.4104 7.56544 62.4985 7.52093C62.5425 7.52093 62.5866 7.47643 62.6306 7.38743L62.6746 7.34292L62.8508 7.56544L62.8068 7.60994C62.7187 7.69894 62.6306 7.74345 62.5866 7.78795C62.4985 7.83245 62.4104 7.83245 62.3223 7.83245C62.1461 7.83245 62.014 7.78795 61.8819 7.65444C61.8378 7.52093 61.7497 7.38743 61.7497 7.20942ZM63.027 10.7696H63.2913V10.5471H63.3794V10.2801H63.2913V9.61255H63.027L62.5425 10.3246V10.5916H62.983V10.7696H63.027ZM62.8949 10.2801L63.027 10.1021V10.2801H62.8949ZM61.045 7.69894C61.1331 7.78795 61.2212 7.83245 61.3093 7.83245C61.3974 7.83245 61.4855 7.78795 61.5735 7.74345C61.6616 7.65444 61.6616 7.56544 61.6616 7.47643C61.6616 7.38743 61.6176 7.29842 61.5735 7.20942C61.5295 7.16491 61.4414 7.12041 61.3974 7.12041L61.5735 6.76439L61.3093 6.63088L61.001 7.20942C60.9569 7.29842 60.9569 7.34292 60.9129 7.38743C60.9129 7.43193 60.9129 7.47643 60.9129 7.52093C60.9569 7.52093 61.001 7.60994 61.045 7.69894ZM61.2212 7.43193C61.2212 7.38743 61.2212 7.38743 61.2652 7.34292L61.3093 7.29842C61.3533 7.29842 61.3533 7.29842 61.3974 7.34292C61.3974 7.34292 61.4414 7.38743 61.4414 7.43193C61.4414 7.47643 61.4414 7.47643 61.3974 7.52093C61.3533 7.56544 61.3093 7.56544 61.2652 7.52093C61.2212 7.47643 61.2212 7.47643 61.2212 7.43193ZM62.7627 12.2382C62.8068 12.2827 62.8949 12.2827 62.983 12.2827C63.071 12.2827 63.1591 12.2827 63.2032 12.2382C63.2472 12.1937 63.2913 12.1492 63.3353 12.1047C63.3793 12.0602 63.3794 11.9712 63.3794 11.9267C63.3794 11.8822 63.3793 11.7932 63.3353 11.7487C63.3353 11.7042 63.2913 11.6597 63.2472 11.6597C63.2913 11.6152 63.2913 11.6152 63.2913 11.5707C63.2913 11.5262 63.3353 11.4817 63.3353 11.4372C63.3353 11.3927 63.3353 11.3036 63.2913 11.2591C63.2472 11.2146 63.2032 11.1701 63.1591 11.1256C63.071 11.0811 62.8949 11.0811 62.8068 11.1256C62.7627 11.1701 62.7187 11.2146 62.6746 11.2591C62.6306 11.3036 62.6306 11.3481 62.6306 11.4372C62.6306 11.4817 62.6306 11.5262 62.6746 11.5707C62.6746 11.6152 62.7187 11.6152 62.7187 11.6597C62.6746 11.7042 62.6746 11.7487 62.6306 11.7487C62.5866 11.7932 62.5866 11.8822 62.5866 11.9267C62.5866 12.0157 62.5866 12.0602 62.6306 12.1047C62.6746 12.1492 62.7187 12.1937 62.7627 12.2382ZM63.027 11.4817C62.983 11.5262 62.9389 11.5262 62.9389 11.4817V11.4372C62.9389 11.3927 62.9389 11.3927 62.9389 11.3927H62.983C63.027 11.3927 63.027 11.3927 63.027 11.3927V11.4372V11.4817ZM62.983 11.7932C63.027 11.7932 63.027 11.7932 63.071 11.8377C63.1151 11.8377 63.1151 11.8822 63.1151 11.9267C63.1151 11.9712 63.1151 11.9712 63.071 12.0157C63.027 12.0602 62.9389 12.0602 62.8949 12.0157C62.8508 12.0157 62.8508 11.9712 62.8508 11.9267C62.8508 11.8822 62.8508 11.8822 62.8949 11.8377C62.8949 11.7932 62.9389 11.7932 62.983 11.7932ZM61.9259 13.7068C61.9699 13.7513 62.058 13.7513 62.1461 13.7513C62.2342 13.7513 62.3223 13.7513 62.3663 13.7068C62.4104 13.6623 62.4544 13.6178 62.4985 13.5288C62.5425 13.4398 62.5425 13.3508 62.5425 13.1728C62.5425 13.0392 62.5425 12.9057 62.4985 12.8167C62.4544 12.7277 62.4104 12.6832 62.3663 12.6387C62.3223 12.5942 62.2342 12.5942 62.1461 12.5942C62.014 12.5942 61.9259 12.6387 61.8378 12.7722C61.7938 12.8612 61.7497 12.9947 61.7497 13.2173C61.7497 13.3508 61.7497 13.4843 61.7938 13.5733C61.8378 13.5733 61.8819 13.6623 61.9259 13.7068ZM62.014 13.1728C62.014 13.0837 62.014 12.9947 62.014 12.9502C62.014 12.9057 62.058 12.8612 62.058 12.8612L62.1021 12.8167C62.1021 12.8167 62.1461 12.8167 62.1902 12.8612C62.1902 12.9057 62.2342 12.9502 62.2342 13.1282C62.2342 13.2618 62.2342 13.3508 62.1902 13.3953C62.1461 13.4398 62.1461 13.4398 62.1021 13.4398C62.058 13.4398 62.058 13.4398 62.014 13.3953C62.058 13.3953 62.014 13.3063 62.014 13.1728ZM60.1641 6.05235C60.2082 6.14136 60.2522 6.18586 60.2963 6.23036C60.3403 6.27486 60.4284 6.27486 60.5165 6.27486C60.6046 6.27486 60.6927 6.27486 60.7367 6.23036C60.7808 6.18586 60.8248 6.14136 60.8688 6.05235C60.9129 5.96335 60.9129 5.87434 60.9129 5.69633C60.9129 5.56282 60.9129 5.42932 60.8688 5.34031C60.8248 5.25131 60.7808 5.2068 60.7367 5.1623C60.6927 5.1178 60.6046 5.1178 60.5165 5.1178C60.3844 5.1178 60.2963 5.1623 60.2082 5.29581C60.1641 5.38481 60.1201 5.51832 60.1201 5.74083C60.0761 5.87434 60.1201 6.00785 60.1641 6.05235ZM60.3844 5.74083C60.3844 5.65183 60.3844 5.56282 60.3844 5.51832C60.3844 5.47382 60.4284 5.42932 60.4284 5.42932L60.4724 5.38481C60.4724 5.38481 60.5165 5.38481 60.5605 5.42932C60.5605 5.47382 60.6046 5.51832 60.6046 5.69633C60.6046 5.82984 60.6046 5.91884 60.5605 5.96335C60.5165 6.00785 60.5165 6.00785 60.4724 6.00785C60.4284 6.00785 60.4284 6.00785 60.3844 5.96335C60.3844 5.96335 60.3844 5.87434 60.3844 5.74083ZM60.1641 9.03402C60.2082 9.12302 60.2522 9.16753 60.2963 9.21203C60.3403 9.25653 60.4284 9.25653 60.5165 9.25653C60.6046 9.25653 60.6927 9.25653 60.7367 9.21203C60.7808 9.16753 60.8248 9.12302 60.8688 9.03402C60.9129 8.94501 60.9129 8.85601 60.9129 8.678C60.9129 8.54449 60.9129 8.41098 60.8688 8.32198C60.8248 8.23297 60.7808 8.18847 60.7367 8.14397C60.6927 8.09947 60.6046 8.09947 60.5165 8.09947C60.3844 8.09947 60.2963 8.14397 60.2082 8.27748C60.1641 8.36648 60.1201 8.49999 60.1201 8.7225C60.0761 8.85601 60.1201 8.94501 60.1641 9.03402ZM60.3844 8.7225C60.3844 8.6335 60.3844 8.54449 60.3844 8.49999C60.3844 8.45549 60.4284 8.41098 60.4284 8.41098L60.4724 8.36648C60.4724 8.36648 60.5165 8.36648 60.5605 8.41098C60.5605 8.45549 60.6046 8.49999 60.6046 8.678C60.6046 8.81151 60.6046 8.90051 60.5605 8.94501C60.5165 8.98952 60.5165 8.98952 60.4724 8.98952C60.4284 8.98952 60.4284 8.98952 60.3844 8.94501C60.3844 8.94501 60.3844 8.85601 60.3844 8.7225ZM62.983 4.85078L63.2913 4.27225C63.3353 4.18325 63.3353 4.13874 63.3794 4.09424C63.3794 4.04974 63.3794 4.00524 63.3794 3.96073C63.3794 3.87173 63.3353 3.78272 63.2913 3.69372C63.2032 3.60471 63.1151 3.56021 63.027 3.56021C62.9389 3.56021 62.8508 3.60471 62.7627 3.64922C62.6747 3.73822 62.6746 3.82723 62.6746 3.91623C62.6746 4.00524 62.7187 4.09424 62.7627 4.18325C62.8068 4.22775 62.8949 4.27225 62.9389 4.27225L62.7627 4.62827L62.983 4.85078ZM62.8949 4.00524C62.8949 3.96073 62.8949 3.96073 62.9389 3.91623L62.983 3.87173C63.027 3.87173 63.027 3.87173 63.027 3.91623C63.027 3.91623 63.071 3.96073 63.071 4.00524C63.071 4.04974 63.071 4.04974 63.027 4.09424C62.983 4.13874 62.9389 4.13874 62.8949 4.09424C62.8949 4.04974 62.8949 4.04974 62.8949 4.00524ZM61.8378 9.21203L62.2342 8.41098H61.8378V8.14397H62.6306V8.32198L62.1461 9.34554L61.8378 9.21203ZM62.6306 5.1623H63.4234V5.34031L62.9389 6.36387L62.6746 6.23036L63.071 5.42932H62.6746V5.1623H62.6306ZM61.7057 13.7068H60.8688V13.5288L61.2212 13.1728C61.3093 13.0837 61.3533 13.0392 61.3533 12.9947C61.3974 12.9502 61.3974 12.9057 61.3974 12.8612C61.3974 12.8167 61.3974 12.8167 61.3533 12.7722C61.3093 12.7277 61.2652 12.7277 61.2212 12.7722C61.2212 12.8167 61.1772 12.8167 61.1772 12.8612V12.9057H60.9129V12.8612C60.9129 12.7277 60.9569 12.6387 61.045 12.5497C61.1331 12.4607 61.2212 12.4162 61.3093 12.4162C61.3974 12.4162 61.4414 12.4162 61.4855 12.4607C61.5295 12.5052 61.5735 12.5497 61.6176 12.5942C61.6616 12.6387 61.6616 12.7277 61.6616 12.7722C61.6616 12.8612 61.6616 12.9057 61.6176 12.9947C61.5735 13.0837 61.5295 13.1728 61.3974 13.2618L61.3533 13.3063H61.6616V13.7068H61.7057ZM61.7497 11.2591L61.2652 12.2827L61.001 12.1492L61.3974 11.3481H60.9569V11.0811H61.7497V11.2591ZM62.1461 11.0366L61.8378 11.6152C61.7938 11.7042 61.7938 11.7487 61.7497 11.7932C61.7497 11.8377 61.7497 11.8822 61.7497 11.9267C61.7497 12.0157 61.7938 12.1047 61.8378 12.1937C61.9259 12.2827 62.014 12.3272 62.1021 12.3272C62.1902 12.3272 62.2783 12.2827 62.3663 12.2382C62.4544 12.1492 62.4544 12.0602 62.4544 11.9712C62.4544 11.8822 62.4104 11.7932 62.3663 11.7042C62.3223 11.6597 62.2342 11.6152 62.1902 11.6152L62.3663 11.2591L62.1461 11.0366ZM62.2342 11.8822C62.2342 11.9267 62.2342 11.9267 62.1902 11.9712C62.1461 12.0157 62.1021 12.0157 62.058 11.9712C62.058 11.9712 62.014 11.9267 62.014 11.8822C62.014 11.8377 62.014 11.8377 62.058 11.7932L62.1021 11.7487C62.1461 11.7487 62.1461 11.7487 62.1902 11.7932C62.2342 11.8377 62.2342 11.8377 62.2342 11.8822ZM60.9129 3.3377H60.076V3.15969L60.4284 2.80367C60.5165 2.71466 60.5605 2.67016 60.5605 2.62566C60.6046 2.58116 60.6046 2.53665 60.6046 2.49215C60.6046 2.44765 60.6046 2.44765 60.5605 2.40315C60.5165 2.35864 60.4724 2.35864 60.4284 2.40315C60.4284 2.44765 60.3844 2.44765 60.3844 2.49215V2.53665H60.1201V2.49215C60.1201 2.35864 60.1641 2.26964 60.2522 2.18063C60.3403 2.09163 60.4284 2.04713 60.5165 2.04713C60.6046 2.04713 60.6486 2.04713 60.6927 2.09163C60.7367 2.13613 60.7808 2.18063 60.8248 2.22514C60.8688 2.26964 60.8688 2.35864 60.8688 2.40315C60.8688 2.49215 60.8688 2.53665 60.8248 2.62566C60.7808 2.71466 60.7367 2.80367 60.6046 2.89267L60.5605 2.93718H60.8688V3.3377H60.9129ZM61.3974 0.979067H60.9569V0.667549H61.7497V0.845559L61.2652 1.86912L61.001 1.73561L61.3974 0.979067ZM60.5605 0.979067H60.1641V0.667549H60.9569V0.845559L60.4724 1.86912L60.2082 1.73561L60.5605 0.979067ZM61.045 15.1309C60.9569 15.0419 60.9129 14.9529 60.9129 14.8638V14.8193H61.1772V14.8638C61.1772 14.9083 61.1772 14.9529 61.2212 14.9529C61.2652 14.9974 61.3533 14.9974 61.3974 14.9529C61.4414 14.9529 61.4414 14.9083 61.4414 14.8638C61.4414 14.8193 61.4414 14.8193 61.3974 14.7748C61.3533 14.7303 61.3093 14.7303 61.2652 14.7303H61.2212V14.4633H61.2652C61.3093 14.4633 61.3533 14.4633 61.3533 14.4633C61.3533 14.4633 61.3974 14.4633 61.3974 14.4188V14.3743V14.3298C61.3974 14.3298 61.3974 14.3298 61.3533 14.3298H61.3093L61.2652 14.3743V14.4188H60.9569V14.3743C60.9569 14.2853 61.001 14.1963 61.045 14.1518C61.1331 14.0628 61.2212 14.0183 61.3093 14.0183C61.3974 14.0183 61.4855 14.0628 61.5735 14.1073C61.6616 14.1518 61.6616 14.2408 61.6616 14.3298C61.6616 14.3743 61.6616 14.4188 61.6176 14.4633C61.6176 14.5078 61.5735 14.5078 61.5735 14.5078C61.6176 14.5078 61.6616 14.5523 61.6616 14.5968C61.7057 14.6413 61.7057 14.7303 61.7057 14.7748C61.7057 14.8638 61.6616 14.9529 61.5735 15.0419C61.4855 15.1309 61.3974 15.1754 61.2652 15.1754C61.2212 15.2199 61.1331 15.2199 61.045 15.1309ZM60.5165 15.2199C60.6046 15.2199 60.6927 15.1754 60.7808 15.1309C60.8688 15.0419 60.8688 14.9529 60.8688 14.8638C60.8688 14.7748 60.8248 14.6858 60.7808 14.5968C60.7367 14.5523 60.6486 14.5078 60.6046 14.5078L60.7808 14.1518L60.5165 14.0183L60.2082 14.5968C60.1641 14.6858 60.1641 14.7303 60.1201 14.7748C60.1201 14.8193 60.1201 14.8638 60.1201 14.9083C60.1201 14.9974 60.1641 15.0864 60.2082 15.1754C60.2963 15.2199 60.3844 15.2199 60.5165 15.2199ZM60.4284 14.8638C60.4284 14.8193 60.4284 14.8193 60.4724 14.7748L60.5165 14.7303C60.5605 14.7303 60.5605 14.7303 60.6046 14.7748C60.6046 14.7748 60.6486 14.8193 60.6486 14.8638C60.6486 14.9083 60.6486 14.9083 60.6046 14.9529C60.5605 14.9974 60.5165 14.9974 60.4724 14.9529C60.4284 14.9083 60.4284 14.9083 60.4284 14.8638ZM60.1201 15.5314H60.9129V15.7094L60.4284 16.733L60.1641 16.5994L60.5605 15.7984H60.1641V15.5314H60.1201ZM62.1461 1.86912C62.2342 1.86912 62.3223 1.82461 62.4104 1.78011C62.4985 1.69111 62.4985 1.6021 62.4985 1.5131C62.4985 1.42409 62.4544 1.33509 62.4104 1.24608C62.3663 1.20158 62.2782 1.15708 62.2342 1.15708L62.4104 0.801057L62.1461 0.667549L61.8378 1.20158C61.7938 1.29058 61.7938 1.33509 61.7497 1.37959C61.7497 1.42409 61.7497 1.46859 61.7497 1.5131C61.7497 1.6021 61.7938 1.69111 61.8378 1.78011C61.9699 1.82461 62.058 1.86912 62.1461 1.86912ZM62.058 1.46859C62.058 1.42409 62.058 1.42409 62.1021 1.37959L62.1461 1.33509C62.1902 1.33509 62.1902 1.33509 62.2342 1.37959C62.2342 1.37959 62.2783 1.42409 62.2783 1.46859C62.2783 1.5131 62.2782 1.5131 62.2342 1.5576C62.1902 1.6021 62.1461 1.6021 62.1021 1.5576C62.058 1.5576 62.058 1.5131 62.058 1.46859ZM60.2082 13.6623C60.1201 13.6178 60.076 13.5288 60.076 13.4398V13.3953H60.3844V13.4398C60.3844 13.4843 60.4284 13.4843 60.4284 13.4843C60.4724 13.5288 60.5165 13.5288 60.5605 13.4843C60.6046 13.4398 60.6046 13.4398 60.6046 13.3953C60.6046 13.3508 60.6046 13.3063 60.5605 13.3063C60.5165 13.2618 60.4724 13.2618 60.4284 13.3063L60.3844 13.3508L60.1641 13.3063L60.2963 12.6387H60.8688V12.9057H60.5165V12.9947C60.6046 12.9947 60.7367 13.0392 60.7808 13.1282C60.8688 13.2173 60.8688 13.3063 60.8688 13.3953C60.8688 13.5288 60.8248 13.6178 60.7367 13.7068C60.6486 13.7958 60.5605 13.8403 60.4284 13.8403C60.3844 13.7513 60.2963 13.7068 60.2082 13.6623ZM61.7057 2.40315C61.6616 2.31414 61.6176 2.26964 61.5735 2.22514C61.5295 2.18063 61.4414 2.18063 61.3533 2.18063C61.2212 2.18063 61.1331 2.22514 61.045 2.35864C61.001 2.44765 60.9569 2.58116 60.9569 2.80367C60.9569 2.93718 60.9569 3.07068 61.001 3.15969C61.045 3.24869 61.0891 3.2932 61.1331 3.3377C61.1771 3.3822 61.2652 3.3822 61.3533 3.3822C61.4414 3.3822 61.5295 3.3822 61.5735 3.3377C61.6176 3.2932 61.6616 3.24869 61.7057 3.15969C61.7057 3.11519 61.7497 3.07068 61.7497 3.02618V3.15969H62.1902V3.3822H62.4544V3.11519H62.5425V2.84817H62.4544V2.13613H62.1902L61.7057 2.84817C61.7057 2.80367 61.7057 2.80367 61.7057 2.75917C61.7497 2.62566 61.7497 2.49215 61.7057 2.40315ZM61.4414 2.75917C61.4414 2.89267 61.4414 2.98168 61.3974 3.02618C61.3533 3.07068 61.3533 3.07068 61.3093 3.07068C61.2652 3.07068 61.2652 3.07068 61.2212 3.02618C61.2212 2.98168 61.1772 2.93718 61.1772 2.75917C61.1772 2.67016 61.1772 2.58116 61.1772 2.53665C61.1772 2.49215 61.2212 2.44765 61.2212 2.44765L61.2652 2.40315C61.2652 2.40315 61.3093 2.40315 61.3533 2.44765C61.4414 2.53665 61.4414 2.58116 61.4414 2.75917ZM62.058 2.84817L62.1902 2.67016V2.84817H62.058ZM65.009 3.02618V2.98168H65.3173V3.02618C65.3173 3.07068 65.3613 3.07068 65.3613 3.07068C65.4054 3.11519 65.4494 3.11519 65.4935 3.07068C65.5375 3.02618 65.5375 3.02618 65.5375 2.98168C65.5375 2.93718 65.5375 2.89267 65.4935 2.89267C65.4494 2.84817 65.4054 2.84817 65.3613 2.89267L65.3173 2.93718L65.0971 2.89267L65.2292 2.22514H65.8018V2.49215H65.4494V2.58116C65.5375 2.58116 65.6696 2.62566 65.7137 2.71466C65.8018 2.80367 65.8018 2.89267 65.8018 2.98168C65.8018 3.11519 65.7577 3.20419 65.6696 3.2932C65.5816 3.3822 65.4935 3.4267 65.3613 3.4267C65.2732 3.4267 65.1852 3.3822 65.0971 3.3377C65.0971 3.20419 65.053 3.11519 65.009 3.02618ZM65.4935 0.979067H65.0971V0.667549H65.8899V0.845559L65.3613 1.86912L65.0971 1.73561L65.4935 0.979067ZM64.5685 1.42409L64.3924 1.78011L64.6566 1.91362L64.9649 1.33509C65.009 1.24608 65.009 1.20158 65.053 1.15708C65.053 1.11257 65.053 1.06807 65.053 1.02357C65.053 0.934564 65.009 0.845559 64.9649 0.756554C64.8769 0.667549 64.7888 0.623047 64.7007 0.623047C64.6126 0.623047 64.5245 0.667549 64.4364 0.712052C64.3483 0.801057 64.3483 0.890062 64.3483 0.979067C64.3483 1.06807 64.3924 1.15708 64.4364 1.24608C64.4364 1.37959 64.4805 1.37959 64.5685 1.42409ZM64.5245 1.02357C64.5245 0.979067 64.5245 0.979067 64.5685 0.934564L64.6126 0.890062C64.6566 0.890062 64.6566 0.890062 64.6566 0.934564C64.6566 0.934564 64.7007 0.979067 64.7007 1.02357C64.7007 1.06807 64.7007 1.06807 64.6566 1.11257C64.6126 1.15708 64.5685 1.15708 64.5245 1.11257C64.5685 1.11257 64.5245 1.06807 64.5245 1.02357ZM65.8458 1.37959V1.6466H66.2863V1.82461H66.5505V1.6021H66.6386V1.33509H66.5505V0.667549H66.2863L65.8458 1.37959ZM66.1982 1.33509L66.3303 1.15708V1.33509H66.1982ZM63.7757 1.86912C63.8638 1.86912 63.9519 1.82461 64.04 1.78011C64.1281 1.69111 64.1281 1.6021 64.1281 1.5131C64.1281 1.42409 64.0841 1.33509 64.04 1.24608C63.996 1.20158 63.9079 1.15708 63.8638 1.15708L64.04 0.801057L63.7757 0.667549L63.4674 1.24608C63.4234 1.33509 63.4234 1.37959 63.3794 1.42409C63.3794 1.46859 63.3794 1.5131 63.3794 1.5576C63.3794 1.6466 63.4234 1.73561 63.4674 1.82461C63.5996 1.82461 63.6877 1.86912 63.7757 1.86912ZM63.6877 1.46859C63.6877 1.42409 63.6877 1.42409 63.7317 1.37959L63.7757 1.33509C63.8198 1.33509 63.8198 1.33509 63.8638 1.37959C63.8638 1.37959 63.9079 1.42409 63.9079 1.46859C63.9079 1.5131 63.9079 1.5131 63.8638 1.5576C63.8198 1.6021 63.7758 1.6021 63.7317 1.5576C63.7317 1.5576 63.6877 1.5131 63.6877 1.46859ZM62.7627 1.82461C62.8068 1.86912 62.8949 1.86912 62.983 1.86912C63.071 1.86912 63.1591 1.86912 63.2032 1.82461C63.2472 1.78011 63.2913 1.73561 63.3353 1.69111C63.3793 1.6466 63.3794 1.5576 63.3794 1.5131C63.3794 1.46859 63.3793 1.37959 63.3353 1.33509C63.3353 1.29058 63.2913 1.24608 63.2472 1.24608C63.2913 1.20158 63.2913 1.20158 63.2913 1.15708C63.2913 1.11257 63.3353 1.06807 63.3353 1.02357C63.3353 0.979067 63.3353 0.890062 63.2913 0.845559C63.2472 0.801057 63.2032 0.756554 63.1591 0.712052C63.071 0.667549 62.8949 0.667549 62.8068 0.712052C62.7627 0.756554 62.7187 0.801057 62.6746 0.845559C62.6306 0.890062 62.6306 0.934564 62.6306 1.02357C62.6306 1.06807 62.6306 1.11257 62.6746 1.15708C62.6746 1.20158 62.7187 1.20158 62.7187 1.24608C62.6746 1.29058 62.6746 1.33509 62.6306 1.33509C62.5866 1.37959 62.5866 1.46859 62.5866 1.5131C62.5866 1.6021 62.5866 1.6466 62.6306 1.69111C62.6746 1.73561 62.7187 1.78011 62.7627 1.82461ZM63.027 1.06807C62.983 1.11257 62.9389 1.11257 62.9389 1.06807V1.02357C62.9389 0.979067 62.9389 0.979067 62.9389 0.979067H62.983C63.027 0.979067 63.027 0.979067 63.027 0.979067V1.02357V1.06807ZM62.983 1.37959C63.027 1.37959 63.027 1.37959 63.071 1.42409C63.1151 1.42409 63.1151 1.46859 63.1151 1.5131C63.1151 1.5576 63.1151 1.5576 63.071 1.6021C63.027 1.6466 62.9389 1.6466 62.8949 1.6021C62.8508 1.6021 62.8508 1.5576 62.8508 1.5131C62.8508 1.46859 62.8508 1.46859 62.8949 1.42409C62.8949 1.37959 62.9389 1.37959 62.983 1.37959ZM64.1281 2.13613H63.8638L63.3794 2.84817V3.11519H63.8198V3.3377H64.0841V3.11519H64.1721V2.84817H64.0841V2.13613H64.1281ZM63.7317 2.84817L63.8638 2.67016V2.84817H63.7317ZM64.5685 2.89267L64.3924 3.24869L64.6566 3.3822L64.9649 2.80367C65.009 2.71466 65.009 2.67016 65.053 2.62566C65.053 2.58116 65.053 2.53665 65.053 2.49215C65.053 2.40315 65.009 2.31414 64.9649 2.22514C64.8769 2.13613 64.7888 2.09163 64.7007 2.09163C64.6126 2.09163 64.5245 2.13613 64.4364 2.18063C64.3483 2.26964 64.3483 2.35864 64.3483 2.44765C64.3483 2.53665 64.3924 2.62566 64.4364 2.71466C64.4364 2.84817 64.4805 2.89267 64.5685 2.89267ZM64.5245 2.53665C64.5245 2.49215 64.5245 2.49215 64.5685 2.44765L64.6126 2.40315C64.6566 2.40315 64.6566 2.40315 64.6566 2.44765C64.6566 2.44765 64.7007 2.49215 64.7007 2.53665C64.7007 2.58116 64.7007 2.58116 64.6566 2.62566C64.6126 2.67016 64.5685 2.67016 64.5245 2.62566C64.5685 2.58116 64.5245 2.53665 64.5245 2.53665ZM70.1181 14.1073C70.074 14.0628 69.986 14.0628 69.8979 14.0628C69.7657 14.0628 69.6777 14.1073 69.5896 14.2408C69.5455 14.3298 69.5015 14.4633 69.5015 14.6858C69.5015 14.8193 69.5015 14.9529 69.5455 15.0419C69.5896 15.1309 69.6336 15.1754 69.6777 15.2199C69.7217 15.2644 69.8098 15.2644 69.8979 15.2644C69.986 15.2644 70.074 15.2644 70.1181 15.2199C70.1621 15.1754 70.2062 15.1309 70.2502 15.0419C70.2943 14.9529 70.2943 14.8638 70.2943 14.6858C70.2943 14.5523 70.2943 14.4188 70.2502 14.3298C70.2062 14.1963 70.1621 14.1518 70.1181 14.1073ZM70.03 14.6413C70.03 14.7748 70.03 14.8638 69.986 14.9083C69.9419 14.9529 69.9419 14.9529 69.8979 14.9529C69.8538 14.9529 69.8538 14.9529 69.8098 14.9083C69.8098 14.8638 69.7657 14.8193 69.7657 14.6413C69.7657 14.5523 69.7657 14.4633 69.7657 14.4188C69.7657 14.3743 69.8098 14.3298 69.8098 14.3298L69.8538 14.2853C69.8538 14.2853 69.8979 14.2853 69.9419 14.3298C69.986 14.4188 70.03 14.4633 70.03 14.6413ZM68.7968 16.4214H69.1051V16.6884H68.2682V16.5104L68.6206 16.1544C68.7087 16.0654 68.7527 16.0209 68.7527 15.9764C68.7968 15.9319 68.7968 15.8874 68.7968 15.8429C68.7968 15.7984 68.7968 15.7984 68.7527 15.7539C68.7087 15.7094 68.6646 15.7094 68.6206 15.7539C68.6206 15.7984 68.5766 15.7984 68.5766 15.8429V15.8874H68.3123V15.8429C68.3123 15.7094 68.3563 15.6204 68.4444 15.5314C68.5325 15.4424 68.6206 15.3979 68.7087 15.3979C68.7968 15.3979 68.8408 15.3979 68.8849 15.4424C68.9289 15.4869 68.9729 15.5314 69.017 15.5759C69.061 15.6204 69.061 15.7094 69.061 15.7539C69.061 15.8429 69.061 15.8874 69.017 15.9764C68.9729 16.0654 68.9289 16.1544 68.7968 16.2434V16.4214ZM69.1491 14.9529H69.4574V15.2199H68.6206V15.0419L68.9729 14.6858C69.061 14.5968 69.1051 14.5523 69.1051 14.5078C69.1491 14.4633 69.1491 14.4188 69.1491 14.3743C69.1491 14.3298 69.1491 14.3298 69.1051 14.2853C69.061 14.2408 69.017 14.2408 68.9729 14.2853C68.9729 14.3298 68.9289 14.3298 68.9289 14.3743V14.4188H68.6646V14.3743C68.6646 14.2408 68.7087 14.1518 68.7968 14.0628C68.8849 13.9738 68.9729 13.9293 69.061 13.9293C69.1491 13.9293 69.1932 13.9293 69.2372 13.9738C69.2813 14.0183 69.3253 14.0628 69.3693 14.1073C69.4134 14.1518 69.4134 14.2408 69.4134 14.2853C69.4134 14.3743 69.4134 14.4188 69.3693 14.5078C69.3253 14.5968 69.2813 14.6858 69.1491 14.7748V14.9529ZM67.1671 15.9764L67.3433 15.6204L67.079 15.4869L66.7707 16.0654C66.7267 16.1544 66.7267 16.1989 66.6827 16.2434C66.6827 16.2879 66.6827 16.3324 66.6827 16.3769C66.6827 16.4659 66.7267 16.5549 66.7707 16.6439C66.8588 16.733 66.9469 16.7775 67.035 16.7775C67.1231 16.7775 67.2112 16.733 67.2993 16.6884C67.3874 16.5994 67.3874 16.5104 67.3874 16.4214C67.3874 16.3324 67.3433 16.2434 67.2993 16.1544C67.2993 16.0209 67.2552 15.9764 67.1671 15.9764ZM67.1671 16.3324C67.1671 16.3769 67.1671 16.3769 67.1231 16.4214C67.0791 16.4659 67.035 16.4659 66.991 16.4214C66.991 16.4214 66.9469 16.3769 66.9469 16.3324C66.9469 16.2879 66.9469 16.2879 66.991 16.2434L67.035 16.1989C67.0791 16.1989 67.0791 16.1989 67.1231 16.2434C67.1671 16.2879 67.1671 16.3324 67.1671 16.3324ZM60.9569 15.5314H61.7497V15.7094L61.2652 16.733L61.001 16.5994L61.3974 15.7984H60.9569V15.5314ZM66.991 2.62566H66.6827V2.58116C66.6827 2.44765 66.7267 2.35864 66.8148 2.26964C66.9029 2.18063 66.991 2.13613 67.079 2.13613C67.1671 2.13613 67.2112 2.13613 67.2552 2.18063C67.2993 2.22514 67.3433 2.26964 67.3874 2.31414C67.4314 2.35864 67.4314 2.44765 67.4314 2.49215C67.4314 2.58116 67.4314 2.62566 67.3874 2.71466C67.3433 2.80367 67.2993 2.89267 67.1671 2.98168L67.1231 3.02618H67.4314V3.2932H66.6827V3.15969L67.035 2.80367C67.1231 2.71466 67.1671 2.67016 67.1671 2.62566C67.2112 2.58116 67.2112 2.53665 67.2112 2.49215C67.2112 2.44765 67.2112 2.44765 67.1671 2.40315C67.1231 2.35864 67.0791 2.35864 67.035 2.40315C66.991 2.49215 66.991 2.53665 66.991 2.62566ZM71.4835 11.6152C71.4394 11.5707 71.3513 11.5262 71.3073 11.5262L71.4835 11.1701L71.2192 11.0366L70.9109 11.6152C70.8668 11.7042 70.8668 11.7487 70.8228 11.7932C70.8228 11.8377 70.8228 11.8822 70.8228 11.9267C70.8228 12.0157 70.8668 12.1047 70.9109 12.1937C70.999 12.2827 71.0871 12.3272 71.1751 12.3272C71.2632 12.3272 71.3513 12.2827 71.4394 12.2382C71.5275 12.1492 71.5275 12.0602 71.5275 11.9712C71.5715 11.7932 71.5275 11.7042 71.4835 11.6152ZM71.3073 11.8822C71.3073 11.9267 71.3073 11.9267 71.2632 11.9712C71.2192 12.0157 71.1751 12.0157 71.1311 11.9712C71.1311 11.9712 71.0871 11.9267 71.0871 11.8822C71.0871 11.8377 71.0871 11.8377 71.1311 11.7932L71.1751 11.7487C71.2192 11.7487 71.2192 11.7487 71.2632 11.7932C71.2632 11.8377 71.3073 11.8377 71.3073 11.8822ZM70.03 13.4398H70.3383V13.7068H69.5015V13.5288L69.8538 13.1728C69.9419 13.0837 69.986 13.0392 69.986 12.9947C70.03 12.9502 70.03 12.9057 70.03 12.8612C70.03 12.8167 70.03 12.8167 69.986 12.7722C69.9419 12.7277 69.8979 12.7277 69.8538 12.7722C69.8538 12.8167 69.8098 12.8167 69.8098 12.8612V12.9057H69.5455V12.8612C69.5455 12.7277 69.5896 12.6387 69.6777 12.5497C69.7657 12.4607 69.8538 12.4162 69.9419 12.4162C70.03 12.4162 70.074 12.4162 70.1181 12.4607C70.1621 12.5052 70.2062 12.5497 70.2502 12.5942C70.2943 12.6387 70.2943 12.7277 70.2943 12.7722C70.2943 12.8612 70.2943 12.9057 70.2502 12.9947C70.2062 13.0837 70.1621 13.1728 70.03 13.2618V13.4398ZM70.999 12.5942C70.9549 12.5497 70.8668 12.5497 70.7788 12.5497C70.6466 12.5497 70.5585 12.5942 70.4704 12.7277C70.4264 12.8167 70.3824 12.9502 70.3824 13.1728C70.3824 13.3063 70.3824 13.4398 70.4264 13.5288C70.4704 13.6178 70.5145 13.6623 70.5585 13.7068C70.6026 13.7513 70.6907 13.7513 70.7788 13.7513C70.8668 13.7513 70.9549 13.7513 70.999 13.7068C71.043 13.6623 71.0871 13.6178 71.1311 13.5288C71.1751 13.4398 71.1751 13.3508 71.1751 13.1728C71.1751 13.0392 71.1751 12.9057 71.1311 12.8167C71.1311 12.7277 71.0871 12.6387 70.999 12.5942ZM70.9109 13.1728C70.9109 13.3063 70.9109 13.3953 70.8668 13.4398C70.8228 13.4843 70.8228 13.4843 70.7788 13.4843C70.7347 13.4843 70.7347 13.4843 70.6907 13.4398C70.6907 13.3953 70.6466 13.3508 70.6466 13.1728C70.6466 13.0837 70.6466 12.9947 70.6466 12.9502C70.6466 12.9057 70.6907 12.8612 70.6907 12.8612L70.7347 12.8167C70.7347 12.8167 70.7787 12.8167 70.8228 12.8612C70.9109 12.9057 70.9109 12.9947 70.9109 13.1728ZM68.1802 16.0209C68.2682 16.1099 68.2682 16.1989 68.2682 16.2879C68.2682 16.4214 68.2242 16.5104 68.1361 16.5994C68.048 16.6884 67.9599 16.733 67.8278 16.733C67.7397 16.733 67.6516 16.6884 67.5635 16.6439C67.4754 16.5994 67.4314 16.5104 67.4314 16.4214V16.3769H67.7397V16.4214C67.7397 16.4659 67.7838 16.4659 67.7838 16.4659C67.8278 16.5104 67.8718 16.5104 67.9159 16.4659C67.9599 16.4214 67.9599 16.4214 67.9599 16.3769C67.9599 16.3324 67.9599 16.2879 67.9159 16.2879C67.8718 16.2434 67.8278 16.2434 67.7838 16.2879L67.7397 16.3324L67.5195 16.2879L67.6516 15.6204H68.2242V15.8874H67.8718V15.9764C68.048 15.9319 68.1361 15.9764 68.1802 16.0209ZM62.2342 14.5078L62.4104 14.1518L62.1461 14.0183L61.8378 14.5968C61.7938 14.6858 61.7938 14.7303 61.7497 14.7748C61.7497 14.8193 61.7497 14.8638 61.7497 14.9083C61.7497 14.9974 61.7938 15.0864 61.8378 15.1754C61.9259 15.2644 62.014 15.3089 62.1021 15.3089C62.1902 15.3089 62.2783 15.2644 62.3663 15.2199C62.4544 15.1309 62.4544 15.0419 62.4544 14.9529C62.4544 14.8638 62.4104 14.7748 62.3663 14.6858C62.3663 14.5523 62.2782 14.5078 62.2342 14.5078ZM62.2342 14.8638C62.2342 14.9083 62.2342 14.9083 62.1902 14.9529C62.1461 14.9974 62.1021 14.9974 62.058 14.9529C62.058 14.9529 62.014 14.9083 62.014 14.8638C62.014 14.8193 62.014 14.8193 62.058 14.7748L62.1021 14.7303C62.1461 14.7303 62.1461 14.7303 62.1902 14.7748C62.2342 14.8193 62.2342 14.8193 62.2342 14.8638ZM63.2472 16.0654C63.2913 16.0209 63.2913 16.0209 63.2913 15.9764C63.2913 15.9319 63.3353 15.8874 63.3353 15.8429C63.3353 15.7984 63.3353 15.7094 63.2913 15.6649C63.2472 15.6204 63.2032 15.5759 63.1591 15.5314C63.071 15.4869 62.8949 15.4869 62.8068 15.5314C62.7627 15.5759 62.7187 15.6204 62.6746 15.6649C62.6306 15.7094 62.6306 15.7539 62.6306 15.8429C62.6306 15.8874 62.6306 15.9319 62.6746 15.9764C62.6746 16.0209 62.7187 16.0209 62.7187 16.0654C62.6746 16.1099 62.6746 16.1544 62.6306 16.1544C62.5866 16.1989 62.5866 16.2879 62.5866 16.3324C62.5866 16.4214 62.5866 16.4659 62.6306 16.5104C62.6746 16.5549 62.7187 16.5994 62.7627 16.6439C62.8068 16.6884 62.8949 16.6884 62.983 16.6884C63.071 16.6884 63.1591 16.6884 63.2032 16.6439C63.2472 16.5994 63.2913 16.5549 63.3353 16.5104C63.3793 16.4659 63.3794 16.3769 63.3794 16.3324C63.3794 16.2879 63.3793 16.1989 63.3353 16.1544C63.3353 16.1544 63.2913 16.1099 63.2472 16.0654ZM63.027 15.9319C62.983 15.9764 62.9389 15.9764 62.9389 15.9319V15.8874C62.9389 15.8429 62.9389 15.8429 62.9389 15.8429H62.983C63.027 15.8429 63.027 15.8429 63.027 15.8429V15.8874V15.9319ZM62.8949 16.2434C62.9389 16.1989 62.9389 16.1989 62.983 16.1989C63.027 16.1989 63.027 16.1989 63.071 16.2434C63.1151 16.2434 63.1151 16.2879 63.1151 16.3324C63.1151 16.3769 63.1151 16.3769 63.071 16.4214C63.027 16.4659 62.9389 16.4659 62.8949 16.4214C62.8508 16.4214 62.8508 16.3769 62.8508 16.3324C62.8508 16.2879 62.8508 16.2879 62.8949 16.2434ZM62.2342 15.9764L62.4104 15.6204L62.1461 15.4869L61.8378 16.0654C61.7938 16.1544 61.7938 16.1989 61.7497 16.2434C61.7497 16.2879 61.7497 16.3324 61.7497 16.3769C61.7497 16.4659 61.7938 16.5549 61.8378 16.6439C61.9259 16.733 62.014 16.7775 62.1021 16.7775C62.1902 16.7775 62.2783 16.733 62.3663 16.6884C62.4544 16.5994 62.4544 16.5104 62.4544 16.4214C62.4544 16.3324 62.4104 16.2434 62.3663 16.1544C62.3663 16.0209 62.2782 15.9764 62.2342 15.9764ZM62.2342 16.3324C62.2342 16.3769 62.2342 16.3769 62.1902 16.4214C62.1461 16.4659 62.1021 16.4659 62.058 16.4214C62.058 16.4214 62.014 16.3769 62.014 16.3324C62.014 16.2879 62.014 16.2879 62.058 16.2434L62.1021 16.1989C62.1461 16.1989 62.1461 16.1989 62.1902 16.2434C62.2342 16.2879 62.2342 16.3324 62.2342 16.3324ZM63.8638 15.9764L64.04 15.6204L63.7757 15.4869L63.4674 16.0654C63.4234 16.1544 63.4234 16.1989 63.3794 16.2434C63.3794 16.2879 63.3794 16.3324 63.3794 16.3769C63.3794 16.4659 63.4234 16.5549 63.4674 16.6439C63.5555 16.733 63.6436 16.7775 63.7317 16.7775C63.8198 16.7775 63.9079 16.733 63.996 16.6884C64.0841 16.5994 64.0841 16.5104 64.0841 16.4214C64.0841 16.3324 64.04 16.2434 63.996 16.1544C63.996 16.0209 63.9519 15.9764 63.8638 15.9764ZM63.8638 16.3324C63.8638 16.3769 63.8638 16.3769 63.8198 16.4214C63.7757 16.4659 63.7317 16.4659 63.6877 16.4214C63.6877 16.4214 63.6436 16.3769 63.6436 16.3324C63.6436 16.2879 63.6436 16.2879 63.6877 16.2434L63.7317 16.1989C63.7758 16.1989 63.7757 16.1989 63.8198 16.2434C63.8638 16.2879 63.8638 16.3324 63.8638 16.3324ZM65.8458 15.7094L65.3613 16.733L65.0971 16.5994L65.4935 15.7984H65.0971V15.5314H65.8899L65.8458 15.7094ZM66.5946 15.5314H66.3303L65.8458 16.2434V16.5104H66.2863V16.733H66.5505V16.5104H66.6386V16.2434H66.5505V15.5314H66.5946ZM66.1982 16.1989L66.3303 16.0209V16.1989H66.1982ZM64.6126 15.5314C64.5245 15.5314 64.4364 15.5759 64.3483 15.6204C64.2602 15.7094 64.2602 15.7984 64.2602 15.8874C64.2602 15.9764 64.3043 16.0654 64.3483 16.1544C64.3924 16.1989 64.4805 16.2434 64.5245 16.2434L64.3483 16.5994L64.6126 16.733L64.9209 16.1544C64.9649 16.0654 64.9649 16.0209 65.009 15.9764C65.009 15.9319 65.009 15.8874 65.009 15.8429C65.009 15.7539 64.9649 15.6649 64.9209 15.5759C64.8328 15.5759 64.7447 15.5314 64.6126 15.5314ZM64.7447 15.8874C64.7447 15.9319 64.7447 15.9319 64.7007 15.9764C64.6566 16.0209 64.6126 16.0209 64.5685 15.9764C64.5685 15.9764 64.5245 15.9319 64.5245 15.8874C64.5245 15.8429 64.5245 15.8429 64.5685 15.7984L64.6126 15.7539C64.6566 15.7539 64.6566 15.7539 64.6566 15.7984C64.7007 15.8429 64.7447 15.8874 64.7447 15.8874ZM69.6777 8.94501L69.6336 8.98952H69.9419V9.25653H69.1051V9.07852L69.4574 8.7225C69.5455 8.6335 69.5896 8.58899 69.5896 8.54449C69.6336 8.49999 69.6336 8.45549 69.6336 8.41098C69.6336 8.36648 69.6336 8.36648 69.5896 8.32198C69.5455 8.27748 69.5015 8.27748 69.4574 8.32198C69.4574 8.36648 69.4134 8.36648 69.4134 8.41098V8.45549H69.1491V8.41098C69.1491 8.27748 69.1932 8.18847 69.2813 8.09947C69.3693 8.01046 69.4574 7.96596 69.5455 7.96596C69.6336 7.96596 69.6776 7.96596 69.7217 8.01046C69.7657 8.05496 69.8098 8.09947 69.8538 8.14397C69.8979 8.18847 69.8979 8.27748 69.8979 8.32198C69.8979 8.41098 69.8979 8.45549 69.8538 8.54449C69.8538 8.767 69.8098 8.85601 69.6777 8.94501ZM68.7527 6.76439C68.7087 6.8534 68.6646 6.9869 68.6646 7.20942C68.6646 7.34292 68.6646 7.47643 68.7087 7.56544C68.7527 7.65444 68.7968 7.69894 68.8408 7.74345C68.8849 7.78795 68.9729 7.78795 69.061 7.78795C69.1491 7.78795 69.2372 7.78795 69.2813 7.74345C69.3253 7.69894 69.3693 7.65444 69.4134 7.56544C69.4574 7.47643 69.4574 7.38743 69.4574 7.20942C69.4574 7.07591 69.4574 6.9424 69.4134 6.8534C69.3693 6.76439 69.3253 6.71989 69.2813 6.67539C69.2372 6.63088 69.1491 6.63088 69.061 6.63088C68.9289 6.58638 68.8408 6.67539 68.7527 6.76439ZM69.1491 6.9424C69.1491 6.9869 69.1932 7.03141 69.1932 7.20942C69.1932 7.34292 69.1932 7.43193 69.1491 7.47643C69.1051 7.52093 69.1051 7.52093 69.061 7.52093C69.017 7.52093 69.017 7.52093 68.9729 7.47643C68.9729 7.43193 68.9289 7.38743 68.9289 7.20942C68.9289 7.12041 68.9289 7.03141 68.9289 6.9869C68.9289 6.9424 68.9729 6.8979 68.9729 6.8979L69.017 6.8534C69.1051 6.8979 69.1051 6.8979 69.1491 6.9424ZM67.079 1.86912C67.1671 1.86912 67.2552 1.82461 67.3433 1.78011C67.4314 1.69111 67.4314 1.6021 67.4314 1.5131C67.4314 1.42409 67.3874 1.33509 67.3433 1.24608C67.2993 1.20158 67.2112 1.15708 67.1671 1.15708L67.3433 0.801057L67.079 0.667549L66.7707 1.24608C66.7267 1.33509 66.7267 1.37959 66.6827 1.42409C66.6827 1.46859 66.6827 1.5131 66.6827 1.5576C66.6827 1.6466 66.7267 1.73561 66.7707 1.82461C66.9029 1.82461 66.991 1.86912 67.079 1.86912ZM66.991 1.46859C66.991 1.42409 66.991 1.42409 67.035 1.37959L67.079 1.33509C67.1231 1.33509 67.1231 1.33509 67.1671 1.37959C67.1671 1.37959 67.2112 1.42409 67.2112 1.46859C67.2112 1.5131 67.2112 1.5131 67.1671 1.5576C67.1231 1.6021 67.0791 1.6021 67.035 1.5576C66.991 1.5576 66.991 1.5131 66.991 1.46859ZM67.9159 8.05496L67.6076 8.6335C67.5635 8.7225 67.5635 8.767 67.5195 8.81151C67.5195 8.85601 67.5195 8.90051 67.5195 8.94501C67.5195 9.03402 67.5635 9.12302 67.6076 9.21203C67.6957 9.30103 67.7838 9.34554 67.8718 9.34554C67.9599 9.34554 68.048 9.30103 68.1361 9.25653C68.2242 9.16753 68.2242 9.07852 68.2242 8.98952C68.2242 8.90051 68.1802 8.81151 68.1361 8.7225C68.0921 8.678 68.004 8.6335 67.9599 8.6335L68.1361 8.27748L67.9159 8.05496ZM68.004 8.90051C68.004 8.94501 68.004 8.94501 67.9599 8.98952C67.9159 9.03402 67.8718 9.03402 67.8278 8.98952C67.8278 8.98952 67.7838 8.94501 67.7838 8.90051C67.7838 8.85601 67.7838 8.85601 67.8278 8.81151L67.8718 8.767C67.9159 8.767 67.9159 8.767 67.9599 8.81151C68.004 8.85601 68.004 8.90051 68.004 8.90051ZM69.5455 5.1178L69.2372 5.69633C69.1932 5.78534 69.1932 5.82984 69.1491 5.87434C69.1491 5.91884 69.1491 5.96335 69.1491 6.00785C69.1491 6.09685 69.1932 6.18586 69.2372 6.27486C69.3253 6.36387 69.4134 6.40837 69.5015 6.40837C69.5896 6.40837 69.6776 6.36387 69.7657 6.31937C69.8538 6.23036 69.8538 6.14136 69.8538 6.05235C69.8538 5.96335 69.8098 5.87434 69.7657 5.78534C69.7217 5.74083 69.6336 5.69633 69.5896 5.69633L69.7657 5.34031L69.5455 5.1178ZM69.6336 5.96335C69.6336 6.00785 69.6336 6.00785 69.5896 6.05235C69.5455 6.09685 69.5015 6.09685 69.4574 6.05235C69.4574 6.05235 69.4134 6.00785 69.4134 5.96335C69.4134 5.91884 69.4134 5.91884 69.4574 5.87434L69.5015 5.82984C69.5455 5.82984 69.5455 5.82984 69.5896 5.87434C69.6336 5.87434 69.6336 5.91884 69.6336 5.96335ZM68.3563 7.47643L68.3123 7.52093H68.6206V7.78795H67.7838V7.60994L68.1361 7.25392C68.2242 7.16491 68.2682 7.12041 68.2682 7.07591C68.3123 7.03141 68.3123 6.9869 68.3123 6.9424C68.3123 6.8979 68.3123 6.8979 68.2682 6.8534C68.2242 6.80889 68.1802 6.80889 68.1361 6.8534C68.1361 6.8979 68.0921 6.8979 68.0921 6.9424V6.9869H67.8278V6.9424C67.8278 6.80889 67.8718 6.71989 67.9599 6.63088C68.048 6.54188 68.1361 6.49738 68.2242 6.49738C68.3123 6.49738 68.3563 6.49738 68.4004 6.54188C68.4444 6.58638 68.4885 6.63088 68.5325 6.67539C68.5765 6.71989 68.5766 6.80889 68.5766 6.8534C68.5766 6.9424 68.5765 6.9869 68.5325 7.07591C68.5325 7.25392 68.4444 7.34292 68.3563 7.47643ZM67.1231 9.96857C67.1231 10.0576 67.1671 10.1466 67.2112 10.2356C67.2552 10.2801 67.3433 10.3246 67.3874 10.3246L67.2112 10.6806L67.4754 10.8141L67.7838 10.2356C67.8278 10.1466 67.8278 10.1021 67.8718 10.0576C67.8718 10.0131 67.8718 9.96857 67.8718 9.92407C67.8718 9.83506 67.8278 9.74606 67.7838 9.65705C67.6957 9.56805 67.6076 9.52355 67.5195 9.52355C67.4314 9.52355 67.3433 9.56805 67.2552 9.61255C67.1671 9.74606 67.1231 9.83506 67.1231 9.96857ZM67.4314 9.96857C67.4314 9.92407 67.4314 9.92407 67.4754 9.87957L67.5195 9.83506C67.5635 9.83506 67.5635 9.83506 67.5635 9.87957C67.5635 9.87957 67.6076 9.92407 67.6076 9.96857C67.6076 10.0131 67.6076 10.0131 67.5635 10.0576C67.5195 10.1021 67.4754 10.1021 67.4314 10.0576C67.4314 10.0131 67.4314 9.96857 67.4314 9.96857ZM68.3123 10.7696C68.2242 10.7696 68.1361 10.7251 68.048 10.6806C67.9599 10.6361 67.9159 10.5471 67.9159 10.4581V10.4136H68.2242V10.4581C68.2242 10.5026 68.2682 10.5026 68.2682 10.5026C68.3123 10.5471 68.3563 10.5471 68.4004 10.5026C68.4444 10.4581 68.4444 10.4581 68.4444 10.4136C68.4444 10.3691 68.4444 10.3246 68.4004 10.3246C68.3563 10.2801 68.3123 10.2801 68.2682 10.3246L68.2242 10.3691L68.004 10.3246L68.1361 9.65705H68.7087V9.92407H68.3563V10.0131C68.4444 10.0131 68.5765 10.0576 68.6206 10.1466C68.7087 10.2356 68.7087 10.3246 68.7087 10.4136C68.7087 10.5471 68.6646 10.6361 68.5766 10.7251C68.5325 10.7251 68.4004 10.7696 68.3123 10.7696ZM68.9729 5.1623C68.9289 5.1178 68.8408 5.1178 68.7527 5.1178C68.6206 5.1178 68.5325 5.1623 68.4444 5.29581C68.4004 5.38481 68.3563 5.51832 68.3563 5.74083C68.3563 5.87434 68.3563 6.00785 68.4004 6.09685C68.4444 6.18586 68.4885 6.23036 68.5325 6.27486C68.5765 6.31937 68.6646 6.31937 68.7527 6.31937C68.8408 6.31937 68.9289 6.31937 68.9729 6.27486C69.017 6.23036 69.061 6.18586 69.1051 6.09685C69.1491 6.00785 69.1491 5.91884 69.1491 5.74083C69.1491 5.60733 69.1491 5.47382 69.1051 5.38481C69.061 5.29581 69.017 5.2068 68.9729 5.1623ZM68.8849 5.74083C68.8849 5.87434 68.8849 5.96335 68.8408 6.00785C68.7968 6.05235 68.7968 6.05235 68.7527 6.05235C68.7087 6.05235 68.7087 6.05235 68.6646 6.00785C68.6646 5.96335 68.6206 5.91884 68.6206 5.74083C68.6206 5.65183 68.6206 5.56282 68.6206 5.51832C68.6206 5.47382 68.6646 5.42932 68.6646 5.42932L68.7087 5.38481C68.7087 5.38481 68.7527 5.38481 68.7968 5.42932C68.8408 5.47382 68.8849 5.56282 68.8849 5.74083ZM68.1802 12.1492C68.2682 12.0602 68.2682 11.9712 68.2682 11.8822C68.2682 11.7932 68.2242 11.7042 68.1802 11.6152C68.1361 11.5707 68.048 11.5262 68.004 11.5262L68.1802 11.1701L67.9159 11.0366L67.6076 11.6152C67.5635 11.7042 67.5635 11.7487 67.5195 11.7932C67.5195 11.8377 67.5195 11.8822 67.5195 11.9267C67.5195 12.0157 67.5635 12.1047 67.6076 12.1937C67.6957 12.2827 67.7838 12.3272 67.8718 12.3272C68.004 12.2827 68.0921 12.2382 68.1802 12.1492ZM67.8278 11.8822C67.8278 11.8377 67.8278 11.8377 67.8718 11.7932L67.9159 11.7487C67.9599 11.7487 67.9599 11.7487 68.004 11.7932C68.004 11.7932 68.048 11.8377 68.048 11.8822C68.048 11.9267 68.048 11.9267 68.004 11.9712C67.9599 12.0157 67.9159 12.0157 67.8718 11.9712C67.8278 11.9267 67.8278 11.9267 67.8278 11.8822ZM70.1181 10.4136L70.074 10.4581H70.3824V10.7251H69.5455V10.5471L69.8979 10.1911C69.986 10.1021 70.03 10.0576 70.03 10.0131C70.074 9.96857 70.074 9.92407 70.074 9.87957C70.074 9.83506 70.074 9.83506 70.03 9.79056C69.986 9.74606 69.9419 9.74606 69.8979 9.79056C69.8979 9.83506 69.8538 9.83506 69.8538 9.87957V9.92407H69.5896V9.87957C69.5896 9.74606 69.6336 9.65705 69.7217 9.56805C69.8098 9.47904 69.8979 9.43454 69.986 9.43454C70.074 9.43454 70.1181 9.43454 70.1621 9.47904C70.2062 9.52355 70.2502 9.56805 70.2943 9.61255C70.3383 9.65705 70.3383 9.74606 70.3383 9.79056C70.3383 9.87957 70.3383 9.92407 70.2943 10.0131C70.2502 10.2356 70.2062 10.3246 70.1181 10.4136ZM67.9599 3.64922L67.4754 4.36126V4.62827H67.9159V4.85078H68.1802V4.62827H68.2682V4.36126H68.1802V3.69372H67.9599V3.64922ZM67.8278 4.31675L67.9599 4.13874V4.31675H67.8278ZM69.6336 4.53927C69.6776 4.49476 69.6777 4.49476 69.6777 4.45026C69.6777 4.40576 69.6776 4.36126 69.6336 4.36126C69.5896 4.31675 69.5455 4.31675 69.5015 4.36126L69.4574 4.40576L69.2372 4.36126L69.3693 3.69372H69.9419V3.96073H69.5896V4.04974C69.6777 4.04974 69.8098 4.09424 69.8538 4.18325C69.9419 4.27225 69.9419 4.36126 69.9419 4.45026C69.9419 4.58377 69.8979 4.67277 69.8098 4.76178C69.7217 4.85078 69.6336 4.89529 69.5015 4.89529C69.4134 4.89529 69.3253 4.85078 69.2372 4.80628C69.1491 4.76178 69.1051 4.67277 69.1051 4.58377V4.53927H69.4134V4.58377C69.4134 4.62827 69.4574 4.62827 69.4574 4.62827C69.5455 4.58377 69.5896 4.58377 69.6336 4.53927ZM69.4574 10.7696V10.5471H69.5455V10.2801H69.4574V9.61255H69.1932L68.7087 10.3246V10.5916H69.1491V10.8141H69.4574V10.7696ZM69.061 10.2801L69.1932 10.1021V10.2801H69.061ZM68.7527 12.2827L69.061 11.7042C69.1051 11.6152 69.1051 11.5707 69.1491 11.5262C69.1491 11.4817 69.1491 11.4372 69.1491 11.3927C69.1491 11.3036 69.1051 11.2146 69.061 11.1256C68.9729 11.0366 68.8849 10.9921 68.7968 10.9921C68.7087 10.9921 68.6206 11.0366 68.5325 11.0811C68.4444 11.1701 68.4444 11.2591 68.4444 11.3481C68.4444 11.4372 68.4885 11.5262 68.5325 11.6152C68.5765 11.6597 68.6646 11.7042 68.7087 11.7042L68.5325 12.0602L68.7527 12.2827ZM68.6646 11.4372C68.6646 11.3927 68.6646 11.3927 68.7087 11.3481L68.7527 11.3036C68.7968 11.3036 68.7968 11.3036 68.7968 11.3481C68.7968 11.3481 68.8408 11.3927 68.8408 11.4372C68.8408 11.4817 68.8408 11.4817 68.7968 11.5262C68.7527 11.5707 68.7087 11.5707 68.6646 11.5262C68.6646 11.4817 68.6646 11.4817 68.6646 11.4372ZM67.4754 7.07591C67.5195 7.03141 67.5195 6.9869 67.5195 6.9424C67.5195 6.8979 67.5195 6.8979 67.4754 6.8534C67.4314 6.80889 67.3874 6.80889 67.3433 6.8534C67.3433 6.8979 67.2993 6.8979 67.2993 6.9424V6.9869H67.035V6.9424C67.035 6.80889 67.0791 6.71989 67.1671 6.63088C67.2552 6.54188 67.3433 6.49738 67.4314 6.49738C67.5195 6.49738 67.5635 6.49738 67.6076 6.54188C67.6516 6.58638 67.6957 6.63088 67.7397 6.67539C67.7838 6.71989 67.7838 6.80889 67.7838 6.8534C67.7838 6.9424 67.7838 6.9869 67.7397 7.07591C67.6957 7.16491 67.6516 7.25392 67.5195 7.34292L67.4754 7.38743H67.7838V7.65444H66.9469V7.60994L67.2993 7.25392C67.4314 7.20942 67.4754 7.12041 67.4754 7.07591ZM67.9599 5.60733C68.004 5.56282 68.004 5.51832 68.004 5.47382C68.004 5.42932 68.004 5.42932 67.9599 5.38481C67.9159 5.34031 67.8718 5.34031 67.8278 5.38481C67.8278 5.42932 67.7838 5.42932 67.7838 5.47382V5.51832H67.5195V5.47382C67.5195 5.34031 67.5635 5.25131 67.6516 5.1623C67.7397 5.0733 67.8278 5.02879 67.9159 5.02879C68.004 5.02879 68.048 5.02879 68.0921 5.0733C68.1361 5.1178 68.1802 5.1623 68.2242 5.2068C68.2682 5.25131 68.2682 5.34031 68.2682 5.38481C68.2682 5.47382 68.2682 5.51832 68.2242 5.60733C68.1802 5.69633 68.1361 5.78534 68.004 5.87434L67.9599 5.91884H68.2682V6.18586H67.4314V6.00785L67.7838 5.65183C67.9159 5.69633 67.9599 5.65183 67.9599 5.60733ZM67.5195 13.7513L67.8278 13.1728C67.8718 13.0837 67.8718 13.0392 67.9159 12.9947C67.9159 12.9502 67.9159 12.9057 67.9159 12.8612C67.9159 12.7722 67.8718 12.6832 67.8278 12.5942C67.7397 12.5052 67.6516 12.4607 67.5635 12.4607C67.4754 12.4607 67.3874 12.5052 67.2993 12.5497C67.2112 12.6387 67.2112 12.7277 67.2112 12.8167C67.2112 12.9057 67.2552 12.9947 67.2993 13.0837C67.3433 13.1282 67.4314 13.1728 67.4754 13.1728L67.2993 13.5288L67.5195 13.7513ZM67.4314 12.9057C67.4314 12.8612 67.4314 12.8612 67.4754 12.8167L67.5195 12.7722C67.5635 12.7722 67.5635 12.7722 67.5635 12.8167C67.5635 12.8167 67.6076 12.8612 67.6076 12.9057C67.6076 12.9502 67.6076 12.9502 67.5635 12.9947C67.5195 13.0392 67.4754 13.0392 67.4314 12.9947C67.4314 12.9947 67.4314 12.9502 67.4314 12.9057ZM68.5325 8.09947H69.1051V8.36648H68.7527V8.45549C68.8408 8.45549 68.9729 8.49999 69.017 8.58899C69.1051 8.678 69.1051 8.767 69.1051 8.85601C69.1051 8.98952 69.061 9.07852 68.9729 9.16753C68.8849 9.25653 68.7968 9.30103 68.6646 9.30103C68.5765 9.30103 68.4885 9.25653 68.4004 9.21203C68.3123 9.16753 68.2682 9.07852 68.2682 8.98952V8.94501H68.5766V8.98952C68.5766 9.03402 68.6206 9.03402 68.6206 9.03402C68.6646 9.07852 68.7087 9.07852 68.7527 9.03402C68.7968 8.98952 68.7968 8.98952 68.7968 8.94501C68.7968 8.90051 68.7968 8.85601 68.7527 8.85601C68.7087 8.81151 68.6646 8.81151 68.6206 8.85601L68.5766 8.90051L68.3563 8.85601L68.5325 8.09947ZM69.6336 2.44765H69.2372V2.18063H70.03V2.35864L69.5455 3.3822L69.2813 3.24869L69.6336 2.44765ZM68.7527 13.3508V13.3063H69.017V13.3508C69.017 13.3953 69.017 13.4398 69.061 13.4398C69.1051 13.4843 69.1932 13.4843 69.2372 13.4398C69.2813 13.4398 69.2813 13.3953 69.2813 13.3508C69.2813 13.3063 69.2813 13.3063 69.2372 13.2618C69.1932 13.2173 69.1491 13.2173 69.1051 13.2173H69.061V12.9502H69.1051C69.1491 12.9502 69.1932 12.9502 69.1932 12.9502C69.1932 12.9502 69.2372 12.9502 69.2372 12.9057V12.8612V12.8167C69.2372 12.8167 69.2372 12.8167 69.1932 12.8167H69.1491L69.1051 12.8612V12.9057H68.8408V12.8612C68.8408 12.7722 68.8849 12.6832 68.9289 12.6387C69.017 12.5497 69.1051 12.5052 69.1932 12.5052C69.2813 12.5052 69.3693 12.5497 69.4574 12.5942C69.5455 12.6387 69.5455 12.7277 69.5455 12.8167C69.5455 12.8612 69.5455 12.9057 69.5015 12.9502C69.5015 12.9947 69.4574 12.9947 69.4574 12.9947C69.5015 12.9947 69.5455 13.0392 69.5455 13.0837C69.5896 13.1282 69.5896 13.2173 69.5896 13.2618C69.5896 13.3508 69.5455 13.4398 69.4574 13.5288C69.3693 13.6178 69.2813 13.6623 69.1491 13.6623C69.017 13.6623 68.9289 13.6178 68.8849 13.5733C68.8408 13.5288 68.7527 13.4843 68.7527 13.3508ZM69.986 11.2591L69.5015 12.2827L69.2372 12.1492L69.6336 11.3481H69.2372V11.0811H70.03L69.986 11.2591ZM68.7968 2.44765H68.4004V2.18063H69.1932V2.35864L68.7087 3.3822L68.4444 3.24869L68.7968 2.44765ZM70.2943 4.09424H70.03V4.04974C70.03 3.91623 70.074 3.82723 70.1621 3.73822C70.2502 3.64922 70.3383 3.60471 70.4264 3.60471C70.5145 3.60471 70.5585 3.60471 70.6026 3.64922C70.6466 3.69372 70.6907 3.73822 70.7347 3.78272C70.7787 3.82723 70.7788 3.91623 70.7788 3.96073C70.7788 4.04974 70.7787 4.09424 70.7347 4.18325C70.6907 4.27225 70.6466 4.36126 70.5145 4.45026L70.4704 4.49476H70.7788V4.76178H69.9419V4.58377L70.2943 4.22775C70.3824 4.13874 70.4264 4.09424 70.4264 4.04974C70.4704 4.00524 70.4704 3.96073 70.4704 3.91623C70.4704 3.87173 70.4704 3.87173 70.4264 3.82723C70.3824 3.78272 70.3383 3.78272 70.2943 3.82723C70.2943 3.96073 70.2943 4.00524 70.2943 4.09424ZM68.004 1.5576C68.048 1.5131 68.048 1.5131 68.048 1.46859C68.048 1.42409 68.048 1.37959 68.004 1.37959C67.9599 1.33509 67.9159 1.33509 67.8718 1.37959L67.8278 1.42409L67.5635 1.37959L67.6957 0.712052H68.2682V0.979067H67.9159V1.06807C68.004 1.06807 68.1361 1.11257 68.1802 1.20158C68.2682 1.29058 68.2682 1.37959 68.2682 1.46859C68.2682 1.6021 68.2242 1.69111 68.1361 1.78011C68.048 1.86912 67.9599 1.91362 67.8278 1.91362C67.7397 1.91362 67.6516 1.86912 67.5635 1.82461C67.4754 1.78011 67.4314 1.69111 67.4314 1.6021V1.5576H67.7397V1.6021C67.7397 1.6466 67.7838 1.6466 67.7838 1.6466C67.8718 1.6021 67.9599 1.6021 68.004 1.5576ZM68.1361 2.22514C68.0921 2.18063 68.004 2.18063 67.9159 2.18063C67.7838 2.18063 67.6957 2.22514 67.6076 2.35864C67.5635 2.44765 67.5195 2.58116 67.5195 2.80367C67.5195 2.93718 67.5195 3.07068 67.5635 3.15969C67.6076 3.24869 67.6516 3.2932 67.6957 3.3377C67.7397 3.3822 67.8278 3.3822 67.9159 3.3822C68.004 3.3822 68.0921 3.3822 68.1361 3.3377C68.1802 3.2932 68.2242 3.24869 68.2682 3.15969C68.3123 3.07068 68.3123 2.98168 68.3123 2.80367C68.3123 2.67016 68.3123 2.53665 68.2682 2.44765C68.2682 2.31414 68.1802 2.26964 68.1361 2.22514ZM68.048 2.75917C68.048 2.89267 68.048 2.98168 68.004 3.02618C67.9599 3.07068 67.9599 3.07068 67.9159 3.07068C67.8718 3.07068 67.8718 3.07068 67.8278 3.02618C67.8278 2.98168 67.7838 2.93718 67.7838 2.75917C67.7838 2.67016 67.7838 2.58116 67.7838 2.53665C67.7838 2.49215 67.8278 2.44765 67.8278 2.44765L67.8718 2.40315C67.8718 2.40315 67.9159 2.40315 67.9599 2.44765C68.004 2.53665 68.048 2.58116 68.048 2.75917ZM68.7527 4.85078C68.8408 4.85078 68.9289 4.80628 69.017 4.76178C69.1051 4.67277 69.1051 4.58377 69.1051 4.49476C69.1051 4.40576 69.061 4.31675 69.017 4.22775C68.9729 4.18325 68.8849 4.13874 68.8408 4.13874L69.017 3.78272L68.7527 3.64922L68.4444 4.22775C68.4004 4.31675 68.4004 4.36126 68.3563 4.40576C68.3563 4.45026 68.3563 4.49476 68.3563 4.53927C68.3563 4.62827 68.4004 4.71728 68.4444 4.80628C68.5325 4.80628 68.6206 4.85078 68.7527 4.85078ZM68.6206 4.45026C68.6206 4.40576 68.6206 4.40576 68.6646 4.36126L68.7087 4.31675C68.7527 4.31675 68.7527 4.31675 68.7968 4.36126C68.7968 4.36126 68.8408 4.40576 68.8408 4.45026C68.8408 4.49476 68.8408 4.49476 68.7968 4.53927C68.7527 4.58377 68.7087 4.58377 68.6646 4.53927C68.6646 4.49476 68.6206 4.49476 68.6206 4.45026ZM65.7577 15.2199C65.8458 15.2199 65.9339 15.1754 66.022 15.1309C66.1101 15.0419 66.1101 14.9529 66.1101 14.8638C66.1101 14.7748 66.066 14.6858 66.022 14.5968C65.978 14.5523 65.8899 14.5078 65.8458 14.5078L66.022 14.1518L65.7577 14.0183L65.4494 14.5968C65.4054 14.6858 65.4054 14.7303 65.3613 14.7748C65.3613 14.8193 65.3613 14.8638 65.3613 14.9083C65.3613 14.9974 65.4054 15.0864 65.4494 15.1754C65.5816 15.2199 65.6696 15.2199 65.7577 15.2199ZM65.6696 14.8638C65.6696 14.8193 65.6696 14.8193 65.7137 14.7748L65.7577 14.7303C65.8018 14.7303 65.8018 14.7303 65.8458 14.7748C65.8458 14.7748 65.8899 14.8193 65.8899 14.8638C65.8899 14.9083 65.8899 14.9083 65.8458 14.9529C65.8018 14.9974 65.7577 14.9974 65.7137 14.9529C65.6696 14.9083 65.6696 14.9083 65.6696 14.8638ZM65.5816 6.63088H65.9339V7.78795H65.6696V6.8979H65.4054L65.5816 6.63088ZM66.7267 3.64922H67.5195V3.82723L67.035 4.85078L66.7707 4.71728L67.1671 3.91623H66.7707V3.64922H66.7267ZM68.7527 12.7277L68.2682 13.7513L68.004 13.6178L68.4004 12.8167H68.004V12.5497H68.7968L68.7527 12.7277ZM66.2422 6.63088H67.035V6.80889L66.5505 7.83245L66.2863 7.69894L66.6827 6.8979H66.2422V6.63088ZM68.6206 15.2199H67.7838V15.0419L68.1361 14.6858C68.2242 14.5968 68.2682 14.5523 68.2682 14.5078C68.3123 14.4633 68.3123 14.4188 68.3123 14.3743C68.3123 14.3298 68.3123 14.3298 68.2682 14.2853C68.2242 14.2408 68.1802 14.2408 68.1361 14.2853C68.1361 14.3298 68.0921 14.3298 68.0921 14.3743V14.4188H67.8278V14.3743C67.8278 14.2408 67.8718 14.1518 67.9599 14.0628C68.048 13.9738 68.1361 13.9293 68.2242 13.9293C68.3123 13.9293 68.3563 13.9293 68.4004 13.9738C68.4444 14.0183 68.4885 14.0628 68.5325 14.1073C68.5765 14.1518 68.5766 14.2408 68.5766 14.2853C68.5766 14.3743 68.5765 14.4188 68.5325 14.5078C68.4885 14.5968 68.4444 14.6858 68.3123 14.7748L68.2682 14.8193H68.5766V15.2199H68.6206ZM66.1982 9.30103L65.9339 9.16753L66.3303 8.36648H65.9339V8.09947H66.7267V8.27748L66.1982 9.30103ZM67.1231 9.25653H67.3874V9.03402H67.4754V8.767H67.3874V8.09947H67.1231L66.6386 8.81151V9.07852H67.079V9.25653H67.1231ZM67.035 8.767L67.1671 8.58899V8.767H67.035Z" fill="#F2D080"/>
</svg>
