<svg width="655" height="336" viewBox="0 0 655 336" fill="none" xmlns="http://www.w3.org/2000/svg">
<g filter="url(#filter0_iiii)">
<rect width="239.778" height="238.108" rx="51" transform="matrix(0.955568 0.29477 -0.295505 0.955341 243.14 36.6919)" fill="url(#paint0_linear)"/>
<rect width="239.778" height="238.108" rx="51" transform="matrix(0.955568 0.29477 -0.295505 0.955341 243.14 36.6919)" fill="url(#paint1_linear)"/>
</g>
<g opacity="0.7" filter="url(#filter1_f)">
<path d="M349.593 195.29C359.51 183.608 352.79 170.195 340.67 156.73L356.048 142.056L345.836 132.407L330.859 146.694C328.178 144.16 325.389 141.611 322.612 139.087L337.673 124.697L327.473 115.055L312.113 129.731L291.503 110.306L281.509 119.852C281.509 119.852 289.18 126.851 288.927 126.855C293.06 130.764 292.209 134.138 290.699 136.321L248.585 176.53C247.211 177.497 244.545 178.589 241.655 175.858C241.68 176.084 234.242 168.834 234.242 168.834L221.027 177.605L241.545 197.106L225.999 211.958L236.194 221.596L251.581 206.908C254.334 209.608 257.016 212.185 259.662 214.681L244.344 229.299L254.554 238.946L270.08 224.128C288.146 239.487 304.122 247.057 320.373 234.367C333.471 224.147 332.679 213.312 325.082 202.053C333.768 205.003 342.334 203.854 349.579 195.291L349.593 195.29ZM302.055 213.534C290.432 224.627 270.058 202.86 263.131 196.321L283.735 176.654C290.653 183.196 314.169 201.958 302.06 213.534L302.055 213.534ZM326.382 181.302C315.805 191.397 298.938 173.108 293.173 167.658L311.853 149.808C317.619 155.262 337.402 170.769 326.374 181.295" fill="#CC9A24"/>
</g>
<g filter="url(#filter2_ii)">
<path d="M372.558 184.843C378.693 172.184 370.699 161.916 358.21 152.873L368.343 136.283L358.126 130.163L348.256 146.316C345.573 144.709 342.799 143.113 340.038 141.536L349.959 125.273L339.753 119.157L329.634 135.743L309.022 123.433L302.439 134.223C302.439 134.223 310.068 138.601 309.859 138.664C313.995 141.144 313.895 144.326 313.034 146.611L285.287 192.062C284.32 193.241 282.302 194.834 279.41 193.101C279.472 193.295 271.99 188.641 271.99 188.641L262.591 199.505L283.141 211.902L272.9 228.688L283.102 234.803L293.24 218.2C296.012 219.937 298.703 221.582 301.35 223.164L291.256 239.69L301.472 245.809L311.702 229.058C329.471 238.373 344.102 241.299 355.317 226.257C364.358 214.141 361.751 204.753 353.416 196.594C361.16 197.154 368.069 194.121 372.546 184.848L372.558 184.843ZM336.355 212.163C328.697 224.703 307.858 210.269 300.929 206.124L314.504 183.891C321.427 188.042 344.334 199.081 336.359 212.162L336.355 212.163ZM350.763 177.951C343.793 189.364 326.494 177.176 320.725 173.718L333.03 153.545C338.801 157.006 358.022 166.047 350.755 177.947" fill="#DADADA"/>
</g>
<g filter="url(#filter3_iiii)">
<rect width="151.687" height="150.667" rx="42" transform="matrix(0.907236 -0.420621 0.421566 0.906797 32.2988 107.21)" fill="url(#paint2_linear)"/>
</g>
<g opacity="0.1" filter="url(#filter4_f)">
<path d="M112.018 102.267L111.544 104.525L114.069 169.08L114.655 169.721L139.36 151.047L112.018 102.267Z" fill="#141414"/>
<path d="M111.997 102.271L88.5197 152.987L114.635 169.725L113.409 138.377L111.997 102.271Z" fill="#141414"/>
<path d="M114.865 175.388L114.563 175.873L115.462 198.873L115.825 199.932L139.602 156.712L114.865 175.388Z" fill="#141414"/>
<path d="M115.809 199.936L114.849 175.393L88.7266 158.655L115.809 199.936Z" fill="#141414"/>
<path d="M114.644 169.721L139.357 151.045L113.418 138.37L114.644 169.721Z" fill="#141414"/>
<path d="M88.5122 152.986L114.637 169.725L113.411 138.375L88.5122 152.986Z" fill="#141414"/>
</g>
<g filter="url(#filter5_i)">
<path d="M113.351 95.7826L113.678 98.0379L140.134 155.399L140.996 155.719L160.489 127.864L113.351 95.7826Z" fill="#343434"/>
<path d="M113.291 95.823L106.902 152.161L140.936 155.759L128.088 127.905L113.291 95.823Z" fill="#8C8C8C"/>
<path d="M143.278 160.734L143.134 161.307L152.564 181.749L153.341 182.548L162.808 132.857L143.278 160.734Z" fill="#3C3C3B"/>
<path d="M153.293 182.584L143.229 160.771L109.179 157.172L153.293 182.584Z" fill="#8C8C8C"/>
<path d="M140.972 155.72L160.479 127.85L128.114 127.852L140.972 155.72Z" fill="#141414"/>
<path d="M106.877 152.153L140.937 155.752L128.079 127.883L106.877 152.153Z" fill="#393939"/>
</g>
<g filter="url(#filter6_bi)">
<ellipse cx="173.5" cy="257.152" rx="60.5" ry="60.4175" fill="#FFFADC" style="mix-blend-mode:multiply"/>
<ellipse cx="173.5" cy="257.152" rx="60.5" ry="60.4175" stroke="white" stroke-opacity="0.2" stroke-width="1.72368"/>
</g>
<g filter="url(#filter7_bi)">
<ellipse cx="39.5" cy="97.3699" rx="38.5" ry="38.4475" fill="#F1F1F1" style="mix-blend-mode:multiply"/>
<ellipse cx="39.5" cy="97.3699" rx="38.5" ry="38.4475" stroke="white" stroke-opacity="0.1" stroke-width="0.685884"/>
</g>
<g filter="url(#filter8_bi)">
<ellipse cx="527.5" cy="127.329" rx="125.5" ry="125.329" fill="#FFFADC" style="mix-blend-mode:multiply"/>
<ellipse cx="527.5" cy="127.329" rx="125.5" ry="125.329" stroke="white" stroke-opacity="0.05" stroke-width="3"/>
</g>
<g filter="url(#filter9_iiii)">
<rect width="178.728" height="177.497" rx="42" transform="matrix(0.940003 -0.341167 0.34199 0.939703 400.86 169.205)" fill="url(#paint3_linear)"/>
</g>
<g opacity="0.3" filter="url(#filter10_f)">
<path d="M508.607 213.627L509.113 202.13L534.341 203.225L535.139 185.096L472.844 194.853L466.412 213.214L490.375 208.056L490.391 213.28C469.673 213.267 454.196 216.583 453.962 221.889C453.729 227.195 468.836 232.28 489.476 234.062L487.82 271.646L506.017 272.435L507.672 234.851C527.976 234.846 543.887 231.106 544.12 225.8C544.354 220.494 528.814 215.832 508.607 213.627ZM507.809 231.756C507.395 231.738 504.5 231.612 498.71 231.361C494.161 231.164 490.853 231.02 489.612 230.966C471.454 229.293 457.962 225.163 458.137 221.184C458.312 217.204 472.116 214.259 490.352 214.164L489.768 227.429C491.008 227.483 494.297 228.069 498.847 228.266C504.637 228.517 507.137 228.182 507.965 228.218L508.549 214.953C526.707 216.627 539.785 220.738 539.61 224.718C539.435 228.697 526.045 231.661 507.809 231.756Z" fill="#1F5F4F"/>
</g>
<g filter="url(#filter11_ii)">
<path d="M521.662 205.102L517.701 195.239L541.19 185.947L534.943 170.394L471.023 195.681L477.27 211.234L500.758 201.942L504.872 212.184C485.924 220.559 473.048 229.61 474.876 234.162C476.704 238.714 492.475 236.871 512.033 230.013L524.982 262.257L541.925 255.554L528.975 223.31C547.538 215.087 560.647 205.505 558.819 200.953C556.991 196.401 540.987 198.776 521.662 205.102ZM527.909 220.655C527.524 220.807 524.828 221.874 519.437 224.006C515.202 225.682 512.121 226.901 510.966 227.358C493.719 233.301 479.793 235.294 478.422 231.88C477.051 228.466 488.539 220.404 505.177 212.943L509.747 224.323C510.902 223.866 514.135 223.027 518.371 221.351C523.762 219.218 525.92 217.925 526.69 217.62L522.119 206.24C539.367 200.296 552.907 198.456 554.279 201.87C555.65 205.284 544.547 213.194 527.909 220.655Z" fill="#DADADA"/>
</g>
<path d="M160.182 238.747L153.027 235.61L154.695 251.231L141.792 260.463L148.947 263.6L157.587 257.093L158.72 267.884L165.794 270.986L163.85 255.244L176.574 245.933L169.468 242.818L160.931 249.486L160.182 238.747ZM181.611 278.463C189.027 281.714 196.19 279.096 199.132 272.36C201.949 265.995 199.508 259.458 193.508 256.827C190.581 255.544 187.524 255.658 185.632 256.787L185.437 256.701L189.964 248.74L204.518 255.121L207.048 249.367L186.688 240.441L177.394 257.304L183.162 261.171C184.793 260.238 187.156 260.246 189.124 261.109C192.466 262.594 193.808 266.071 192.272 269.566C190.75 273.028 187.342 274.384 184.041 272.936C181.244 271.71 179.755 268.964 180.729 266.308L173.899 263.314C171.499 269.125 174.716 275.44 181.611 278.463Z" fill="white"/>
<defs>
<filter id="filter0_iiii" x="185.558" y="41.4451" width="289.926" height="284.647" filterUnits="userSpaceOnUse" color-interpolation-filters="sRGB">
<feFlood flood-opacity="0" result="BackgroundImageFix"/>
<feBlend mode="normal" in="SourceGraphic" in2="BackgroundImageFix" result="shape"/>
<feColorMatrix in="SourceAlpha" type="matrix" values="0 0 0 0 0 0 0 0 0 0 0 0 0 0 0 0 0 0 127 0" result="hardAlpha"/>
<feOffset dy="-8"/>
<feGaussianBlur stdDeviation="4"/>
<feComposite in2="hardAlpha" operator="arithmetic" k2="-1" k3="1"/>
<feColorMatrix type="matrix" values="0 0 0 0 0.804167 0 0 0 0 0.642328 0 0 0 0 0.264705 0 0 0 0.6 0"/>
<feBlend mode="normal" in2="shape" result="effect1_innerShadow"/>
<feColorMatrix in="SourceAlpha" type="matrix" values="0 0 0 0 0 0 0 0 0 0 0 0 0 0 0 0 0 0 127 0" result="hardAlpha"/>
<feOffset dy="7"/>
<feGaussianBlur stdDeviation="2"/>
<feComposite in2="hardAlpha" operator="arithmetic" k2="-1" k3="1"/>
<feColorMatrix type="matrix" values="0 0 0 0 1 0 0 0 0 1 0 0 0 0 1 0 0 0 0.2 0"/>
<feBlend mode="normal" in2="effect1_innerShadow" result="effect2_innerShadow"/>
<feColorMatrix in="SourceAlpha" type="matrix" values="0 0 0 0 0 0 0 0 0 0 0 0 0 0 0 0 0 0 127 0" result="hardAlpha"/>
<feOffset dx="16" dy="-1"/>
<feGaussianBlur stdDeviation="16.5"/>
<feComposite in2="hardAlpha" operator="arithmetic" k2="-1" k3="1"/>
<feColorMatrix type="matrix" values="0 0 0 0 0.6875 0 0 0 0 0.496719 0 0 0 0 0.0515625 0 0 0 1 0"/>
<feBlend mode="normal" in2="effect2_innerShadow" result="effect3_innerShadow"/>
<feColorMatrix in="SourceAlpha" type="matrix" values="0 0 0 0 0 0 0 0 0 0 0 0 0 0 0 0 0 0 127 0" result="hardAlpha"/>
<feOffset dx="8"/>
<feGaussianBlur stdDeviation="5"/>
<feComposite in2="hardAlpha" operator="arithmetic" k2="-1" k3="1"/>
<feColorMatrix type="matrix" values="0 0 0 0 0.933333 0 0 0 0 0.784314 0 0 0 0 0.427451 0 0 0 0.3 0"/>
<feBlend mode="normal" in2="effect3_innerShadow" result="effect4_innerShadow"/>
</filter>
<filter id="filter1_f" x="208.027" y="97.3054" width="161.021" height="156.475" filterUnits="userSpaceOnUse" color-interpolation-filters="sRGB">
<feFlood flood-opacity="0" result="BackgroundImageFix"/>
<feBlend mode="normal" in="SourceGraphic" in2="BackgroundImageFix" result="shape"/>
<feGaussianBlur stdDeviation="6.5" result="effect1_foregroundBlur"/>
</filter>
<filter id="filter2_ii" x="261.591" y="118.156" width="113.076" height="128.652" filterUnits="userSpaceOnUse" color-interpolation-filters="sRGB">
<feFlood flood-opacity="0" result="BackgroundImageFix"/>
<feBlend mode="normal" in="SourceGraphic" in2="BackgroundImageFix" result="shape"/>
<feColorMatrix in="SourceAlpha" type="matrix" values="0 0 0 0 0 0 0 0 0 0 0 0 0 0 0 0 0 0 127 0" result="hardAlpha"/>
<feOffset dx="-1" dy="1"/>
<feGaussianBlur stdDeviation="1"/>
<feComposite in2="hardAlpha" operator="arithmetic" k2="-1" k3="1"/>
<feColorMatrix type="matrix" values="0 0 0 0 1 0 0 0 0 1 0 0 0 0 1 0 0 0 0.9 0"/>
<feBlend mode="normal" in2="shape" result="effect1_innerShadow"/>
<feColorMatrix in="SourceAlpha" type="matrix" values="0 0 0 0 0 0 0 0 0 0 0 0 0 0 0 0 0 0 127 0" result="hardAlpha"/>
<feOffset dy="-1"/>
<feGaussianBlur stdDeviation="1"/>
<feComposite in2="hardAlpha" operator="arithmetic" k2="-1" k3="1"/>
<feColorMatrix type="matrix" values="0 0 0 0 0 0 0 0 0 0 0 0 0 0 0 0 0 0 0.25 0"/>
<feBlend mode="normal" in2="effect1_innerShadow" result="effect2_innerShadow"/>
</filter>
<filter id="filter3_iiii" x="36.0818" y="49.1653" width="193.566" height="184.911" filterUnits="userSpaceOnUse" color-interpolation-filters="sRGB">
<feFlood flood-opacity="0" result="BackgroundImageFix"/>
<feBlend mode="normal" in="SourceGraphic" in2="BackgroundImageFix" result="shape"/>
<feColorMatrix in="SourceAlpha" type="matrix" values="0 0 0 0 0 0 0 0 0 0 0 0 0 0 0 0 0 0 127 0" result="hardAlpha"/>
<feOffset dy="-8"/>
<feGaussianBlur stdDeviation="4"/>
<feComposite in2="hardAlpha" operator="arithmetic" k2="-1" k3="1"/>
<feColorMatrix type="matrix" values="0 0 0 0 1 0 0 0 0 1 0 0 0 0 1 0 0 0 0.6 0"/>
<feBlend mode="normal" in2="shape" result="effect1_innerShadow"/>
<feColorMatrix in="SourceAlpha" type="matrix" values="0 0 0 0 0 0 0 0 0 0 0 0 0 0 0 0 0 0 127 0" result="hardAlpha"/>
<feOffset dx="10" dy="-5"/>
<feGaussianBlur stdDeviation="6.5"/>
<feComposite in2="hardAlpha" operator="arithmetic" k2="-1" k3="1"/>
<feColorMatrix type="matrix" values="0 0 0 0 0.518275 0 0 0 0 0.517647 0 0 0 0 0.52549 0 0 0 1 0"/>
<feBlend mode="normal" in2="effect1_innerShadow" result="effect2_innerShadow"/>
<feColorMatrix in="SourceAlpha" type="matrix" values="0 0 0 0 0 0 0 0 0 0 0 0 0 0 0 0 0 0 127 0" result="hardAlpha"/>
<feOffset dx="-10" dy="-7"/>
<feGaussianBlur stdDeviation="7.5"/>
<feComposite in2="hardAlpha" operator="arithmetic" k2="-1" k3="1"/>
<feColorMatrix type="matrix" values="0 0 0 0 1 0 0 0 0 1 0 0 0 0 1 0 0 0 0.6 0"/>
<feBlend mode="normal" in2="effect2_innerShadow" result="effect3_innerShadow"/>
<feColorMatrix in="SourceAlpha" type="matrix" values="0 0 0 0 0 0 0 0 0 0 0 0 0 0 0 0 0 0 127 0" result="hardAlpha"/>
<feOffset dy="4"/>
<feGaussianBlur stdDeviation="2"/>
<feComposite in2="hardAlpha" operator="arithmetic" k2="-1" k3="1"/>
<feColorMatrix type="matrix" values="0 0 0 0 1 0 0 0 0 1 0 0 0 0 1 0 0 0 0.1 0"/>
<feBlend mode="normal" in2="effect3_innerShadow" result="effect4_innerShadow"/>
</filter>
<filter id="filter4_f" x="79.5122" y="93.2666" width="69.0895" height="115.67" filterUnits="userSpaceOnUse" color-interpolation-filters="sRGB">
<feFlood flood-opacity="0" result="BackgroundImageFix"/>
<feBlend mode="normal" in="SourceGraphic" in2="BackgroundImageFix" result="shape"/>
<feGaussianBlur stdDeviation="4.5" result="effect1_foregroundBlur"/>
</filter>
<filter id="filter5_i" x="105.877" y="95.7827" width="56.9313" height="86.8017" filterUnits="userSpaceOnUse" color-interpolation-filters="sRGB">
<feFlood flood-opacity="0" result="BackgroundImageFix"/>
<feBlend mode="normal" in="SourceGraphic" in2="BackgroundImageFix" result="shape"/>
<feColorMatrix in="SourceAlpha" type="matrix" values="0 0 0 0 0 0 0 0 0 0 0 0 0 0 0 0 0 0 127 0" result="hardAlpha"/>
<feOffset dx="-1"/>
<feGaussianBlur stdDeviation="0.5"/>
<feComposite in2="hardAlpha" operator="arithmetic" k2="-1" k3="1"/>
<feColorMatrix type="matrix" values="0 0 0 0 1 0 0 0 0 1 0 0 0 0 1 0 0 0 0.9 0"/>
<feBlend mode="normal" in2="shape" result="effect1_innerShadow"/>
</filter>
<filter id="filter6_bi" x="79.7382" y="163.472" width="187.524" height="187.359" filterUnits="userSpaceOnUse" color-interpolation-filters="sRGB">
<feFlood flood-opacity="0" result="BackgroundImageFix"/>
<feGaussianBlur in="BackgroundImage" stdDeviation="16.2"/>
<feComposite in2="SourceAlpha" operator="in" result="effect1_backgroundBlur"/>
<feBlend mode="normal" in="SourceGraphic" in2="effect1_backgroundBlur" result="shape"/>
<feColorMatrix in="SourceAlpha" type="matrix" values="0 0 0 0 0 0 0 0 0 0 0 0 0 0 0 0 0 0 127 0" result="hardAlpha"/>
<feOffset dy="-9.45"/>
<feGaussianBlur stdDeviation="9.5"/>
<feComposite in2="hardAlpha" operator="arithmetic" k2="-1" k3="1"/>
<feColorMatrix type="matrix" values="0 0 0 0 0.207813 0 0 0 0 0.309657 0 0 0 0 0.395833 0 0 0 0.3 0"/>
<feBlend mode="normal" in2="shape" result="effect2_innerShadow"/>
</filter>
<filter id="filter7_bi" x="-19.3429" y="38.5793" width="117.686" height="117.581" filterUnits="userSpaceOnUse" color-interpolation-filters="sRGB">
<feFlood flood-opacity="0" result="BackgroundImageFix"/>
<feGaussianBlur in="BackgroundImage" stdDeviation="10"/>
<feComposite in2="SourceAlpha" operator="in" result="effect1_backgroundBlur"/>
<feBlend mode="normal" in="SourceGraphic" in2="effect1_backgroundBlur" result="shape"/>
<feColorMatrix in="SourceAlpha" type="matrix" values="0 0 0 0 0 0 0 0 0 0 0 0 0 0 0 0 0 0 127 0" result="hardAlpha"/>
<feOffset dy="-3.76033"/>
<feGaussianBlur stdDeviation="1.88017"/>
<feComposite in2="hardAlpha" operator="arithmetic" k2="-1" k3="1"/>
<feColorMatrix type="matrix" values="0 0 0 0 1 0 0 0 0 0.969164 0 0 0 0 0.84953 0 0 0 0.1 0"/>
<feBlend mode="normal" in2="shape" result="effect2_innerShadow"/>
</filter>
<filter id="filter8_bi" x="365.793" y="-34.207" width="323.414" height="323.072" filterUnits="userSpaceOnUse" color-interpolation-filters="sRGB">
<feFlood flood-opacity="0" result="BackgroundImageFix"/>
<feGaussianBlur in="BackgroundImage" stdDeviation="17.3535"/>
<feComposite in2="SourceAlpha" operator="in" result="effect1_backgroundBlur"/>
<feBlend mode="normal" in="SourceGraphic" in2="effect1_backgroundBlur" result="shape"/>
<feColorMatrix in="SourceAlpha" type="matrix" values="0 0 0 0 0 0 0 0 0 0 0 0 0 0 0 0 0 0 127 0" result="hardAlpha"/>
<feOffset dy="-7"/>
<feGaussianBlur stdDeviation="3.5"/>
<feComposite in2="hardAlpha" operator="arithmetic" k2="-1" k3="1"/>
<feColorMatrix type="matrix" values="0 0 0 0 1 0 0 0 0 0.969164 0 0 0 0 0.84953 0 0 0 0.302557 0"/>
<feBlend mode="normal" in2="shape" result="effect2_innerShadow"/>
</filter>
<filter id="filter9_iiii" x="397.681" y="111.026" width="242.066" height="218.177" filterUnits="userSpaceOnUse" color-interpolation-filters="sRGB">
<feFlood flood-opacity="0" result="BackgroundImageFix"/>
<feBlend mode="normal" in="SourceGraphic" in2="BackgroundImageFix" result="shape"/>
<feColorMatrix in="SourceAlpha" type="matrix" values="0 0 0 0 0 0 0 0 0 0 0 0 0 0 0 0 0 0 127 0" result="hardAlpha"/>
<feOffset dx="-15" dy="-6"/>
<feGaussianBlur stdDeviation="8.5"/>
<feComposite in2="hardAlpha" operator="arithmetic" k2="-1" k3="1"/>
<feColorMatrix type="matrix" values="0 0 0 0 1 0 0 0 0 1 0 0 0 0 1 0 0 0 0.3 0"/>
<feBlend mode="normal" in2="shape" result="effect1_innerShadow"/>
<feColorMatrix in="SourceAlpha" type="matrix" values="0 0 0 0 0 0 0 0 0 0 0 0 0 0 0 0 0 0 127 0" result="hardAlpha"/>
<feOffset dx="22" dy="5"/>
<feGaussianBlur stdDeviation="15.5"/>
<feComposite in2="hardAlpha" operator="arithmetic" k2="-1" k3="1"/>
<feColorMatrix type="matrix" values="0 0 0 0 0.130156 0 0 0 0 0.495833 0 0 0 0 0.342249 0 0 0 1 0"/>
<feBlend mode="normal" in2="effect1_innerShadow" result="effect2_innerShadow"/>
<feColorMatrix in="SourceAlpha" type="matrix" values="0 0 0 0 0 0 0 0 0 0 0 0 0 0 0 0 0 0 127 0" result="hardAlpha"/>
<feOffset dx="6" dy="-2"/>
<feGaussianBlur stdDeviation="6.5"/>
<feComposite in2="hardAlpha" operator="arithmetic" k2="-1" k3="1"/>
<feColorMatrix type="matrix" values="0 0 0 0 0.92549 0 0 0 0 0.780392 0 0 0 0 0.427451 0 0 0 0.4 0"/>
<feBlend mode="normal" in2="effect2_innerShadow" result="effect3_innerShadow"/>
<feColorMatrix in="SourceAlpha" type="matrix" values="0 0 0 0 0 0 0 0 0 0 0 0 0 0 0 0 0 0 127 0" result="hardAlpha"/>
<feOffset dx="-12" dy="-9"/>
<feGaussianBlur stdDeviation="8.5"/>
<feComposite in2="hardAlpha" operator="arithmetic" k2="-1" k3="1"/>
<feColorMatrix type="matrix" values="0 0 0 0 0.804167 0 0 0 0 0.953 0 0 0 0 1 0 0 0 0.1 0"/>
<feBlend mode="normal" in2="effect3_innerShadow" result="effect4_innerShadow"/>
</filter>
<filter id="filter10_f" x="440.96" y="172.096" width="116.163" height="113.339" filterUnits="userSpaceOnUse" color-interpolation-filters="sRGB">
<feFlood flood-opacity="0" result="BackgroundImageFix"/>
<feBlend mode="normal" in="SourceGraphic" in2="BackgroundImageFix" result="shape"/>
<feGaussianBlur stdDeviation="6.5" result="effect1_foregroundBlur"/>
</filter>
<filter id="filter11_ii" x="470.023" y="169.394" width="88.9658" height="93.8624" filterUnits="userSpaceOnUse" color-interpolation-filters="sRGB">
<feFlood flood-opacity="0" result="BackgroundImageFix"/>
<feBlend mode="normal" in="SourceGraphic" in2="BackgroundImageFix" result="shape"/>
<feColorMatrix in="SourceAlpha" type="matrix" values="0 0 0 0 0 0 0 0 0 0 0 0 0 0 0 0 0 0 127 0" result="hardAlpha"/>
<feOffset dx="-1" dy="1"/>
<feGaussianBlur stdDeviation="1"/>
<feComposite in2="hardAlpha" operator="arithmetic" k2="-1" k3="1"/>
<feColorMatrix type="matrix" values="0 0 0 0 1 0 0 0 0 1 0 0 0 0 1 0 0 0 0.9 0"/>
<feBlend mode="normal" in2="shape" result="effect1_innerShadow"/>
<feColorMatrix in="SourceAlpha" type="matrix" values="0 0 0 0 0 0 0 0 0 0 0 0 0 0 0 0 0 0 127 0" result="hardAlpha"/>
<feOffset dy="-1"/>
<feGaussianBlur stdDeviation="1"/>
<feComposite in2="hardAlpha" operator="arithmetic" k2="-1" k3="1"/>
<feColorMatrix type="matrix" values="0 0 0 0 0 0 0 0 0 0 0 0 0 0 0 0 0 0 0.25 0"/>
<feBlend mode="normal" in2="effect1_innerShadow" result="effect2_innerShadow"/>
</filter>
<linearGradient id="paint0_linear" x1="258.007" y1="119.054" x2="120.604" y2="148.531" gradientUnits="userSpaceOnUse">
<stop stop-color="#F2D080"/>
<stop offset="1" stop-color="#E1B449"/>
</linearGradient>
<linearGradient id="paint1_linear" x1="239.778" y1="137.262" x2="182.288" y2="135.156" gradientUnits="userSpaceOnUse">
<stop stop-color="#FFF4BC"/>
<stop offset="1" stop-color="#EDC568" stop-opacity="0"/>
</linearGradient>
<linearGradient id="paint2_linear" x1="-65.0757" y1="-9.71219" x2="186.124" y2="209.164" gradientUnits="userSpaceOnUse">
<stop stop-color="#848587"/>
<stop offset="1" stop-color="#DDDDDD"/>
</linearGradient>
<linearGradient id="paint3_linear" x1="-22.5959" y1="18.3701" x2="219.291" y2="246.405" gradientUnits="userSpaceOnUse">
<stop stop-color="#26A157"/>
<stop offset="1" stop-color="#34B678"/>
</linearGradient>
</defs>
</svg>
