<svg width="18" height="18" viewBox="0 0 18 18" fill="none" xmlns="http://www.w3.org/2000/svg">
<path fill-rule="evenodd" clip-rule="evenodd" d="M9 16.5C13.1421 16.5 16.5 13.1421 16.5 9C16.5 4.85786 13.1421 1.5 9 1.5C4.85786 1.5 1.5 4.85786 1.5 9C1.5 13.1421 4.85786 16.5 9 16.5ZM9 18C13.9706 18 18 13.9706 18 9C18 4.02944 13.9706 0 9 0C4.02944 0 0 4.02944 0 9C0 13.9706 4.02944 18 9 18Z" fill="white"/>
<path fill-rule="evenodd" clip-rule="evenodd" d="M7.68863 5.83823C7.44014 6.18335 7.34998 6.62002 7.34998 6.9C7.34998 7.31421 7.01419 7.65 6.59998 7.65C6.18576 7.65 5.84998 7.31421 5.84998 6.9C5.84998 6.37998 5.99981 5.61665 6.47132 4.96177C6.97037 4.26865 7.79554 3.75 8.99998 3.75C10.1255 3.75 10.9685 4.11002 11.5056 4.78148C12.0172 5.42098 12.15 6.21987 12.15 6.9C12.15 8.17482 11.2744 8.80538 10.7137 9.20917C10.6885 9.22729 10.664 9.24496 10.6402 9.26221C10.0269 9.70682 9.74998 9.95506 9.74998 10.5C9.74998 10.9142 9.41419 11.25 8.99998 11.25C8.58576 11.25 8.24998 10.9142 8.24998 10.5C8.24998 9.14183 9.15047 8.4893 9.73798 8.06357C9.74528 8.05828 9.75254 8.05302 9.75975 8.04779C10.4059 7.57931 10.65 7.36795 10.65 6.9C10.65 6.38013 10.5427 5.97902 10.3343 5.71852C10.1515 5.48998 9.79445 5.25 8.99998 5.25C8.28442 5.25 7.90958 5.53135 7.68863 5.83823Z" fill="white"/>
<circle cx="9" cy="12.75" r="0.75" fill="white"/>
</svg>
