<svg width="18" height="18" viewBox="0 0 18 18" fill="none" xmlns="http://www.w3.org/2000/svg">
<path d="M9 18C4.02944 18 0 13.9706 0 9C0 4.02944 4.02944 0 9 0C13.9706 0 18 4.02944 18 9C17.9945 13.9683 13.9683 17.9945 9 18ZM8.1 13.5V15.3H9.9V13.5H8.1ZM9 4.5C9.99411 4.5 10.8 5.30589 10.8 6.3C10.8032 6.77766 10.6114 7.23594 10.269 7.569L9.153 8.703C8.47929 9.37955 8.10073 10.2952 8.1 11.25V11.7H9.9C9.83005 10.7325 10.2203 9.78865 10.953 9.153L11.763 8.325C12.3013 7.78888 12.6027 7.0597 12.6 6.3C12.6 4.31177 10.9882 2.7 9 2.7C7.01178 2.7 5.4 4.31177 5.4 6.3H7.2C7.2 5.30589 8.00589 4.5 9 4.5Z" fill="white"/>
</svg>
