<svg width="12" height="14" viewBox="0 0 12 14" fill="none" xmlns="http://www.w3.org/2000/svg">
<path d="M0.943457 4.53516C0.702238 4.53516 0.497572 4.61928 0.329333 4.78751C0.161095 4.95575 0.0769501 5.15763 0.0769501 5.39326V9.01102C0.0769501 9.25254 0.161069 9.45703 0.329333 9.6253C0.497572 9.79353 0.702238 9.87768 0.943457 9.87768C1.1845 9.87768 1.38793 9.79356 1.55356 9.6253C1.71886 9.45706 1.80174 9.25254 1.80174 9.01102V5.39326C1.80174 5.15761 1.71762 4.95575 1.54935 4.78751C1.38109 4.61928 1.17908 4.53516 0.943457 4.53516Z"/>
<path d="M7.9098 1.28715L8.50716 0.185168C8.54637 0.112212 8.53243 0.056268 8.46519 0.0169296C8.39221 -0.0169915 8.33614 0.000196893 8.29695 0.0672797L7.69123 1.17807C7.15824 0.942419 6.59452 0.824379 6.00006 0.824379C5.40548 0.824379 4.84171 0.942444 4.30892 1.17807L3.70317 0.0672797C3.66381 0.000196893 3.60774 -0.0168396 3.53494 0.0169296C3.46755 0.0564452 3.4536 0.112212 3.49297 0.185168L4.09036 1.28715C3.48461 1.59606 3.00217 2.02627 2.64322 2.57873C2.28426 3.13149 2.10471 3.73554 2.10471 4.39194H9.88697C9.88697 3.7357 9.70739 3.13162 9.34846 2.57873C8.98947 2.02627 8.50982 1.59606 7.9098 1.28715ZM4.4561 2.89C4.39149 2.95475 4.31434 2.98698 4.22465 2.98698C4.13478 2.98698 4.05919 2.95475 3.99753 2.89C3.93586 2.82555 3.90503 2.74869 3.90503 2.6587C3.90503 2.56901 3.93586 2.49201 3.99753 2.4274C4.05919 2.36295 4.13496 2.33073 4.22465 2.33073C4.31434 2.33073 4.39149 2.36295 4.4561 2.4274C4.52055 2.49216 4.55292 2.56901 4.55292 2.6587C4.55275 2.74854 4.52039 2.82555 4.4561 2.89ZM8.00227 2.89C7.94048 2.95475 7.86471 2.98698 7.77518 2.98698C7.68528 2.98698 7.60815 2.95475 7.54368 2.89C7.4791 2.82555 7.44688 2.74869 7.44688 2.6587C7.44688 2.56901 7.4791 2.49201 7.54368 2.4274C7.60815 2.36295 7.68528 2.33073 7.77518 2.33073C7.86486 2.33073 7.94045 2.36295 8.00227 2.4274C8.06399 2.49216 8.09477 2.56901 8.09477 2.6587C8.09477 2.74854 8.06396 2.82555 8.00227 2.89Z"/>
<path d="M2.13818 10.2977C2.13818 10.556 2.22787 10.7746 2.40727 10.954C2.58683 11.1334 2.80544 11.2231 3.06352 11.2231H3.68615L3.69468 13.1332C3.69468 13.3744 3.7788 13.5792 3.94704 13.7474C4.11528 13.9157 4.31731 13.9998 4.55278 13.9998C4.79385 13.9998 4.99864 13.9157 5.16691 13.7474C5.33517 13.5792 5.41929 13.3744 5.41929 13.1332V11.2233H6.58031V13.1332C6.58031 13.3744 6.6644 13.5792 6.83266 13.7474C7.00093 13.9157 7.20554 13.9998 7.44679 13.9998C7.68785 13.9998 7.89265 13.9157 8.06091 13.7474C8.22918 13.5792 8.31327 13.3744 8.31327 13.1332V11.2233H8.9443C9.19666 11.2233 9.41246 11.1336 9.5922 10.9542C9.77157 10.7748 9.86131 10.5562 9.86131 10.2979V4.69434H2.13818V10.2977Z"/>
<path d="M11.0565 4.53516C10.8208 4.53516 10.619 4.61804 10.4507 4.78334C10.2825 4.94894 10.1984 5.15237 10.1984 5.39326V9.01102C10.1984 9.25254 10.2825 9.45703 10.4507 9.6253C10.619 9.79356 10.821 9.87768 11.0565 9.87768C11.2976 9.87768 11.5024 9.79356 11.6706 9.6253C11.8389 9.45703 11.923 9.25254 11.923 9.01102V5.39326C11.923 5.15234 11.8389 4.94894 11.6706 4.78334C11.5024 4.61804 11.2976 4.53516 11.0565 4.53516Z"/>
</svg>
