<svg width="12" height="14" viewBox="0 0 12 14" fill="none" xmlns="http://www.w3.org/2000/svg">
<path d="M6.38521 1.04981C6.89576 0.46658 7.74668 0 8.42741 0C8.54087 0.816515 8.2005 1.63303 7.68995 2.21625C7.1794 2.79948 6.38521 3.26606 5.59102 3.20774C5.53429 2.44954 5.93139 1.57471 6.38521 1.04981ZM11.3205 10.2648C11.3205 10.2648 9.44851 9.56489 9.44851 7.46528C9.44851 5.7156 10.8667 4.84077 10.9802 4.78244C10.1292 3.55767 8.88123 3.3827 8.42741 3.3827C7.34958 3.26606 6.32848 4.02425 5.7612 4.02425C5.19392 4.02425 4.34301 3.3827 3.43536 3.3827C2.24408 3.3827 1.16625 4.08257 0.598969 5.13238C-0.649043 7.34863 0.258602 10.498 1.44989 12.2477C2.01717 13.1226 2.75463 14.0557 3.66227 13.9974C4.56992 13.9391 4.85356 13.4142 5.93139 13.4142C7.00921 13.4142 7.29285 13.9974 8.25723 13.9391C9.2216 13.9391 9.78888 13.0642 10.3562 12.2477C11.0369 11.2562 11.3205 10.3231 11.3205 10.2648Z"/>
</svg>
